<?xml version="1.0" standalone="no"?>
<!DOCTYPE svg PUBLIC "-//W3C//DTD SVG 1.1//EN" "http://www.w3.org/Graphics/SVG/1.1/DTD/svg11.dtd" >
<svg xmlns="http://www.w3.org/2000/svg">
<metadata></metadata>
<defs>
<font id="oblikblack" horiz-adv-x="1241" >
<font-face units-per-em="2048" ascent="1638" descent="-410" />
<missing-glyph horiz-adv-x="512" />
<glyph horiz-adv-x="0" />
<glyph horiz-adv-x="682" />
<glyph unicode=" "  horiz-adv-x="512" />
<glyph unicode="&#x09;" horiz-adv-x="512" />
<glyph unicode="&#xa0;" horiz-adv-x="512" />
<glyph unicode="!" horiz-adv-x="559" d="M123 1434h313l-37 -1084h-243zM143 0h273v270h-273v-270z" />
<glyph unicode="&#x22;" horiz-adv-x="747" d="M61 1434h213l-14 -443h-186zM473 1434h213l-14 -443h-187z" />
<glyph unicode="#" horiz-adv-x="1300" d="M82 420v205h219l27 186h-246v201h274l68 456h205l-68 -456h264l62 456h205l-66 -456h193v-201h-220l-30 -186h250v-205h-279l-66 -453h-204l65 453h-258l-67 -453h-203l63 453h-188zM504 625h262l27 186h-263z" />
<glyph unicode="$" horiz-adv-x="1204" d="M61 57v305h39q86 -43 194 -67.5t200 -26.5h47v303q-95 37 -199 86q-115 53 -179.5 152t-64.5 229q0 99 35.5 176.5t97.5 126.5t140 76.5t170 34.5v176h141v-174q153 -7 350 -78v-305h-39q-40 28 -129.5 59.5t-181.5 36.5v-272q116 -44 213 -92q105 -54 166 -148t61 -202 q0 -102 -33.5 -183.5t-94 -137t-138.5 -90t-174 -50.5v-187h-141v172h-33q-243 0 -447 80zM440 1065q0 -76 101 -117v209q-101 -24 -101 -92zM682 293q98 38 98 104q0 73 -98 119v-223z" />
<glyph unicode="%" horiz-adv-x="1626" d="M123 1090q0 167 81 266.5t218 99.5t218 -100.5t81 -265.5t-81 -265t-218 -100t-218 100t-81 265zM287 1087q0 -85 36 -146.5t99 -61.5t99 61.5t36 146.5t-36 147t-99 62t-99 -62t-36 -147zM332 -27l794 1491h168l-794 -1491h-168zM905 342q0 167 81 267t218 100t218 -101 t81 -266t-81 -265t-218 -100t-218 100t-81 265zM1069 340q0 -85 36 -147t99 -62t99 62t36 147t-36 147t-99 62t-99 -62t-36 -147z" />
<glyph unicode="&#x26;" horiz-adv-x="1452" d="M102 410q0 134 82.5 248t206.5 192q-108 137 -108 280q0 158 107 263t267 108q161 2 271 -96t110 -264q0 -228 -215 -357l160 -196q13 75 16 160h258q-9 -270 -71 -412l266 -336h-381l-78 96q-93 -64 -171 -91.5t-183 -27.5q-87 0 -165 15.5t-146.5 49.5t-118 83.5 t-78.5 122.5t-29 162zM408 412q0 -83 65 -131t154 -48q50 0 103.5 19.5t94.5 52.5l-278 346q-139 -101 -139 -239zM580 1141q0 -73 79 -152q60 34 92 67.5t35 80.5q2 45 -22.5 76.5t-79.5 31.5q-54 0 -79 -30.5t-25 -73.5z" />
<glyph unicode="'" horiz-adv-x="335" d="M61 1434h213l-14 -443h-186z" />
<glyph unicode="(" horiz-adv-x="831" d="M123 479q0 240 68 438.5t215 352t364 231.5v-217q-367 -259 -367 -805q0 -237 93.5 -430.5t273.5 -314.5v-226q-318 122 -482.5 378t-164.5 593z" />
<glyph unicode=")" horiz-adv-x="831" d="M61 -274q367 259 367 804q0 237 -93.5 431t-273.5 315v225q318 -122 483 -378t165 -593q0 -240 -68 -438.5t-215.5 -352t-364.5 -231.5v218z" />
<glyph unicode="*" horiz-adv-x="1030" d="M123 1001l233 97l-233 98l98 178l217 -149l-22 278h198l-20 -278l219 149l94 -178l-237 -98l237 -97l-98 -178l-219 148l20 -275h-200l26 273l-215 -146z" />
<glyph unicode="+" horiz-adv-x="1200" d="M123 604v217h364v367h222v-367h368v-217h-368v-368h-222v368h-364z" />
<glyph unicode="," horiz-adv-x="690" d="M123 -289l153 572h291l-256 -572h-188z" />
<glyph unicode="-" horiz-adv-x="964" d="M123 428v229h719v-229h-719z" />
<glyph unicode="." horiz-adv-x="520" d="M123 0v272h274v-272h-274z" />
<glyph unicode="/" horiz-adv-x="831" d="M123 -27l432 1491h154l-433 -1491h-153z" />
<glyph unicode="0" horiz-adv-x="1437" d="M102 717q0 336 169 537.5t448 201.5t447.5 -201.5t168.5 -537.5t-168.5 -538t-447.5 -202t-448 202t-169 538zM430 717q0 -229 76.5 -356.5t212.5 -127.5t212.5 127.5t76.5 356.5t-76.5 356t-212.5 127t-212.5 -127t-76.5 -356z" />
<glyph unicode="1" horiz-adv-x="843" d="M20 1143l259 229q94 84 221 84q87 0 143.5 -55t56.5 -172v-1229h-327v1100h-11l-169 -158z" />
<glyph unicode="2" horiz-adv-x="1036" d="M41 0v207l485 579q53 64 79 118t26 112q0 80 -64 132t-149 52q-150 0 -275 -90h-34v254q97 47 183.5 69.5t186.5 22.5q91 0 177.5 -28.5t156.5 -80.5t113 -136t43 -185q0 -135 -46.5 -242t-174.5 -223l-316 -289v-6h543v-266h-934z" />
<glyph unicode="3" horiz-adv-x="1044" d="M41 68v254h35q61 -39 154 -64t184 -25q95 0 163 57.5t68 147.5q0 52 -27 92t-70.5 61t-89.5 31.5t-93 10.5h-134v248h103q244 0 246 168q0 77 -60 115t-135 38q-67 2 -148 -18.5t-137 -55.5h-34v254q164 74 370 74q89 0 173.5 -26t154.5 -75t112 -128.5t42 -177.5 q0 -95 -52 -167.5t-129 -105.5v-8q105 -37 175.5 -126t70.5 -202q1 -93 -28.5 -170t-81.5 -130.5t-123 -90.5t-152.5 -54.5t-171.5 -17.5q-188 0 -385 91z" />
<glyph unicode="4" horiz-adv-x="1212" d="M43.5 478.5q0.5 47.5 30.5 92.5l508 772q35 53 93 80t124 27q93 0 153 -67t60 -160v-652h139v-260h-139v-311h-328v311h-461q-51 0 -93 23.5t-64.5 60t-22 84zM385 571h299v480h-8z" />
<glyph unicode="5" horiz-adv-x="1093" d="M82 70v254h35q57 -42 132.5 -66.5t149.5 -24.5q109 0 192 68t83 172q0 55 -18.5 97t-48 67t-71 41t-82 21.5t-85.5 5.5h-240v729h836v-265h-508v-227q81 0 158 -16t149.5 -52t127 -88t87.5 -130.5t33 -174.5q0 -223 -160.5 -363.5t-411.5 -140.5q-98 0 -181.5 22.5 t-176.5 70.5z" />
<glyph unicode="6" horiz-adv-x="1290" d="M102 643q0 120 22 233.5t71 219.5t121 185.5t180 127t239 47.5q181 0 346 -76v-254h-34q-110 88 -273 88q-117 0 -195 -76t-106 -194h8q94 72 224 72q215 0 349 -133.5t134 -352.5q0 -112 -36 -211.5t-102.5 -176t-170.5 -121t-232 -44.5q-130 0 -235.5 54t-172 146.5 t-102 212t-35.5 253.5zM442 520q0 -69 22.5 -132.5t71 -109t113.5 -45.5q53 0 94.5 25.5t66.5 68t37.5 92.5t12.5 103q0 66 -20 121t-69 93t-120 38q-101 0 -155 -71t-54 -183z" />
<glyph unicode="7" horiz-adv-x="942" d="M20 1167v267h691q130 0 183.5 -81t0.5 -208l-477 -1145h-357l494 1157v10h-535z" />
<glyph unicode="8" horiz-adv-x="1277" d="M82 444q0 113 67 202t168 124v8q-77 36 -120 110.5t-43 162.5q0 103 36.5 182t103 127t153 72t192.5 24t192.5 -24t153 -72t103 -127t36.5 -182q0 -87 -44 -162t-119 -111v-8q101 -35 168 -124t67 -202q0 -114 -43.5 -204.5t-120 -147t-176.5 -86t-217 -29.5t-217 29.5 t-176.5 86t-120 147t-43.5 204.5zM416 434q0 -94 63 -152.5t158 -58.5q96 0 160.5 58.5t64.5 152.5q0 97 -64 154t-161 57q-96 0 -158.5 -57t-62.5 -154zM469 1040q0 -71 49 -120.5t119 -49.5q71 0 120.5 50t49.5 120q0 76 -49 123t-121 47t-120 -47t-48 -123z" />
<glyph unicode="9" horiz-adv-x="1290" d="M102 903q0 112 36 211.5t102.5 176t170.5 121t232 44.5q130 0 235.5 -54t172 -146t102 -211.5t35.5 -253.5q0 -120 -22 -233.5t-71 -220t-121 -186t-180 -127t-239 -47.5q-181 0 -346 76v254h35q110 -88 272 -88q117 0 195 76t106 194h-8q-93 -71 -223 -71 q-215 0 -349.5 133.5t-134.5 351.5zM430 911q0 -66 20 -121t69 -93t120 -38q101 0 155 71t54 183q0 69 -22.5 132.5t-71 109t-113.5 45.5q-53 0 -94.5 -25.5t-66.5 -68t-37.5 -92.5t-12.5 -103z" />
<glyph unicode=":" horiz-adv-x="520" d="M123 0v272h274v-272h-274zM125 797v276h272v-276h-272z" />
<glyph unicode=";" horiz-adv-x="690" d="M123 -289l153 572h291l-256 -572h-188zM276 797v276h273v-276h-273z" />
<glyph unicode="&#x3c;" horiz-adv-x="1148" d="M123 618v201l903 404v-238l-592 -268l592 -266v-238z" />
<glyph unicode="=" horiz-adv-x="1200" d="M123 393v221h954v-221h-954zM123 803v221h954v-221h-954z" />
<glyph unicode="&#x3e;" horiz-adv-x="1148" d="M123 213v238l592 266l-592 268v238l903 -404v-201z" />
<glyph unicode="?" horiz-adv-x="983" d="M82 1100v239q94 60 179 90t185 29q97 0 192.5 -35.5t160.5 -101.5q102 -110 102 -252q0 -158 -102 -266q-26 -28 -67 -54.5t-75 -45.5t-66.5 -43.5t-51 -62t-19.5 -87.5v-162h-266v197q0 112 37.5 186.5t134.5 138.5q11 8 41 27t43 28t34.5 28.5t31.5 35t18 39t8 49.5 q0 63 -53.5 96t-126.5 33q-86 0 -171 -31.5t-128 -72.5zM236 0h296v272h-296v-272z" />
<glyph unicode="@" horiz-adv-x="2074" d="M102 475q0 158 44 303.5t129 265t201 208t268 137.5t323 49q212 0 385 -76t285.5 -207t173.5 -305.5t61 -374.5q0 -252 -121 -473h-680v61q-75 -86 -204 -86q-159 0 -252 86q-92 89 -92 230q0 121 79 197.5t211 97.5q183 27 252 35q0 48 -55 82t-125 34q-169 -8 -250 -63 h-35v229q183 53 308 53q195 0 311 -92q106 -81 113 -239v-510h325q82 177 82 358q0 171 -52 320t-148.5 261t-244.5 177t-329 65q-183 0 -338 -65t-260.5 -176.5t-165 -262t-59.5 -319.5q0 -171 56.5 -319.5t160 -259t260 -176.5t346.5 -70q193 0 321 53l60 -133 q-163 -59 -379 -59q-222 -1 -405.5 75t-305 207t-188 306.5t-66.5 375.5zM895 295q0 -98 98 -98q78 -3 172 63v172l-172 -33q-50 -11 -74.5 -32t-23.5 -72z" />
<glyph unicode="A" horiz-adv-x="1464" d="M20 0l494 1309q24 65 88 103t139 38q69 0 124.5 -38t80.5 -101l498 -1311h-373l-94 272h-524l-97 -272h-336zM553 551h321l-155 434h-10z" />
<glyph unicode="B" horiz-adv-x="1351" d="M143 0v1081q0 149 94 251t240 102h225q65 0 125.5 -7.5t123.5 -24.5t115 -47.5t93.5 -72t64.5 -102.5t23 -136q0 -97 -59.5 -166.5t-157.5 -105.5v-8q115 -31 198 -116t83 -206q0 -442 -596 -442h-572zM492 293h229q37 0 64.5 2.5t60.5 12.5t53.5 27.5t34.5 50t14 77.5 q0 32 -9.5 57t-22.5 41t-37 27t-41.5 16.5t-49 8t-47.5 3t-47 0.5h-202v-323zM492 889h200q100 0 147.5 26.5t47.5 108.5q0 58 -52 87.5t-143 29.5h-168q-12 0 -22 -11.5t-10 -25.5v-215z" />
<glyph unicode="C" horiz-adv-x="1327" d="M102 713q0 223 92.5 392t259 260t382.5 91q186 0 403 -80v-325h-39q-57 51 -144.5 84.5t-174.5 33.5q-196 0 -306 -124t-110 -320q0 -203 110 -332t293 -129q166 0 338 123h39v-326q-209 -84 -405 -84q-168 0 -307.5 56.5t-233.5 155.5t-145.5 233.5t-51.5 290.5z" />
<glyph unicode="D" horiz-adv-x="1515" d="M143 0v1096q0 139 99 238.5t237 99.5h230q328 0 516 -185.5t188 -531.5q0 -344 -190 -530.5t-514 -186.5h-566zM492 307h217q165 0 253.5 96t88.5 312q0 411 -342 411h-189q-11 0 -19.5 -8t-8.5 -18v-793z" />
<glyph unicode="E" horiz-adv-x="1226" d="M143 0v1081q0 147 103 250t250 103h690v-308h-666q-11 0 -19.5 -8t-8.5 -20v-197h516v-303h-516v-291h692v-307h-1041z" />
<glyph unicode="F" horiz-adv-x="1173" d="M143 0v1081q0 146 104.5 249.5t250.5 103.5h655v-308h-631q-13 0 -21.5 -7.5t-8.5 -18.5v-238h485v-303h-485v-559h-349z" />
<glyph unicode="G" horiz-adv-x="1462" d="M102 713q0 333 204.5 536.5t547.5 206.5q225 0 434 -80v-325h-39q-67 52 -169.5 80t-200.5 28q-194 0 -304 -117.5t-110 -316.5q0 -93 23 -173t69.5 -143t123.5 -99t177 -36q98 0 160 25v203h-273v301h603v-737q0 -4 -65 -24.5t-188.5 -42.5t-242.5 -22q-159 0 -295.5 50 t-237.5 142t-159 232.5t-58 311.5z" />
<glyph unicode="H" horiz-adv-x="1482" d="M143 0v1434h349v-529h499v529h348v-1434h-348v598h-499v-598h-349z" />
<glyph unicode="I" horiz-adv-x="634" d="M143 0v1434h349v-1434h-349z" />
<glyph unicode="J" horiz-adv-x="704" d="M0 0h98q33 0 56 10.5t34.5 23.5t17 39t6.5 42.5t1 48.5v962h-152v308h500v-1256q0 -228 -106.5 -356.5t-329.5 -128.5h-125v307z" />
<glyph unicode="K" horiz-adv-x="1478" d="M143 0v1434h349v-482l469 482h438l-590 -588l649 -846h-440l-453 602l-73 -70v-532h-349z" />
<glyph unicode="L" horiz-adv-x="1095" d="M143 350v1084h349v-1098q0 -11 10 -20t22 -9h531v-307h-557q-146 0 -250.5 102.5t-104.5 247.5z" />
<glyph unicode="M" horiz-adv-x="1884" d="M133 0l70 1212q7 116 80.5 176t177.5 62q234 0 278 -186l199 -834h8l199 834q44 186 278 186q104 -2 177.5 -62t80.5 -176l70 -1212h-352l-39 870h-6l-215 -870h-394l-215 870h-6l-39 -870h-352z" />
<glyph unicode="N" horiz-adv-x="1507" d="M143 0v1235q0 96 70 155.5t166 59.5q77 0 143 -34t103 -99l415 -723h9v840h315v-1434h-373l-524 907h-8v-907h-316z" />
<glyph unicode="O" horiz-adv-x="1611" d="M102 717q0 220 86.5 387.5t246 259.5t370.5 92q322 0 513 -201t191 -538q0 -334 -193 -537t-511 -203q-210 0 -370 93t-246.5 261t-86.5 386zM465 715q0 -210 92 -330.5t248 -120.5q157 0 249.5 120.5t92.5 330.5t-93 332t-249 122q-157 0 -248.5 -122t-91.5 -332z" />
<glyph unicode="P" horiz-adv-x="1325" d="M143 0v1079q0 147 103 251t250 104h172q596 0 596 -473q0 -126 -47 -219t-130.5 -147t-188 -80t-230.5 -26h-176v-489h-349zM492 797h190q219 0 219 164q0 88 -56.5 126.5t-176.5 38.5h-148q-11 0 -19.5 -8t-8.5 -20v-301z" />
<glyph unicode="Q" horiz-adv-x="1611" d="M102 717q0 220 86.5 387.5t246 259.5t370.5 92q322 0 513 -201t191 -538q0 -286 -143.5 -478t-390.5 -245q4 -5 17.5 -23.5t18 -24t16 -19.5t18.5 -19t18 -12.5t21.5 -10t21.5 -2.5q70 0 176 113h8l174 -199q-44 -44 -64.5 -63.5t-62 -53.5t-72 -49.5t-75 -28.5 t-90.5 -14h-5q-62 0 -121 24q-62 25 -109 63.5t-92 96t-76 109.5t-62 115q-247 53 -390 245.5t-143 475.5zM465 715q0 -210 92 -330.5t248 -120.5q157 0 249.5 120.5t92.5 330.5q0 209 -93 330.5t-249 121.5q-157 0 -248.5 -121t-91.5 -331z" />
<glyph unicode="R" horiz-adv-x="1429" d="M143 0v1079q0 147 103 251t250 104h172q596 0 596 -473q0 -156 -71.5 -258t-197.5 -152q389 -549 394 -551h-416l-326 496h-155v-496h-349zM492 797h190q219 0 219 164q0 88 -56.5 126.5t-176.5 38.5h-148q-11 0 -19.5 -8t-8.5 -20v-301z" />
<glyph unicode="S" horiz-adv-x="1204" d="M61 57v305h39q86 -43 194 -67.5t200 -26.5h11q71 0 129 12q64 13 105 43.5t41 73.5q0 30 -13.5 53.5t-42.5 42t-52.5 29t-63.5 25.5q-113 43 -266 110q-116 51 -180 150.5t-64 230.5q0 109 42.5 191.5t116 131t163 72t192.5 23.5q117 0 207 -18t213 -62v-305h-39 q-42 31 -140.5 63.5t-195.5 32.5q-217 0 -217 -102q0 -26 11 -46.5t32 -35.5t38 -23.5t44 -19.5q7 -3 10 -4l273 -113q120 -45 197 -142.5t77 -227.5q0 -123 -49.5 -217t-136 -149t-194.5 -82.5t-234 -27.5q-243 0 -447 80z" />
<glyph unicode="T" horiz-adv-x="1118" d="M20 1126v308h1078v-308h-365v-1126h-348v1126h-365z" />
<glyph unicode="U" horiz-adv-x="1433" d="M143 582v852h349v-906q0 -134 54.5 -198t176.5 -64q119 0 175 62t56 198v908h336v-852q0 -605 -567 -605q-298 0 -439 148t-141 457z" />
<glyph unicode="V" horiz-adv-x="1378" d="M20 1434h373l301 -959h8l306 959h350l-447 -1303q-25 -73 -83.5 -110t-135.5 -37q-73 0 -136.5 42t-86.5 107z" />
<glyph unicode="W" horiz-adv-x="1927" d="M20 1434h367l197 -897h8l211 897h321l211 -895h8l197 895h367l-326 -1289q-19 -70 -85.5 -116.5t-145.5 -46.5q-81 0 -146.5 43t-87.5 133l-149 649h-9l-147 -649q-20 -90 -86 -133t-147 -43q-79 0 -146 46.5t-86 116.5z" />
<glyph unicode="X" horiz-adv-x="1462" d="M20 0l502 795l-413 639h415l221 -387h11l229 387h383l-418 -658l492 -776h-412l-301 528h-10l-305 -528h-394z" />
<glyph unicode="Y" horiz-adv-x="1327" d="M20 1434h388l262 -557h10l266 557h361l-457 -912v-522h-348v522z" />
<glyph unicode="Z" horiz-adv-x="1196" d="M41 0v213l659 905v8h-614v308h821q124 0 195 -76q49 -54 52 -136v-11q0 -76 -42 -130l-565 -766v-8h602v-307h-1108z" />
<glyph unicode="[" horiz-adv-x="731" d="M123 -492v1995h547v-264h-275v-1466h275v-265h-547z" />
<glyph unicode="\" horiz-adv-x="831" d="M123 1464h153l433 -1491h-154z" />
<glyph unicode="]" horiz-adv-x="731" d="M61 -227h275v1466h-275v264h547v-1995h-547v265z" />
<glyph unicode="^" horiz-adv-x="1118" d="M123 760l334 741h205l333 -741h-239l-199 438l-195 -438h-239z" />
<glyph unicode="_" horiz-adv-x="1554" d="M123 -276h1309v-203h-1309v203z" />
<glyph unicode="`" horiz-adv-x="645" d="M135 1483h221l179 -309h-173z" />
<glyph unicode="a" horiz-adv-x="1150" d="M61 319q0 139 91 232.5t239 118.5q49 8 146 21.5t143 21.5q0 65 -62 100t-149 35q-148 0 -283 -66h-34v252q180 60 352 60q504 0 504 -379v-715h-320v78h-8q-47 -44 -116.5 -72.5t-139.5 -28.5q-151 0 -257 94t-106 248zM389 334q0 -56 34 -83.5t83 -27.5q48 0 87 17 t87 51v205l-174 -35q-117 -21 -117 -127z" />
<glyph unicode="b" horiz-adv-x="1220" d="M123 293v1208h328v-452h6q34 20 88.5 32.5t89.5 12.5q233 0 368.5 -154t135.5 -397q0 -264 -140.5 -415t-414.5 -151h-144q-132 0 -224.5 92.5t-92.5 223.5zM451 311q0 -34 21 -56t52 -22h45q59 0 102 17.5t67.5 45.5t39 71.5t19 86t4.5 99.5q0 55 -9.5 101.5t-31 90 t-65.5 68.5t-105 25q-60 0 -139 -23v-504z" />
<glyph unicode="c" horiz-adv-x="1046" d="M82 526q0 269 151 418.5t422 149.5q170 0 328 -74v-254h-35q-47 35 -123 53.5t-141 18.5q-264 0 -264 -295v-15q1 -80 28.5 -145t88.5 -107.5t147 -42.5q65 0 137.5 18.5t128.5 53.5h35v-254q-164 -74 -342 -74q-115 0 -216.5 36.5t-178.5 104t-121.5 173t-44.5 235.5z " />
<glyph unicode="d" horiz-adv-x="1220" d="M82 543q0 243 135.5 397t368.5 154q35 0 89.5 -12.5t88.5 -32.5h6v452h328v-1208q0 -131 -93 -223.5t-225 -92.5h-143q-274 0 -414.5 151t-140.5 415zM420 553q0 -57 4.5 -99.5t18.5 -86t38.5 -71.5t67.5 -45.5t102 -17.5h45q31 0 52.5 22.5t21.5 55.5v504 q-79 23 -139 23q-61 0 -105 -25t-65.5 -68.5t-31 -90t-9.5 -101.5z" />
<glyph unicode="e" horiz-adv-x="1189" d="M82 526q0 255 145 411.5t387 156.5q119 0 212 -37.5t152 -100.5t96 -150q36 -88 47 -182q6 -55 6 -112q0 -42 -3 -86h-700q6 -56 34.5 -98.5t73 -67t97.5 -36t114 -11.5q71 0 160.5 24.5t134.5 57.5h35v-252q-179 -66 -387 -66q-100 0 -187.5 18.5t-165 60.5t-132.5 105 t-87 156t-32 209zM418 637h377q-1 104 -51.5 161.5t-122.5 57.5q-78 0 -137 -59.5t-66 -159.5z" />
<glyph unicode="f" horiz-adv-x="815" d="M41 807v266h109v53q0 187 101 281t298 94q61 0 112 -11.5t123 -37.5v-254h-34q-61 47 -148 47q-49 0 -87 -33t-38 -92v-47h248v-266h-248v-807h-327v807h-109z" />
<glyph unicode="g" horiz-adv-x="1220" d="M82 528q0 264 140.5 415t414.5 151h143q132 0 225 -92.5t93 -223.5v-735q0 -111 -35 -207t-101 -169.5t-171.5 -116t-237.5 -42.5q-164 0 -375 74v254h35q70 -36 159.5 -57t155.5 -21q105 0 173.5 61t68.5 165v39h-6q-34 -20 -88.5 -33t-89.5 -13q-233 0 -368.5 154 t-135.5 397zM420 518q0 -55 9.5 -101.5t31 -90t65.5 -68.5t105 -25q60 0 139 23v504q0 33 -21.5 55.5t-52.5 22.5h-45q-59 0 -102 -17.5t-67.5 -45.5t-38.5 -71.5t-18.5 -86t-4.5 -99.5z" />
<glyph unicode="h" d="M123 0v1501h328v-493h6q51 39 125 62.5t123 23.5q188 0 300.5 -111t112.5 -295v-688h-327v692q0 61 -39 103.5t-105 42.5q-45 0 -104 -18.5t-92 -39.5v-780h-328z" />
<glyph unicode="i" horiz-adv-x="573" d="M117 1167v267h340v-267h-340zM123 0v1073h328v-1073h-328z" />
<glyph unicode="j" horiz-adv-x="661" d="M0 -225h90q34 0 57 8t35.5 19.5t19 35t8 44.5t1.5 57v868h-131v266h459v-1108q0 -239 -109.5 -348t-331.5 -109h-98v267zM203 1167v267h342v-267h-342z" />
<glyph unicode="k" horiz-adv-x="1226" d="M123 0v1501h328v-739l329 311h391l-442 -416l475 -657h-399l-299 449l-55 -52v-397h-328z" />
<glyph unicode="l" horiz-adv-x="780" d="M123 350v1151h328v-1159q0 -56 34 -84.5t82 -28.5q93 0 158 43h35v-254q-134 -41 -248 -41q-188 0 -288.5 87.5t-100.5 285.5z" />
<glyph unicode="m" horiz-adv-x="1746" d="M123 0v1073h323v-82q51 49 140.5 76t150.5 27q81 0 154 -34t115 -93q62 66 154.5 96.5t162.5 30.5q93 0 163.5 -55t104 -133.5t33.5 -162.5v-743h-328v692q0 62 -27 104t-79 42q-29 0 -77 -21t-75 -43v-774h-325v688q0 65 -25 107.5t-76 42.5q-29 0 -82 -22.5t-79 -43.5 v-772h-328z" />
<glyph unicode="n" d="M123 0v1073h319v-65h7q51 39 128.5 62.5t127.5 23.5q188 0 300.5 -111t112.5 -295v-688h-327v692q0 61 -39 103.5t-105 42.5q-45 0 -104 -18.5t-92 -39.5v-780h-328z" />
<glyph unicode="o" horiz-adv-x="1245" d="M82 535q0 251 145 405t396 154q111 0 210.5 -41.5t172 -114t115 -177.5t42.5 -226q0 -161 -72.5 -289.5t-195.5 -198.5t-272 -70t-272 70t-196 198.5t-73 289.5zM420 535q0 -143 52 -222.5t151 -79.5q98 0 150 79.5t52 222.5t-52 223t-150 80t-150.5 -80t-52.5 -223z" />
<glyph unicode="p" horiz-adv-x="1220" d="M123 -492v1270q0 131 92.5 223.5t224.5 92.5h144q274 0 414.5 -151t140.5 -415q0 -243 -135.5 -397t-368.5 -154q-35 0 -89.5 13t-88.5 33h-6v-515h-328zM451 256q79 -23 139 -23q61 0 105 25t65.5 68.5t31 90t9.5 101.5q0 57 -4.5 99.5t-19 86t-39 71.5t-67.5 45.5 t-102 17.5h-45q-31 0 -52 -22t-21 -56v-504z" />
<glyph unicode="q" horiz-adv-x="1220" d="M82 528q0 264 140.5 415t414.5 151h143q132 0 225 -92.5t93 -223.5v-1270h-328v515h-6q-34 -20 -88.5 -33t-89.5 -13q-233 0 -368.5 154t-135.5 397zM420 518q0 -55 9.5 -101.5t31 -90t65.5 -68.5t105 -25q60 0 139 23v504q0 33 -21.5 55.5t-52.5 22.5h-45 q-59 0 -102 -17.5t-67.5 -45.5t-38.5 -71.5t-18.5 -86t-4.5 -99.5z" />
<glyph unicode="r" horiz-adv-x="819" d="M123 0v1073h319v-82h9q124 103 327 103v-312h-35q-41 16 -88 16q-28 0 -58 -6q-80 -15 -146 -73v-719h-328z" />
<glyph unicode="s" horiz-adv-x="989" d="M61 37v254h35q62 -28 158.5 -45t175.5 -17q26 0 53.5 3t57 10.5t48.5 22t19 34.5q0 46 -104 82l-197 74q-66 25 -110.5 61t-66.5 78.5t-30 82t-8 87.5q0 106 57 182.5t147 112t202 35.5q97 0 169 -12t179 -44v-254h-35q-50 28 -129.5 43t-144.5 15q-125 0 -125 -49 q0 -32 82 -62l202 -76q232 -87 232 -313q0 -76 -29.5 -138.5t-78.5 -103.5t-113 -69.5t-131 -41t-136 -12.5q-176 0 -379 60z" />
<glyph unicode="t" horiz-adv-x="788" d="M20 807v266h111v238h328v-238h250v-266h-250v-461q0 -56 34 -84.5t82 -28.5q93 0 158 43h35v-258q-134 -41 -248 -41q-188 0 -288.5 87.5t-100.5 285.5v457h-111z" />
<glyph unicode="u" d="M123 383v690h328v-694q0 -61 38.5 -103.5t104.5 -42.5q45 0 105 18.5t92 39.5v782h327v-1073h-319v66h-6q-51 -39 -129 -64t-127 -25q-188 0 -301 111t-113 295z" />
<glyph unicode="v" horiz-adv-x="1128" d="M20 1073h340l215 -672h7l221 672h305l-346 -958q-22 -61 -81.5 -96t-127.5 -35q-66 0 -118 33.5t-73 93.5z" />
<glyph unicode="w" horiz-adv-x="1611" d="M20 1073h345l143 -653h8l156 653h268l156 -653h8l143 653h344l-266 -952q-17 -59 -74 -98t-123 -39q-71 0 -132.5 38t-75.5 101l-111 469h-8l-109 -469q-14 -63 -75.5 -101t-133.5 -38q-65 0 -122 39t-74 98z" />
<glyph unicode="x" horiz-adv-x="1220" d="M20 0l379 584l-333 489h391l172 -268h10l170 268h350l-340 -498l381 -575h-391l-215 348h-10l-213 -348h-351z" />
<glyph unicode="y" horiz-adv-x="1189" d="M20 1073h355l250 -635h10l229 635h305l-469 -1296q-50 -139 -162 -204t-266 -65h-112v267h108q82 0 111.5 20t46.5 68l51 141z" />
<glyph unicode="z" horiz-adv-x="958" d="M31 0v188l456 613v8h-428v264h686q56 0 100 -25q45 -26 65 -65q16 -31 16 -70q0 -9 -1 -19q-5 -50 -40 -99l-391 -523v-8h432v-264h-895z" />
<glyph unicode="{" horiz-adv-x="1003" d="M123 375v264h186q47 0 64.5 18.5t17.5 59.5v454q1 86 30 150.5t81 103t119.5 57.5t150.5 19h170v-262h-188q-86 0 -86 -80v-461q0 -63 -43 -120t-103 -72q62 -13 104 -69.5t42 -123.5v-458q0 -45 20 -63.5t66 -18.5h188v-265h-170q-179 2 -280 84.5t-101 247.5v449 q0 45 -20 65.5t-62 20.5h-186z" />
<glyph unicode="|" horiz-adv-x="450" d="M123 -514v2038h205v-2038h-205z" />
<glyph unicode="}" horiz-adv-x="1003" d="M61 -227h189q46 0 66 18.5t20 63.5v458q0 67 41.5 123.5t103.5 69.5q-60 15 -102.5 72t-42.5 120v461q0 80 -86 80h-189v262h170q174 0 277.5 -84.5t103.5 -245.5v-454q0 -41 17.5 -59.5t64.5 -18.5h187v-264h-187q-42 0 -62 -20.5t-20 -65.5v-449q0 -332 -381 -332h-170 v265z" />
<glyph unicode="~" horiz-adv-x="1277" d="M123 537v215q120 135 289 135q71 0 139 -19t158 -57q134 -55 180 -55q121 0 266 141v-231q-53 -57 -131.5 -91t-161.5 -34q-57 0 -111 15.5t-128 47.5q-158 68 -236 68q-135 0 -264 -135z" />
<glyph unicode="&#xa1;" horiz-adv-x="559" d="M123 -360l37 1083h243l33 -1083h-313zM143 803v270h273v-270h-273z" />
<glyph unicode="&#xa2;" horiz-adv-x="1046" d="M82 526q0 258 140.5 407t393.5 159v178h142v-185q114 -12 225 -65v-254h-35q-66 50 -190 65v-593q116 18 192 67h35v-254q-108 -50 -227 -65v-183h-142v174q-111 5 -207 43t-169.5 105.5t-115.5 171t-42 229.5zM420 528q2 -106 51.5 -186t144.5 -102v591 q-203 -36 -196 -303z" />
<glyph unicode="&#xa3;" horiz-adv-x="1294" d="M123 0v299h88q43 0 60.5 21.5t23.5 70.5l43 289h-215v207h248l26 166q27 177 160 290t324 113q160 0 290 -53v-320h-38q-64 97 -185 97q-173 0 -203 -176l-18 -117h320v-207h-353l-39 -252q-14 -82 -51 -115v-8h567v-305h-1048z" />
<glyph unicode="&#xa4;" horiz-adv-x="1318" d="M123 336l135 135q-69 114 -69 245.5t69 244.5l-135 137l160 155l131 -135q114 68 245.5 68t243.5 -68l137 135l156 -155l-135 -137q67 -112 67 -244t-67 -246l135 -135l-156 -156l-137 135q-113 -71 -244 -71t-245 71l-131 -135zM401 715q0 -107 75.5 -182.5t182.5 -75.5 q108 0 184.5 75.5t76.5 182.5t-77 183.5t-184 76.5t-182.5 -76.5t-75.5 -183.5z" />
<glyph unicode="&#xa5;" horiz-adv-x="1329" d="M20 1434h388l262 -557h10l266 557h361l-271 -539h156v-166h-240l-57 -117h297v-166h-342v-446h-348v446h-342v166h295l-62 117h-233v166h145z" />
<glyph unicode="&#xa6;" horiz-adv-x="452" d="M123 295h207v-717h-207v717zM123 713v719h207v-719h-207z" />
<glyph unicode="&#xa7;" horiz-adv-x="1075" d="M61 -152h37q169 -86 355 -86q99 0 178.5 56.5t79.5 150.5q0 42 -11.5 71.5t-39.5 50.5t-51 32t-70 29q-12 4 -59 21.5t-64 24t-56 23.5t-61.5 30t-52 33t-53.5 42q-64 60 -97 142.5t-30 172.5q3 110 77 203q-37 32 -57 103t-20 147q0 124 66 218.5t169 141.5t223 47 q109 0 199 -20.5t190 -63.5v-254h-34q-127 82 -312 82q-48 0 -94.5 -13t-84.5 -48.5t-38 -87.5q0 -63 34.5 -95.5t107.5 -64.5q10 -4 132.5 -50t180.5 -85q88 -58 138 -150.5t50 -193.5q0 -144 -67 -232q67 -97 67 -241q0 -118 -43.5 -211t-119 -150t-171.5 -86t-206 -29 q-160 0 -392 86v254zM317 698q-13 -42 4 -88.5t54 -74.5q58 -45 205.5 -98t162.5 -60q8 50 -11 96t-60 78q-58 43 -201 92.5t-154 54.5z" />
<glyph unicode="&#xa8;" horiz-adv-x="907" d="M123 1200v256h260v-256h-260zM526 1200v256h258v-256h-258z" />
<glyph unicode="&#xa9;" horiz-adv-x="1685" d="M102 715q0 151 58.5 288.5t158 236.5t236.5 157.5t287 58.5q151 0 288.5 -58.5t236.5 -157.5t157.5 -236.5t58.5 -288.5q0 -150 -58.5 -286.5t-157.5 -235.5t-236.5 -157.5t-288.5 -58.5q-150 0 -287 58.5t-236.5 157.5t-158 235.5t-58.5 286.5zM242 715 q0 -122 47.5 -233t128 -191t191.5 -127t233 -47t234 47t193 127t129 191t48 233q0 123 -48 234.5t-129 192t-193 128t-234 47.5t-233 -47.5t-191.5 -128t-128 -192t-47.5 -234.5zM492 715q0 87 25.5 163t74 136t126.5 94.5t175 34.5q109 0 231 -51v-177h-20q-80 62 -184 62 q-119 0 -176.5 -69.5t-57.5 -188.5q0 -42 6.5 -78.5t22.5 -71t40.5 -59t64.5 -39t91 -14.5q114 3 195 61h24v-176q-124 -51 -235 -51q-189 0 -296 118.5t-107 305.5z" />
<glyph unicode="&#xaa;" horiz-adv-x="868" d="M123 930q0 94 60 151.5t161 73.5q1 0 50.5 10.5t98.5 21t48 9.5q-1 37 -44 62.5t-98 25.5q-91 0 -190 -43h-27v174q143 41 236 41q66 0 123.5 -15t103.5 -45t73 -80.5t27 -115.5v-485h-204v53q-63 -63 -156 -63q-110 0 -186 60.5t-76 164.5zM330 946q3 -78 80 -78 q58 0 129 47v138l-129 -27q-40 -9 -60 -25.5t-20 -54.5z" />
<glyph unicode="&#xab;" horiz-adv-x="1316" d="M123 537l360 489h244l-330 -489l328 -490h-240zM590 537l360 489h244l-330 -489l328 -490h-240z" />
<glyph unicode="&#xac;" horiz-adv-x="1234" d="M123 772v223h989v-569h-221v346h-768z" />
<glyph unicode="&#xad;" horiz-adv-x="964" d="M123 428v229h719v-229h-719z" />
<glyph unicode="&#xae;" horiz-adv-x="1687" d="M102 715q0 151 58.5 288.5t157.5 236.5t236 157.5t288 58.5q150 0 287.5 -58.5t237.5 -157.5t159 -236.5t59 -288.5q0 -149 -59 -286t-159 -236t-237.5 -157.5t-287.5 -58.5q-151 0 -288 58.5t-236 157.5t-157.5 235.5t-58.5 286.5zM242 715q0 -122 47.5 -233t127.5 -191 t191.5 -127t233.5 -47q164 0 303 79.5t220 217.5t81 301q0 164 -81 303t-220 219t-303 80q-122 0 -233.5 -47.5t-191.5 -128t-127.5 -192t-47.5 -234.5zM514 319v625q0 84 58.5 143.5t142.5 59.5h108q310 0 310 -264q0 -79 -35.5 -147t-108.5 -97l225 -320h-231l-188 289 h-93v-289h-188zM702 782h113q125 0 125 101q0 48 -33.5 67t-99.5 19h-86q-8 0 -13.5 -6t-5.5 -13v-168z" />
<glyph unicode="&#xaf;" horiz-adv-x="958" d="M123 1235v137h713v-137h-713z" />
<glyph unicode="&#xb0;" horiz-adv-x="997" d="M123 1079q0 157 109 267t266 110t266.5 -110t109.5 -267t-109.5 -265.5t-266.5 -108.5t-266 108.5t-109 265.5zM309 1079q0 -82 53.5 -135t135.5 -53q83 0 136.5 53t53.5 135q0 83 -53.5 137t-136.5 54q-82 0 -135.5 -54t-53.5 -137z" />
<glyph unicode="&#xb1;" horiz-adv-x="1204" d="M123 0v223h958v-223h-958zM123 631v223h369v367h221v-367h368v-223h-368v-367h-221v367h-369z" />
<glyph unicode="&#xb2;" horiz-adv-x="716" d="M123 721v104l246 293q53 65 51 121q-2 33 -34 58.5t-75 25.5q-77 0 -135 -43h-18v133q100 41 186 41q98 0 172 -58t74 -157q0 -134 -101 -225l-167 -154v-4h272v-135h-471z" />
<glyph unicode="&#xb3;" horiz-adv-x="724" d="M123 745v136h18q80 -47 176 -47q46 0 79.5 29t33.5 75q0 50 -44 74t-97 24h-70v127h53q123 0 125 84q0 39 -30 58.5t-68 19.5q-34 2 -76 -8.5t-69 -28.5h-19v133q100 35 178 35q106 0 181 -54.5t75 -154.5q0 -43 -26 -81t-64 -56v-4q53 -19 88 -65t35 -103 q0 -115 -81 -175.5t-202 -60.5q-73 0 -196 43z" />
<glyph unicode="&#xb4;" horiz-adv-x="645" d="M123 1174l178 309h221l-227 -309h-172z" />
<glyph unicode="&#xb5;" horiz-adv-x="1224" d="M123 -492v1565h326v-690q0 -36 9.5 -67.5t38 -57t72.5 -25.5q39 0 105.5 20.5t99.5 41.5v778h328v-1073h-322v72h-8q-46 -45 -110 -70t-125 -25q-44 0 -93 27v-496h-321z" />
<glyph unicode="&#xb6;" horiz-adv-x="1409" d="M123 1047q0 161 112.5 274t272.5 113h778v-205h-112v-1721h-205v1721h-203v-1721h-205v1154h-53q-159 0 -272 113t-113 272z" />
<glyph unicode="&#xb7;" horiz-adv-x="520" d="M123 580v272h274v-272h-274z" />
<glyph unicode="&#xb8;" horiz-adv-x="776" d="M123 -395l110 139q86 -55 150 -55q33 0 55.5 16.5t22.5 48.5q0 48 -73 74.5t-146 26.5l43 243h182l-25 -155q97 -16 154 -58.5t57 -132.5q0 -113 -78.5 -178.5t-187.5 -65.5q-135 0 -264 97z" />
<glyph unicode="&#xb9;" horiz-adv-x="505" d="M41 1294l137 121q45 35 96 35t80 -32t29 -83v-616h-164v553h-8l-84 -78z" />
<glyph unicode="&#xba;" horiz-adv-x="950" d="M125 1083q0 167 95.5 269t256.5 102q164 0 257 -104.5t93 -266.5q0 -176 -95 -276t-267 -100q-108 0 -187 53t-116 137t-37 186zM342 1087q-2 -47 8.5 -93.5t41 -83t75.5 -36.5q53 0 87.5 34.5t46 80t9.5 98.5q-2 81 -34 140t-99 59q-37 0 -64 -18.5t-41.5 -50t-21 -63 t-8.5 -67.5z" />
<glyph unicode="&#xbb;" horiz-adv-x="1316" d="M123 1026h244l360 -489l-362 -490h-240l328 490zM590 1026h244l360 -489l-363 -490h-239l328 490z" />
<glyph unicode="&#xbc;" horiz-adv-x="1495" d="M123 1294l137 121q45 35 96 35t80 -32t29 -83v-616h-164v553h-8l-84 -78zM252 -27l795 1491h167l-794 -1491h-168zM824 203q-23 45 5 86l256 389q36 53 109 53q48 0 78.5 -34t30.5 -81v-327h69v-131h-69v-158h-166v158h-238q-52 0 -75 45zM987 289h150v237h-7z" />
<glyph unicode="&#xbd;" horiz-adv-x="1540" d="M123 1294l137 121q45 35 96 35t80 -32t29 -83v-616h-164v553h-8l-84 -78zM240 -27l794 1491h168l-794 -1491h-168zM946 0v104l246 293q53 65 51 121q-2 33 -33.5 58.5t-74.5 25.5q-78 0 -136 -43h-18v133q100 41 186 41q98 0 172 -58t74 -157q0 -135 -100 -225l-168 -154 v-4h272v-135h-471z" />
<glyph unicode="&#xbe;" horiz-adv-x="1572" d="M123 745v136h18q80 -47 176 -47q46 0 79.5 29t33.5 75q0 50 -44 74t-97 24h-70v127h53q123 0 125 84q0 39 -30 58.5t-68 19.5q-34 2 -76 -8.5t-69 -28.5h-19v133q100 35 178 35q106 0 181 -54.5t75 -154.5q0 -43 -26 -81t-64 -56v-4q53 -19 88 -65t35 -103 q0 -115 -81 -175.5t-202 -60.5q-73 0 -196 43zM336 -27l794 1491h168l-794 -1491h-168zM902 203q-23 45 5 86l256 389q36 53 109 53q48 0 78 -34t30 -81v-327h70v-131h-70v-158h-166v158h-237q-52 0 -75 45zM1065 289h149v237h-6z" />
<glyph unicode="&#xbf;" horiz-adv-x="983" d="M82 4q0 158 102 266q26 28 67 54.5t75 45.5t66.5 43.5t51 62t19.5 87.5v162h266v-197q0 -112 -37.5 -186.5t-134.5 -138.5q-11 -8 -41 -27t-43 -28t-34.5 -28.5t-31.5 -35t-18 -39t-8 -49.5q0 -63 53.5 -96t126.5 -33q86 0 171 31.5t128 72.5l41 2v-239q-94 -60 -179 -90 t-185 -29q-97 0 -192.5 35.5t-160.5 101.5q-102 110 -102 252zM451 801v272h297v-272h-297z" />
<glyph unicode="&#xc0;" horiz-adv-x="1464" d="M20 0l494 1309q24 65 88 103t139 38q69 0 124.5 -38t80.5 -101l498 -1311h-373l-94 272h-524l-97 -272h-336zM422 1843h221l178 -309h-172zM553 551h321l-155 434h-10z" />
<glyph unicode="&#xc1;" horiz-adv-x="1464" d="M20 0l494 1309q24 65 88 103t139 38q69 0 124.5 -38t80.5 -101l498 -1311h-373l-94 272h-524l-97 -272h-336zM553 551h321l-155 434h-10zM655 1534l179 309h221l-228 -309h-172z" />
<glyph unicode="&#xc2;" horiz-adv-x="1464" d="M20 0l494 1309q24 65 88 103t139 38q69 0 124.5 -38t80.5 -101l498 -1311h-373l-94 272h-524l-97 -272h-336zM459 1534l178 309h188l181 -309h-172l-103 139l-100 -139h-172zM553 551h321l-155 434h-10z" />
<glyph unicode="&#xc3;" horiz-adv-x="1464" d="M20 0l494 1309q24 65 88 103t139 38q69 0 124.5 -38t80.5 -101l498 -1311h-373l-94 272h-524l-97 -272h-336zM358 1628q51 84 108.5 129t145.5 45q61 0 133 -35q10 -5 36 -22t46 -25t41 -6q17 1 29.5 6.5t23.5 20t15 21t16 28.5l154 -82q-49 -85 -104 -129.5t-142 -44.5 q-74 0 -139 35q-9 5 -27.5 16.5t-30.5 18t-30.5 12.5t-34.5 6q-10 0 -18.5 -2t-16 -7.5t-12.5 -8.5t-12 -13t-9.5 -13.5t-10.5 -16.5t-9 -15zM553 551h321l-155 434h-10z" />
<glyph unicode="&#xc4;" horiz-adv-x="1464" d="M20 0l494 1309q24 65 88 103t139 38q69 0 124.5 -38t80.5 -101l498 -1311h-373l-94 272h-524l-97 -272h-336zM401 1561v256h261v-256h-261zM553 551h321l-155 434h-10zM805 1561v256h258v-256h-258z" />
<glyph unicode="&#xc5;" horiz-adv-x="1464" d="M20 0l494 1309q24 65 88 103t139 38q69 0 124.5 -38t80.5 -101l498 -1311h-373l-94 272h-524l-97 -272h-336zM535 1688q0 82 57.5 139t140.5 57q79 0 137 -57.5t58 -138.5q0 -79 -58.5 -137t-136.5 -58q-83 0 -140.5 57.5t-57.5 137.5zM553 551h321l-155 434h-10z M643 1688q0 -36 26 -61t64 -25q35 0 59.5 25.5t24.5 60.5q0 37 -24.5 61.5t-59.5 24.5q-38 0 -64 -24.5t-26 -61.5z" />
<glyph unicode="&#xc6;" horiz-adv-x="2007" d="M20 0l693 1245q47 86 128.5 137.5t180.5 51.5h944v-308h-590q-12 0 -20 -8.5t-8 -19.5v-195h442v-307h-442v-289h618v-307h-967v272h-460l-150 -272h-369zM694 551h305v543z" />
<glyph unicode="&#xc7;" horiz-adv-x="1327" d="M102 713q0 223 92.5 392t259 260t382.5 91q186 0 403 -80v-325h-39q-57 51 -144.5 84.5t-174.5 33.5q-196 0 -306 -124t-110 -320q0 -203 110 -332t293 -129q166 0 338 123h39v-326q-190 -76 -360 -81l-4 -37q97 -16 154 -58.5t57 -132.5q0 -113 -79 -178.5t-188 -65.5 q-135 0 -264 97l111 139q86 -55 149 -55q33 0 55.5 16.5t22.5 48.5q0 48 -73 74.5t-146 26.5l22 133q-277 42 -438.5 241.5t-161.5 483.5z" />
<glyph unicode="&#xc8;" horiz-adv-x="1226" d="M143 0v1081q0 147 103 250t250 103h690v-308h-666q-11 0 -19.5 -8t-8.5 -20v-197h516v-303h-516v-291h692v-307h-1041zM467 1843h221l178 -309h-172z" />
<glyph unicode="&#xc9;" horiz-adv-x="1226" d="M143 0v1081q0 147 103 250t250 103h690v-308h-666q-11 0 -19.5 -8t-8.5 -20v-197h516v-303h-516v-291h692v-307h-1041zM618 1534l179 309h221l-227 -309h-173z" />
<glyph unicode="&#xca;" horiz-adv-x="1226" d="M143 0v1081q0 147 103 250t250 103h690v-308h-666q-11 0 -19.5 -8t-8.5 -20v-197h516v-303h-516v-291h692v-307h-1041zM442 1534l179 309h188l180 -309h-172l-102 139l-101 -139h-172z" />
<glyph unicode="&#xcb;" horiz-adv-x="1226" d="M143 0v1081q0 147 103 250t250 103h690v-308h-666q-11 0 -19.5 -8t-8.5 -20v-197h516v-303h-516v-291h692v-307h-1041zM365 1561v256h260v-256h-260zM768 1561v256h258v-256h-258z" />
<glyph unicode="&#xcc;" horiz-adv-x="634" d="M90 1843h221l178 -309h-172zM143 0v1434h349v-1434h-349z" />
<glyph unicode="&#xcd;" horiz-adv-x="634" d="M143 0v1434h349v-1434h-349zM160 1534l178 309h221l-227 -309h-172z" />
<glyph unicode="&#xce;" horiz-adv-x="634" d="M45 1534l178 309h189l180 -309h-172l-103 139l-100 -139h-172zM143 0v1434h349v-1434h-349z" />
<glyph unicode="&#xcf;" horiz-adv-x="634" d="M-12 1561v256h260v-256h-260zM143 0v1434h349v-1434h-349zM391 1561v256h258v-256h-258z" />
<glyph unicode="&#xd0;" horiz-adv-x="1564" d="M20 664v210h173v222q0 139 98.5 238.5t236.5 99.5h230q328 0 516 -185.5t188 -531.5q0 -344 -190 -530.5t-514 -186.5h-565v664h-173zM541 307h217q165 0 253.5 96t88.5 312q0 411 -342 411h-189q-11 0 -19.5 -8t-8.5 -18v-226h247v-210h-247v-357z" />
<glyph unicode="&#xd1;" horiz-adv-x="1507" d="M143 0v1235q0 96 70 155.5t166 59.5q77 0 143 -34t103 -99l415 -723h9v840h315v-1434h-373l-524 907h-8v-907h-316zM379 1628q51 84 108.5 129t145.5 45q61 0 133 -35q10 -5 36 -22t46 -25t41 -6q17 1 29.5 6.5t23.5 20t15 21t16 28.5l153 -82q-49 -86 -103.5 -130 t-141.5 -44q-75 0 -140 35q-9 5 -27.5 16.5t-30.5 18t-30.5 12.5t-34.5 6q-10 0 -18.5 -2t-16 -7.5t-12.5 -8.5t-12 -13t-9.5 -13.5t-10.5 -16.5t-9 -15z" />
<glyph unicode="&#xd2;" horiz-adv-x="1611" d="M102 717q0 220 86.5 387.5t246 259.5t370.5 92q322 0 513 -201t191 -538q0 -334 -193 -537t-511 -203q-210 0 -370 93t-246.5 261t-86.5 386zM465 715q0 -210 92 -330.5t248 -120.5q157 0 249.5 120.5t92.5 330.5t-93 332t-249 122q-157 0 -248.5 -122t-91.5 -332z M557 1843h221l178 -309h-172z" />
<glyph unicode="&#xd3;" horiz-adv-x="1611" d="M102 717q0 220 86.5 387.5t246 259.5t370.5 92q322 0 513 -201t191 -538q0 -334 -193 -537t-511 -203q-210 0 -370 93t-246.5 261t-86.5 386zM465 715q0 -210 92 -330.5t248 -120.5q157 0 249.5 120.5t92.5 330.5t-93 332t-249 122q-157 0 -248.5 -122t-91.5 -332z M709 1534l178 309h221l-227 -309h-172z" />
<glyph unicode="&#xd4;" horiz-adv-x="1611" d="M102 717q0 220 86.5 387.5t246 259.5t370.5 92q322 0 513 -201t191 -538q0 -334 -193 -537t-511 -203q-210 0 -370 93t-246.5 261t-86.5 386zM465 715q0 -210 92 -330.5t248 -120.5q157 0 249.5 120.5t92.5 330.5t-93 332t-249 122q-157 0 -248.5 -122t-91.5 -332z M532 1534l179 309h188l180 -309h-172l-102 139l-100 -139h-173z" />
<glyph unicode="&#xd5;" horiz-adv-x="1611" d="M102 717q0 220 86.5 387.5t246 259.5t370.5 92q322 0 513 -201t191 -538q0 -334 -193 -537t-511 -203q-210 0 -370 93t-246.5 261t-86.5 386zM432 1628q51 84 108.5 129t145.5 45q61 0 133 -35q10 -5 36 -22t46 -25t41 -6q17 1 29.5 6.5t23.5 20t15 21t16 28.5l154 -82 q-49 -85 -104 -129.5t-142 -44.5q-74 0 -139 35q-9 5 -27.5 16.5t-30.5 18t-30.5 12.5t-34.5 6q-10 0 -18.5 -2t-16 -7.5t-12.5 -8.5t-12 -13t-9.5 -13.5t-10.5 -16.5t-9 -15zM465 715q0 -210 92 -330.5t248 -120.5q157 0 249.5 120.5t92.5 330.5t-93 332t-249 122 q-157 0 -248.5 -122t-91.5 -332z" />
<glyph unicode="&#xd6;" horiz-adv-x="1611" d="M102 717q0 220 86.5 387.5t246 259.5t370.5 92q322 0 513 -201t191 -538q0 -334 -193 -537t-511 -203q-210 0 -370 93t-246.5 261t-86.5 386zM465 715q0 -210 92 -330.5t248 -120.5q157 0 249.5 120.5t92.5 330.5t-93 332t-249 122q-157 0 -248.5 -122t-91.5 -332z M475 1561v256h260v-256h-260zM879 1561v256h258v-256h-258z" />
<glyph unicode="&#xd7;" horiz-adv-x="1132" d="M123 432l287 287l-287 289l156 157l288 -288l289 288l154 -153l-289 -289l289 -291l-156 -156l-291 289l-287 -286z" />
<glyph unicode="&#xd8;" horiz-adv-x="1673" d="M102 106l158 158q-127 187 -127 453q0 220 86.5 387.5t246 259.5t370.5 92q282 0 464 -153l150 149l121 -127l-156 -156q125 -189 125 -452q0 -334 -193 -537t-511 -203q-270 0 -457 154l-152 -151zM496 715q0 -109 24 -191l545 543q-90 100 -229 100q-157 0 -248.5 -121 t-91.5 -331zM608 360q87 -96 228 -96q157 0 249.5 120.5t92.5 330.5q0 97 -27 190z" />
<glyph unicode="&#xd9;" horiz-adv-x="1433" d="M143 582v852h349v-906q0 -134 54.5 -198t176.5 -64q119 0 175 62t56 198v908h336v-852q0 -605 -567 -605q-298 0 -439 148t-141 457zM426 1843h221l178 -309h-172z" />
<glyph unicode="&#xda;" horiz-adv-x="1433" d="M143 582v852h349v-906q0 -134 54.5 -198t176.5 -64q119 0 175 62t56 198v908h336v-852q0 -605 -567 -605q-298 0 -439 148t-141 457zM639 1534l178 309h221l-227 -309h-172z" />
<glyph unicode="&#xdb;" horiz-adv-x="1433" d="M143 582v852h349v-906q0 -134 54.5 -198t176.5 -64q119 0 175 62t56 198v908h336v-852q0 -605 -567 -605q-298 0 -439 148t-141 457zM442 1534l179 309h188l180 -309h-172l-102 139l-101 -139h-172z" />
<glyph unicode="&#xdc;" horiz-adv-x="1433" d="M143 582v852h349v-906q0 -134 54.5 -198t176.5 -64q119 0 175 62t56 198v908h336v-852q0 -605 -567 -605q-298 0 -439 148t-141 457zM385 1561v256h260v-256h-260zM788 1561v256h259v-256h-259z" />
<glyph unicode="&#xdd;" horiz-adv-x="1327" d="M20 1434h388l262 -557h10l266 557h361l-457 -912v-522h-348v522zM586 1534l178 309h221l-227 -309h-172z" />
<glyph unicode="&#xde;" horiz-adv-x="1288" d="M143 0v1434h332v-246h176q596 0 596 -473q0 -126 -47 -219t-130.5 -147t-188 -79.5t-230.5 -25.5h-176v-244h-332zM475 551h191q219 0 219 164q0 88 -57 127t-177 39h-176v-330z" />
<glyph unicode="&#xdf;" horiz-adv-x="1226" d="M123 0v1032q0 217 136 343t359 126q229 0 361.5 -112t132.5 -297q0 -84 -52 -162.5t-136 -106.5v-8q118 -50 179.5 -149t61.5 -205q0 -122 -39 -216t-107.5 -151.5t-156 -87t-190.5 -29.5q-25 0 -67.5 6.5t-65.5 14.5v254h34q40 -19 80 -19q87 0 130.5 62.5t43.5 167.5 q0 106 -64 158.5t-157 52.5h-41v254h45q79 0 121.5 34t42.5 121q0 70 -41.5 116.5t-111.5 45.5q-70 0 -120 -50.5t-50 -154.5v-1040h-328z" />
<glyph unicode="&#xe0;" horiz-adv-x="1150" d="M61 319q0 139 91 232.5t239 118.5q49 8 146 21.5t143 21.5q0 65 -62 100t-149 35q-148 0 -283 -66h-34v252q180 60 352 60q504 0 504 -379v-715h-320v78h-8q-47 -44 -116.5 -72.5t-139.5 -28.5q-151 0 -257 94t-106 248zM264 1483h221l179 -309h-172zM389 334 q0 -56 34 -83.5t83 -27.5q48 0 87 17t87 51v205l-174 -35q-117 -21 -117 -127z" />
<glyph unicode="&#xe1;" horiz-adv-x="1150" d="M61 319q0 139 91 232.5t239 118.5q49 8 146 21.5t143 21.5q0 65 -62 100t-149 35q-148 0 -283 -66h-34v252q180 60 352 60q504 0 504 -379v-715h-320v78h-8q-47 -44 -116.5 -72.5t-139.5 -28.5q-151 0 -257 94t-106 248zM389 334q0 -56 34 -83.5t83 -27.5q48 0 87 17 t87 51v205l-174 -35q-117 -21 -117 -127zM416 1174l178 309h221l-227 -309h-172z" />
<glyph unicode="&#xe2;" horiz-adv-x="1150" d="M61 319q0 139 91 232.5t239 118.5q49 8 146 21.5t143 21.5q0 65 -62 100t-149 35q-148 0 -283 -66h-34v252q180 60 352 60q504 0 504 -379v-715h-320v78h-8q-47 -44 -116.5 -72.5t-139.5 -28.5q-151 0 -257 94t-106 248zM301 1174l178 309h189l180 -309h-172l-103 139 l-100 -139h-172zM389 334q0 -56 34 -83.5t83 -27.5q48 0 87 17t87 51v205l-174 -35q-117 -21 -117 -127z" />
<glyph unicode="&#xe3;" horiz-adv-x="1150" d="M61 319q0 139 91 232.5t239 118.5q49 8 146 21.5t143 21.5q0 65 -62 100t-149 35q-148 0 -283 -66h-34v252q180 60 352 60q504 0 504 -379v-715h-320v78h-8q-47 -44 -116.5 -72.5t-139.5 -28.5q-151 0 -257 94t-106 248zM201 1268q51 84 108.5 129t145.5 45q61 0 133 -35 q10 -5 36 -22t46 -25t41 -6q17 1 29.5 6.5t23.5 20t15 21t16 28.5l153 -82q-49 -85 -104 -129.5t-142 -44.5q-75 0 -139 34q-9 5 -27.5 16.5t-31 18.5t-30.5 13t-34 6q-10 0 -18.5 -2t-16 -7.5t-12.5 -8.5t-12 -13t-9.5 -13.5t-10.5 -16.5t-9 -15zM389 334q0 -56 34 -83.5 t83 -27.5q48 0 87 17t87 51v205l-174 -35q-117 -21 -117 -127z" />
<glyph unicode="&#xe4;" horiz-adv-x="1150" d="M61 319q0 139 91 232.5t239 118.5q49 8 146 21.5t143 21.5q0 65 -62 100t-149 35q-148 0 -283 -66h-34v252q180 60 352 60q504 0 504 -379v-715h-320v78h-8q-47 -44 -116.5 -72.5t-139.5 -28.5q-151 0 -257 94t-106 248zM264 1200v256h260v-256h-260zM389 334 q0 -56 34 -83.5t83 -27.5q48 0 87 17t87 51v205l-174 -35q-117 -21 -117 -127zM668 1200v256h258v-256h-258z" />
<glyph unicode="&#xe5;" horiz-adv-x="1150" d="M61 319q0 139 91 232.5t239 118.5q49 8 146 21.5t143 21.5q0 65 -62 100t-149 35q-148 0 -283 -66h-34v252q180 60 352 60q504 0 504 -379v-715h-320v78h-8q-47 -44 -116.5 -72.5t-139.5 -28.5q-151 0 -257 94t-106 248zM358 1327q0 82 58 139.5t141 57.5q79 0 137 -58 t58 -139q0 -79 -58.5 -136.5t-136.5 -57.5q-83 0 -141 57t-58 137zM389 334q0 -56 34 -83.5t83 -27.5q48 0 87 17t87 51v205l-174 -35q-117 -21 -117 -127zM467 1327q0 -36 26 -61t64 -25q35 0 59.5 25.5t24.5 60.5q0 37 -24.5 61.5t-59.5 24.5q-38 0 -64 -24.5t-26 -61.5z " />
<glyph unicode="&#xe6;" horiz-adv-x="1765" d="M61 334q0 138 89.5 223t240.5 111q48 8 155 21.5t154 21.5q0 54 -71.5 94.5t-153.5 40.5q-137 0 -280 -66h-43v250q214 64 352 64q244 0 370 -107q130 107 318 107q134 0 254.5 -58t181.5 -168q50 -91 63 -193t11 -249h-709q8 -56 39 -99t77 -67.5t99.5 -36t112.5 -10.5 q71 0 160 24.5t129 57.5h41v-246q-71 -23 -113.5 -35.5t-119 -24.5t-154.5 -12q-116 0 -238.5 35t-204.5 105q-59 -64 -163 -102t-214 -38q-163 0 -273 100.5t-110 256.5zM389 332q3 -111 117 -111q79 -2 192 66q-39 87 -45 198l-147 -26q-57 -10 -88.5 -39t-28.5 -88z M987 637h385q-6 105 -54.5 162t-119.5 57q-78 0 -138.5 -59t-72.5 -160z" />
<glyph unicode="&#xe7;" horiz-adv-x="1046" d="M82 526q0 269 151 418.5t422 149.5q170 0 328 -74v-254h-35q-47 35 -123 53.5t-141 18.5q-271 0 -264 -310q1 -80 28.5 -145t88.5 -107.5t147 -42.5q65 0 137.5 18.5t128.5 53.5h35v-254q-145 -65 -299 -71l-6 -37q97 -16 154 -58.5t57 -132.5q0 -113 -78.5 -178.5 t-187.5 -65.5q-136 0 -265 97l111 139q86 -55 150 -55q33 0 55 16.5t22 48.5q0 48 -73 74.5t-146 26.5l25 137q-188 38 -305 177t-117 357z" />
<glyph unicode="&#xe8;" horiz-adv-x="1189" d="M82 526q0 255 145 411.5t387 156.5q119 0 212 -37.5t152 -100.5t95.5 -150t47.5 -181.5t3 -198.5h-700q6 -56 34.5 -98.5t73 -67t97.5 -36t114 -11.5q71 0 160.5 24.5t134.5 57.5h35v-252q-179 -66 -387 -66q-100 0 -187.5 18.5t-165 60.5t-132.5 105t-87 156t-32 209z M367 1483h221l178 -309h-172zM418 637h377q-1 104 -51.5 161.5t-122.5 57.5q-78 0 -137 -59.5t-66 -159.5z" />
<glyph unicode="&#xe9;" horiz-adv-x="1189" d="M82 526q0 255 145 411.5t387 156.5q119 0 212 -37.5t152 -100.5t95.5 -150t47.5 -181.5t3 -198.5h-700q6 -56 34.5 -98.5t73 -67t97.5 -36t114 -11.5q71 0 160.5 24.5t134.5 57.5h35v-252q-179 -66 -387 -66q-100 0 -187.5 18.5t-165 60.5t-132.5 105t-87 156t-32 209z M418 637h377q-1 104 -51.5 161.5t-122.5 57.5q-78 0 -137 -59.5t-66 -159.5zM518 1174l178 309h222l-228 -309h-172z" />
<glyph unicode="&#xea;" horiz-adv-x="1189" d="M82 526q0 255 145 411.5t387 156.5q119 0 212 -37.5t152 -100.5t95.5 -150t47.5 -181.5t3 -198.5h-700q6 -56 34.5 -98.5t73 -67t97.5 -36t114 -11.5q71 0 160.5 24.5t134.5 57.5h35v-252q-179 -66 -387 -66q-100 0 -187.5 18.5t-165 60.5t-132.5 105t-87 156t-32 209z M362 1174l179 309h188l180 -309h-172l-102 139l-100 -139h-173zM418 637h377q-1 104 -51.5 161.5t-122.5 57.5q-78 0 -137 -59.5t-66 -159.5z" />
<glyph unicode="&#xeb;" horiz-adv-x="1189" d="M82 526q0 255 145 411.5t387 156.5q119 0 212 -37.5t152 -100.5t95.5 -150t47.5 -181.5t3 -198.5h-700q6 -56 34.5 -98.5t73 -67t97.5 -36t114 -11.5q71 0 160.5 24.5t134.5 57.5h35v-252q-179 -66 -387 -66q-100 0 -187.5 18.5t-165 60.5t-132.5 105t-87 156t-32 209z M285 1200v256h260v-256h-260zM418 637h377q-1 104 -51.5 161.5t-122.5 57.5q-78 0 -137 -59.5t-66 -159.5zM688 1200v256h258v-256h-258z" />
<glyph unicode="&#xec;" horiz-adv-x="573" d="M59 1483h222l178 -309h-172zM123 0v1073h328v-1073h-328z" />
<glyph unicode="&#xed;" horiz-adv-x="573" d="M123 0v1073h328v-1073h-328zM129 1174l178 309h221l-227 -309h-172z" />
<glyph unicode="&#xee;" horiz-adv-x="573" d="M14 1174l179 309h188l180 -309h-172l-102 139l-101 -139h-172zM123 0v1073h328v-1073h-328z" />
<glyph unicode="&#xef;" horiz-adv-x="573" d="M-43 1200v256h260v-256h-260zM123 0v1073h328v-1073h-328zM360 1200v256h258v-256h-258z" />
<glyph unicode="&#xf0;" horiz-adv-x="1245" d="M82 537q0 146 61.5 274t170.5 205.5t239 77.5q77 0 133 -33h6q-52 75 -137 153l-336 -122l-49 135l254 94q-77 72 -272 180h417q75 -49 121 -86l232 84l49 -137l-160 -55q166 -174 259 -359t93 -411q0 -106 -37.5 -205.5t-105.5 -179t-172.5 -127.5t-229.5 -48 q-151 0 -274 73.5t-192.5 201.5t-69.5 285zM420 539q0 -80 19.5 -146t67.5 -111.5t118 -45.5t116.5 45t65 111t18.5 149q0 60 -11 111.5t-34.5 94t-63.5 67t-93 24.5q-55 0 -95.5 -25t-63.5 -68.5t-33.5 -95t-10.5 -110.5z" />
<glyph unicode="&#xf1;" d="M123 0v1073h319v-65h7q51 39 128.5 62.5t127.5 23.5q188 0 300.5 -111t112.5 -295v-688h-327v692q0 61 -39 103.5t-105 42.5q-45 0 -104 -18.5t-92 -39.5v-780h-328zM287 1268q51 84 108.5 129t145.5 45q61 0 133 -35q10 -5 36 -22t46 -25t41 -6q17 1 29.5 6.5t23.5 20 t15 21t16 28.5l153 -82q-49 -85 -104 -129.5t-142 -44.5q-75 0 -139 34q-9 5 -27.5 16.5t-31 18.5t-30.5 13t-34 6q-10 0 -18.5 -2t-16 -7.5t-12.5 -8.5t-12 -13t-9.5 -13.5t-10.5 -16.5t-9 -15z" />
<glyph unicode="&#xf2;" horiz-adv-x="1245" d="M82 535q0 251 145 405t396 154q111 0 210.5 -41.5t172 -114t115 -177.5t42.5 -226q0 -161 -72.5 -289.5t-195.5 -198.5t-272 -70t-272 70t-196 198.5t-73 289.5zM373 1483h221l178 -309h-172zM420 535q0 -143 52 -222.5t151 -79.5q98 0 150 79.5t52 222.5t-52 223 t-150 80t-150.5 -80t-52.5 -223z" />
<glyph unicode="&#xf3;" horiz-adv-x="1245" d="M82 535q0 251 145 405t396 154q111 0 210.5 -41.5t172 -114t115 -177.5t42.5 -226q0 -161 -72.5 -289.5t-195.5 -198.5t-272 -70t-272 70t-196 198.5t-73 289.5zM420 535q0 -143 52 -222.5t151 -79.5q98 0 150 79.5t52 222.5t-52 223t-150 80t-150.5 -80t-52.5 -223z M504 1174l178 309h221l-227 -309h-172z" />
<glyph unicode="&#xf4;" horiz-adv-x="1245" d="M82 535q0 251 145 405t396 154q111 0 210.5 -41.5t172 -114t115 -177.5t42.5 -226q0 -161 -72.5 -289.5t-195.5 -198.5t-272 -70t-272 70t-196 198.5t-73 289.5zM348 1174l178 309h189l180 -309h-172l-102 139l-101 -139h-172zM420 535q0 -143 52 -222.5t151 -79.5 q98 0 150 79.5t52 222.5t-52 223t-150 80t-150.5 -80t-52.5 -223z" />
<glyph unicode="&#xf5;" horiz-adv-x="1245" d="M82 535q0 251 145 405t396 154q111 0 210.5 -41.5t172 -114t115 -177.5t42.5 -226q0 -161 -72.5 -289.5t-195.5 -198.5t-272 -70t-272 70t-196 198.5t-73 289.5zM248 1268q51 84 108.5 129t145.5 45q61 0 133 -35q10 -5 36 -22t46 -25t41 -6q17 1 29.5 6.5t23.5 20t15 21 t16 28.5l153 -82q-49 -86 -103.5 -130t-141.5 -44q-76 0 -140 34q-9 5 -27.5 16.5t-31 18.5t-30.5 13t-34 6q-10 0 -18.5 -2t-16 -7.5t-12.5 -8.5t-12 -13t-9.5 -13.5t-10.5 -16.5t-9 -15zM420 535q0 -143 52 -222.5t151 -79.5q98 0 150 79.5t52 222.5t-52 223t-150 80 t-150.5 -80t-52.5 -223z" />
<glyph unicode="&#xf6;" horiz-adv-x="1245" d="M82 535q0 251 145 405t396 154q111 0 210.5 -41.5t172 -114t115 -177.5t42.5 -226q0 -161 -72.5 -289.5t-195.5 -198.5t-272 -70t-272 70t-196 198.5t-73 289.5zM291 1200v256h260v-256h-260zM420 535q0 -143 52 -222.5t151 -79.5q98 0 150 79.5t52 222.5t-52 223 t-150 80t-150.5 -80t-52.5 -223zM694 1200v256h258v-256h-258z" />
<glyph unicode="&#xf7;" horiz-adv-x="1200" d="M123 424v221h954v-221h-954zM467 0v272h274v-272h-274zM469 797v276h272v-276h-272z" />
<glyph unicode="&#xf8;" horiz-adv-x="1267" d="M82 109l108 108q-86 142 -86 322q0 246 151 400.5t390 154.5q186 0 324 -101l94 94l108 -116l-92 -92q107 -149 107 -338q0 -260 -150.5 -412t-406.5 -152q-192 0 -332 117l-102 -102zM442 547q0 -49 2 -76l322 320q-50 47 -121 47q-44 0 -80 -19t-58.5 -49t-37.5 -69.5 t-21 -77.5t-6 -76zM502 299q50 -70 129 -70q62 0 107.5 29.5t69 78t33 101.5t7.5 109q0 38 -10 90z" />
<glyph unicode="&#xf9;" d="M123 383v690h328v-694q0 -61 38.5 -103.5t104.5 -42.5q45 0 105 18.5t92 39.5v782h327v-1073h-319v66h-6q-51 -39 -129 -64t-127 -25q-188 0 -301 111t-113 295zM350 1483h221l179 -309h-172z" />
<glyph unicode="&#xfa;" d="M123 383v690h328v-694q0 -61 38.5 -103.5t104.5 -42.5q45 0 105 18.5t92 39.5v782h327v-1073h-319v66h-6q-51 -39 -129 -64t-127 -25q-188 0 -301 111t-113 295zM543 1174l178 309h221l-227 -309h-172z" />
<glyph unicode="&#xfb;" d="M123 383v690h328v-694q0 -61 38.5 -103.5t104.5 -42.5q45 0 105 18.5t92 39.5v782h327v-1073h-319v66h-6q-51 -39 -129 -64t-127 -25q-188 0 -301 111t-113 295zM346 1174l178 309h189l180 -309h-172l-103 139l-100 -139h-172z" />
<glyph unicode="&#xfc;" d="M123 383v690h328v-694q0 -61 38.5 -103.5t104.5 -42.5q45 0 105 18.5t92 39.5v782h327v-1073h-319v66h-6q-51 -39 -129 -64t-127 -25q-188 0 -301 111t-113 295zM289 1200v256h260v-256h-260zM692 1200v256h258v-256h-258z" />
<glyph unicode="&#xfd;" horiz-adv-x="1189" d="M20 1073h355l250 -635h10l229 635h305l-469 -1296q-50 -139 -162 -204t-266 -65h-112v267h108q82 0 111.5 20t46.5 68l51 141zM528 1174l179 309h221l-228 -309h-172z" />
<glyph unicode="&#xfe;" horiz-adv-x="1220" d="M123 -492v1993h328v-452h6q34 20 88.5 32.5t89.5 12.5q234 0 369 -155t135 -404t-135 -403.5t-369 -154.5q-35 0 -89.5 13t-88.5 33h-6v-515h-328zM451 256q79 -23 139 -23q211 0 211 302q0 303 -211 303q-60 0 -139 -23v-559z" />
<glyph unicode="&#xff;" horiz-adv-x="1189" d="M20 1073h355l250 -635h10l229 635h305l-469 -1296q-50 -139 -162 -204t-266 -65h-112v267h108q82 0 111.5 20t46.5 68l51 141zM264 1200v256h260v-256h-260zM668 1200v256h258v-256h-258z" />
<glyph unicode="&#x100;" horiz-adv-x="1464" d="M20 0l494 1309q24 65 88 103t139 38q69 0 124.5 -38t80.5 -101l498 -1311h-373l-94 272h-524l-97 -272h-336zM375 1595v138h712v-138h-712zM553 551h321l-155 434h-10z" />
<glyph unicode="&#x101;" horiz-adv-x="1150" d="M61 319q0 139 91 232.5t239 118.5q49 8 146 21.5t143 21.5q0 65 -62 100t-149 35q-148 0 -283 -66h-34v252q180 60 352 60q504 0 504 -379v-715h-320v78h-8q-47 -44 -116.5 -72.5t-139.5 -28.5q-151 0 -257 94t-106 248zM229 1235v137h713v-137h-713zM389 334 q0 -56 34 -83.5t83 -27.5q48 0 87 17t87 51v205l-174 -35q-117 -21 -117 -127z" />
<glyph unicode="&#x102;" horiz-adv-x="1464" d="M20 0l494 1309q24 65 88 103t139 38q69 0 124.5 -38t80.5 -101l498 -1311h-373l-94 272h-524l-97 -272h-336zM403 1800h154q24 -49 68.5 -66.5t107.5 -17.5q128 0 172 84h156q-37 -129 -115.5 -196.5t-212.5 -67.5q-135 0 -213 67t-117 197zM553 551h321l-155 434h-10z " />
<glyph unicode="&#x103;" horiz-adv-x="1150" d="M61 319q0 139 91 232.5t239 118.5q49 8 146 21.5t143 21.5q0 65 -62 100t-149 35q-148 0 -283 -66h-34v252q180 60 352 60q504 0 504 -379v-715h-320v78h-8q-47 -44 -116.5 -72.5t-139.5 -28.5q-151 0 -257 94t-106 248zM215 1440h154q24 -49 68.5 -66.5t107.5 -17.5 q128 0 172 84h155q-37 -129 -115 -196.5t-212 -67.5q-135 0 -213 67t-117 197zM389 334q0 -56 34 -83.5t83 -27.5q48 0 87 17t87 51v205l-174 -35q-117 -21 -117 -127z" />
<glyph unicode="&#x104;" horiz-adv-x="1464" d="M20 0l494 1309q24 65 88 103t139 38q69 0 124.5 -38t80.5 -101l498 -1311h-129q-74 -87 -74 -166q0 -137 203 -137v-191q-55 2 -107.5 9.5t-111.5 25.5t-102.5 44.5t-72 71.5t-28.5 101q0 116 98 242h-49l-94 272h-524l-97 -272h-336zM553 551h321l-155 434h-10z" />
<glyph unicode="&#x105;" horiz-adv-x="1150" d="M61 319q0 139 91 232.5t239 118.5q49 8 146 21.5t143 21.5q0 65 -62 100t-149 35q-148 0 -283 -66h-34v252q180 60 352 60q504 0 504 -379v-715h-109q-74 -87 -74 -166q0 -137 203 -137v-191q-55 2 -107.5 9.5t-111.5 25.5t-102.5 44.5t-72 71.5t-28.5 101q0 115 99 242 h-17v78h-8q-47 -44 -116.5 -72.5t-139.5 -28.5q-151 0 -257 94t-106 248zM389 334q0 -56 34 -83.5t83 -27.5q48 0 87 17t87 51v205l-174 -35q-117 -21 -117 -127z" />
<glyph unicode="&#x106;" horiz-adv-x="1327" d="M102 713q0 223 92.5 392t259 260t382.5 91q186 0 403 -80v-325h-39q-57 51 -144.5 84.5t-174.5 33.5q-196 0 -306 -124t-110 -320q0 -203 110 -332t293 -129q166 0 338 123h39v-326q-209 -84 -405 -84q-168 0 -307.5 56.5t-233.5 155.5t-145.5 233.5t-51.5 290.5z M729 1534l178 309h221l-227 -309h-172z" />
<glyph unicode="&#x107;" horiz-adv-x="1046" d="M25 512q0 269 151 418t422 149q172 0 328 -73v-254h-35q-47 35 -122.5 53t-141.5 18q-272 0 -265 -309q1 -80 28.5 -145t89 -107.5t147.5 -42.5q65 0 137.5 18.5t128.5 53.5h35v-254q-164 -74 -342 -74q-115 0 -216.5 36.5t-178.5 104t-121.5 173t-44.5 235.5zM508 1174 l178 309h221l-227 -309h-172z" />
<glyph unicode="&#x108;" horiz-adv-x="1327" d="M102 713q0 223 92.5 392t259 260t382.5 91q186 0 403 -80v-325h-39q-57 51 -144.5 84.5t-174.5 33.5q-196 0 -306 -124t-110 -320q0 -203 110 -332t293 -129q166 0 338 123h39v-326q-209 -84 -405 -84q-168 0 -307.5 56.5t-233.5 155.5t-145.5 233.5t-51.5 290.5z M573 1534l179 309h188l180 -309h-172l-102 139l-101 -139h-172z" />
<glyph unicode="&#x109;" horiz-adv-x="1046" d="M82 526q0 269 151 418.5t422 149.5q170 0 328 -74v-254h-35q-47 35 -123 53.5t-141 18.5q-271 0 -264 -310q1 -80 28.5 -145t88.5 -107.5t147 -42.5q65 0 137.5 18.5t128.5 53.5h35v-254q-164 -74 -342 -74q-115 0 -216.5 36.5t-178.5 104t-121.5 173t-44.5 235.5z M373 1174l178 309h188l181 -309h-172l-103 139l-100 -139h-172z" />
<glyph unicode="&#x10a;" horiz-adv-x="1327" d="M102 713q0 223 92.5 392t259 260t382.5 91q186 0 403 -80v-325h-39q-57 51 -144.5 84.5t-174.5 33.5q-196 0 -306 -124t-110 -320q0 -203 110 -332t293 -129q166 0 338 123h39v-326q-209 -84 -405 -84q-168 0 -307.5 56.5t-233.5 155.5t-145.5 233.5t-51.5 290.5z M696 1561v256h260v-256h-260z" />
<glyph unicode="&#x10b;" horiz-adv-x="1046" d="M82 526q0 269 151 418.5t422 149.5q170 0 328 -74v-254h-35q-47 35 -123 53.5t-141 18.5q-271 0 -264 -310q1 -80 28.5 -145t88.5 -107.5t147 -42.5q65 0 137.5 18.5t128.5 53.5h35v-254q-164 -74 -342 -74q-115 0 -216.5 36.5t-178.5 104t-121.5 173t-44.5 235.5z M516 1200v256h260v-256h-260z" />
<glyph unicode="&#x10c;" horiz-adv-x="1327" d="M102 713q0 223 92.5 392t259 260t382.5 91q186 0 403 -80v-325h-39q-57 51 -144.5 84.5t-174.5 33.5q-196 0 -306 -124t-110 -320q0 -203 110 -332t293 -129q166 0 338 123h39v-326q-209 -84 -405 -84q-168 0 -307.5 56.5t-233.5 155.5t-145.5 233.5t-51.5 290.5z M553 1843h172l100 -139l103 139h172l-180 -309h-189z" />
<glyph unicode="&#x10d;" horiz-adv-x="1046" d="M82 526q0 269 151 418.5t422 149.5q170 0 328 -74v-254h-35q-47 35 -123 53.5t-141 18.5q-271 0 -264 -310q1 -80 28.5 -145t88.5 -107.5t147 -42.5q65 0 137.5 18.5t128.5 53.5h35v-254q-164 -74 -342 -74q-115 0 -216.5 36.5t-178.5 104t-121.5 173t-44.5 235.5z M373 1483h172l100 -140l103 140h172l-181 -309h-188z" />
<glyph unicode="&#x10e;" horiz-adv-x="1515" d="M143 0v1096q0 139 99 238.5t237 99.5h230q328 0 516 -185.5t188 -531.5q0 -344 -190 -530.5t-514 -186.5h-566zM442 1843h172l101 -139l102 139h172l-180 -309h-188zM492 307h217q165 0 253.5 96t88.5 312q0 411 -342 411h-189q-11 0 -19.5 -8t-8.5 -18v-793z" />
<glyph unicode="&#x10f;" horiz-adv-x="1415" d="M82 543q0 -264 140.5 -415t414.5 -151h143q132 0 225 92.5t93 223.5v1208h-328v-452h-6q-34 20 -88.5 32.5t-89.5 12.5q-233 0 -368.5 -154t-135.5 -397zM420 553q0 55 9.5 101.5t31 90t65.5 68.5t105 25q60 0 139 -23v-504q0 -33 -21.5 -55.5t-52.5 -22.5h-45 q-59 0 -102 17.5t-67.5 45.5t-38.5 71.5t-18.5 86t-4.5 99.5zM1200 977l141 526h267l-228 -526h-180z" />
<glyph unicode="&#x110;" horiz-adv-x="1564" d="M20 664v210h173v222q0 139 98.5 238.5t236.5 99.5h230q328 0 516 -185.5t188 -531.5q0 -344 -190 -530.5t-514 -186.5h-565v664h-173zM541 307h217q165 0 253.5 96t88.5 312q0 411 -342 411h-189q-11 0 -19.5 -8t-8.5 -18v-226h247v-210h-247v-357z" />
<glyph unicode="&#x111;" horiz-adv-x="1210" d="M82 543q0 243 135.5 397t368.5 154q35 0 89.5 -12.5t88.5 -32.5h6v165h-328v138h328v149h328v-149h119v-138h-119v-921q0 -131 -93 -223.5t-225 -92.5h-143q-274 0 -414.5 151t-140.5 415zM420 553q0 -57 4.5 -99.5t18.5 -86t38.5 -71.5t67.5 -45.5t102 -17.5h45 q31 0 52.5 22.5t21.5 55.5v504q-79 23 -139 23q-61 0 -105 -25t-65.5 -68.5t-31 -90t-9.5 -101.5z" />
<glyph unicode="&#x112;" horiz-adv-x="1226" d="M143 0v1081q0 147 103 250t250 103h690v-308h-666q-11 0 -19.5 -8t-8.5 -20v-197h516v-303h-516v-291h692v-307h-1041zM358 1595v138h713v-138h-713z" />
<glyph unicode="&#x113;" horiz-adv-x="1189" d="M82 526q0 255 145 411.5t387 156.5q119 0 212 -37.5t152 -100.5t95.5 -150t47.5 -181.5t3 -198.5h-700q6 -56 34.5 -98.5t73 -67t97.5 -36t114 -11.5q71 0 160.5 24.5t134.5 57.5h35v-252q-179 -66 -387 -66q-100 0 -187.5 18.5t-165 60.5t-132.5 105t-87 156t-32 209z M279 1235v137h712v-137h-712zM418 637h377q-1 104 -51.5 161.5t-122.5 57.5q-78 0 -137 -59.5t-66 -159.5z" />
<glyph unicode="&#x116;" horiz-adv-x="1226" d="M143 0v1081q0 147 103 250t250 103h690v-308h-666q-11 0 -19.5 -8t-8.5 -20v-197h516v-303h-516v-291h692v-307h-1041zM606 1561v256h260v-256h-260z" />
<glyph unicode="&#x117;" horiz-adv-x="1189" d="M82 526q0 255 145 411.5t387 156.5q119 0 212 -37.5t152 -100.5t95.5 -150t47.5 -181.5t3 -198.5h-700q6 -56 34.5 -98.5t73 -67t97.5 -36t114 -11.5q71 0 160.5 24.5t134.5 57.5h35v-252q-179 -66 -387 -66q-100 0 -187.5 18.5t-165 60.5t-132.5 105t-87 156t-32 209z M418 637h377q-1 104 -51.5 161.5t-122.5 57.5q-78 0 -137 -59.5t-66 -159.5zM485 1200v256h260v-256h-260z" />
<glyph unicode="&#x118;" horiz-adv-x="1226" d="M143 0v1081q0 147 103 250t250 103h690v-308h-666q-11 0 -19.5 -8t-8.5 -20v-197h516v-303h-516v-291h692v-307h-127q-74 -87 -74 -166q0 -137 203 -137v-191q-55 2 -107.5 9.5t-111.5 25.5t-102.5 44.5t-72 71.5t-28.5 101q0 116 98 242h-719z" />
<glyph unicode="&#x119;" horiz-adv-x="1189" d="M82 526q0 255 145 411.5t387 156.5q119 0 212 -37.5t152 -100.5t95.5 -150t47.5 -181.5t3 -198.5h-700q6 -56 34.5 -98.5t73 -67t97.5 -36t114 -11.5q71 0 160.5 24.5t134.5 57.5h35v-252q-151 -55 -315 -63q-56 -75 -56 -146q0 -137 203 -137v-191q-55 2 -107.5 9.5 t-111.5 25.5t-102.5 44.5t-72 71.5t-28.5 101q0 107 86 228q-106 13 -191.5 50t-153 100.5t-105 163t-37.5 226.5zM418 637h377q-1 104 -51.5 161.5t-122.5 57.5q-78 0 -137 -59.5t-66 -159.5z" />
<glyph unicode="&#x11a;" horiz-adv-x="1226" d="M143 0v1081q0 147 103 250t250 103h690v-308h-666q-11 0 -19.5 -8t-8.5 -20v-197h516v-303h-516v-291h692v-307h-1041zM442 1843h172l101 -139l102 139h172l-180 -309h-188z" />
<glyph unicode="&#x11b;" horiz-adv-x="1189" d="M82 526q0 255 145 411.5t387 156.5q119 0 212 -37.5t152 -100.5t95.5 -150t47.5 -181.5t3 -198.5h-700q6 -56 34.5 -98.5t73 -67t97.5 -36t114 -11.5q71 0 160.5 24.5t134.5 57.5h35v-252q-179 -66 -387 -66q-100 0 -187.5 18.5t-165 60.5t-132.5 105t-87 156t-32 209z M342 1483h172l100 -140l103 140h172l-180 -309h-189zM418 637h377q-1 104 -51.5 161.5t-122.5 57.5q-78 0 -137 -59.5t-66 -159.5z" />
<glyph unicode="&#x11c;" horiz-adv-x="1449" d="M102 713q0 333 204.5 536.5t547.5 206.5q225 0 434 -80v-325h-39q-67 52 -169.5 80t-200.5 28q-194 0 -304 -117.5t-110 -316.5q0 -93 23 -173t69.5 -143t123.5 -99t177 -36q98 0 160 25v203h-273v301h603v-737q0 -4 -65 -24.5t-188.5 -42.5t-242.5 -22q-159 0 -295.5 50 t-237.5 142t-159 232.5t-58 311.5zM594 1534l178 309h189l180 -309h-172l-103 139l-100 -139h-172z" />
<glyph unicode="&#x11d;" horiz-adv-x="1220" d="M82 528q0 264 140.5 415t414.5 151h143q132 0 225 -92.5t93 -223.5v-735q0 -111 -35 -207t-101 -169.5t-171.5 -116t-237.5 -42.5q-164 0 -375 74v254h35q70 -36 159.5 -57t155.5 -21q105 0 173.5 61t68.5 165v39h-6q-34 -20 -88.5 -33t-89.5 -13q-233 0 -368.5 154 t-135.5 397zM377 1174l178 309h188l181 -309h-172l-103 139l-100 -139h-172zM420 518q0 -55 9.5 -101.5t31 -90t65.5 -68.5t105 -25q60 0 139 23v504q0 33 -21.5 55.5t-52.5 22.5h-45q-59 0 -102 -17.5t-67.5 -45.5t-38.5 -71.5t-18.5 -86t-4.5 -99.5z" />
<glyph unicode="&#x11e;" horiz-adv-x="1449" d="M102 713q0 333 204.5 536.5t547.5 206.5q225 0 434 -80v-325h-39q-67 52 -169.5 80t-200.5 28q-194 0 -304 -117.5t-110 -316.5q0 -93 23 -173t69.5 -143t123.5 -99t177 -36q98 0 160 25v203h-273v301h603v-737q0 -4 -65 -24.5t-188.5 -42.5t-242.5 -22q-159 0 -295.5 50 t-237.5 142t-159 232.5t-58 311.5zM539 1800h153q24 -49 68.5 -66.5t107.5 -17.5q128 0 172 84h156q-37 -129 -115.5 -196.5t-212.5 -67.5q-135 0 -212.5 67t-116.5 197z" />
<glyph unicode="&#x11f;" horiz-adv-x="1220" d="M82 528q0 264 140.5 415t414.5 151h143q132 0 225 -92.5t93 -223.5v-735q0 -111 -35 -207t-101 -169.5t-171.5 -116t-237.5 -42.5q-164 0 -375 74v254h35q70 -36 159.5 -57t155.5 -21q105 0 173.5 61t68.5 165v39h-6q-34 -20 -88.5 -33t-89.5 -13q-233 0 -368.5 154 t-135.5 397zM322 1440h153q24 -49 68.5 -66.5t107.5 -17.5q128 0 172 84h156q-37 -129 -115.5 -196.5t-212.5 -67.5q-135 0 -212.5 67t-116.5 197zM420 518q0 -55 9.5 -101.5t31 -90t65.5 -68.5t105 -25q60 0 139 23v504q0 33 -21.5 55.5t-52.5 22.5h-45q-59 0 -102 -17.5 t-67.5 -45.5t-38.5 -71.5t-18.5 -86t-4.5 -99.5z" />
<glyph unicode="&#x120;" horiz-adv-x="1449" d="M102 713q0 333 204.5 536.5t547.5 206.5q225 0 434 -80v-325h-39q-67 52 -169.5 80t-200.5 28q-194 0 -304 -117.5t-110 -316.5q0 -93 23 -173t69.5 -143t123.5 -99t177 -36q98 0 160 25v203h-273v301h603v-737q0 -4 -65 -24.5t-188.5 -42.5t-242.5 -22q-159 0 -295.5 50 t-237.5 142t-159 232.5t-58 311.5zM737 1561v256h260v-256h-260z" />
<glyph unicode="&#x121;" horiz-adv-x="1220" d="M82 528q0 264 140.5 415t414.5 151h143q132 0 225 -92.5t93 -223.5v-735q0 -111 -35 -207t-101 -169.5t-171.5 -116t-237.5 -42.5q-164 0 -375 74v254h35q70 -36 159.5 -57t155.5 -21q105 0 173.5 61t68.5 165v39h-6q-34 -20 -88.5 -33t-89.5 -13q-233 0 -368.5 154 t-135.5 397zM420 518q0 -55 9.5 -101.5t31 -90t65.5 -68.5t105 -25q60 0 139 23v504q0 33 -21.5 55.5t-52.5 22.5h-45q-59 0 -102 -17.5t-67.5 -45.5t-38.5 -71.5t-18.5 -86t-4.5 -99.5zM500 1200v256h260v-256h-260z" />
<glyph unicode="&#x122;" horiz-adv-x="1462" d="M102 713q0 333 204.5 536.5t547.5 206.5q225 0 434 -80v-325h-39q-67 52 -169.5 80t-200.5 28q-194 0 -304 -117.5t-110 -316.5q0 -93 23 -173t69.5 -143t123.5 -99t177 -36q98 0 160 25v203h-273v301h603v-737q0 -4 -65 -24.5t-188.5 -42.5t-242.5 -22q-159 0 -295.5 50 t-237.5 142t-159 232.5t-58 311.5zM674 -489l104 387l215 2l-166 -389h-153z" />
<glyph unicode="&#x123;" horiz-adv-x="1220" d="M82 528q0 264 140.5 415t414.5 151h143q132 0 225 -92.5t93 -223.5v-735q0 -111 -35 -207t-101 -169.5t-171.5 -116t-237.5 -42.5q-164 0 -375 74v254h35q70 -36 159.5 -57t155.5 -21q105 0 173.5 61t68.5 165v39h-6q-34 -20 -88.5 -33t-89.5 -13q-233 0 -368.5 154 t-135.5 397zM420 518q0 -55 9.5 -101.5t31 -90t65.5 -68.5t105 -25q60 0 139 23v504q0 33 -21.5 55.5t-52.5 22.5h-45q-59 0 -102 -17.5t-67.5 -45.5t-38.5 -71.5t-18.5 -86t-4.5 -99.5zM487 1337l228 527h180l-141 -527h-267z" />
<glyph unicode="&#x124;" horiz-adv-x="1482" d="M143 0v1434h349v-529h499v529h348v-1434h-348v598h-499v-598h-349zM467 1534l178 309h189l180 -309h-172l-103 139l-100 -139h-172z" />
<glyph unicode="&#x125;" d="M123 0v1501h328v-493h6q51 39 125 62.5t123 23.5q188 0 300.5 -111t112.5 -295v-688h-327v692q0 61 -39 103.5t-105 42.5q-45 0 -104 -18.5t-92 -39.5v-780h-328zM487 1534l179 309h188l180 -309h-172l-102 139l-101 -139h-172z" />
<glyph unicode="&#x126;" horiz-adv-x="1482" d="M10 1053v141h133v240h349v-240h499v240h348v-240h134v-141h-134v-1053h-348v598h-499v-598h-349v1053h-133zM492 905h499v148h-499v-148z" />
<glyph unicode="&#x127;" horiz-adv-x="1230" d="M6 1214v138h117v149h328v-149h329v-138h-329v-206h6q51 39 125 62.5t123 23.5q188 0 300.5 -111t112.5 -295v-688h-327v692q0 61 -39 103.5t-105 42.5q-45 0 -104 -18.5t-92 -39.5v-780h-328v1214h-117z" />
<glyph unicode="&#x128;" horiz-adv-x="634" d="M-55 1628q51 84 108.5 129t145.5 45q61 0 133 -35q10 -5 36 -22t46 -25t41 -6q17 1 29.5 6.5t23.5 20t15 21t16 28.5l153 -82q-49 -85 -104 -129.5t-142 -44.5q-74 0 -139 35q-9 5 -27.5 16.5t-30.5 18t-30.5 12.5t-34.5 6q-10 0 -18.5 -2t-16 -7.5t-12.5 -8.5t-12 -13 t-9.5 -13.5t-10.5 -16.5t-9 -15zM143 0v1434h349v-1434h-349z" />
<glyph unicode="&#x129;" horiz-adv-x="573" d="M-86 1268q51 84 108.5 129t145.5 45q61 0 133 -35q10 -5 36 -22t46 -25t41 -6q17 1 29.5 6.5t23.5 20t15 21t16 28.5l154 -82q-49 -85 -104 -129.5t-142 -44.5q-76 0 -140 34q-7 4 -34.5 21.5t-47 25t-40.5 7.5q-10 0 -18.5 -2t-16 -7.5t-12.5 -8.5t-12 -13t-9.5 -13.5 t-10.5 -16.5t-9 -15zM123 0v1073h328v-1073h-328z" />
<glyph unicode="&#x12a;" horiz-adv-x="634" d="M-39 1595v138h713v-138h-713zM143 0v1434h349v-1434h-349z" />
<glyph unicode="&#x12b;" horiz-adv-x="573" d="M-70 1235v137h713v-137h-713zM123 0v1073h328v-1073h-328z" />
<glyph unicode="&#x12e;" horiz-adv-x="634" d="M70 -242q0 116 98 242h-25v1434h349v-1434h-130q-73 -86 -73 -166q0 -137 203 -137v-191q-55 2 -107.5 9.5t-111.5 25.5t-102.5 44.5t-72 71.5t-28.5 101z" />
<glyph unicode="&#x12f;" horiz-adv-x="573" d="M70 -242q0 116 98 242h-45v1073h328v-1073h-89q-73 -86 -73 -166q0 -137 203 -137v-191q-55 2 -107.5 9.5t-111.5 25.5t-102.5 44.5t-72 71.5t-28.5 101zM117 1167v267h340v-267h-340z" />
<glyph unicode="&#x130;" horiz-adv-x="634" d="M143 0v1434h349v-1434h-349zM186 1561v256h260v-256h-260z" />
<glyph unicode="&#x131;" horiz-adv-x="573" d="M123 0v1073h328v-1073h-328z" />
<glyph unicode="&#x134;" horiz-adv-x="704" d="M0 0h98q33 0 56 10.5t34.5 23.5t17 39t6.5 42.5t1 48.5v962h-152v308h500v-1256q0 -228 -106.5 -356.5t-329.5 -128.5h-125v307zM49 1534l178 309h189l180 -309h-172l-102 139l-101 -139h-172z" />
<glyph unicode="&#x135;" horiz-adv-x="661" d="M0 -225h90q34 0 57 8t35.5 19.5t19 35t8 44.5t1.5 57v868h-131v266h459v-1108q0 -239 -109.5 -348t-331.5 -109h-98v267zM37 1174l178 309h188l181 -309h-172l-103 139l-100 -139h-172z" />
<glyph unicode="&#x136;" horiz-adv-x="1478" d="M143 0v1434h349v-482l469 482h438l-590 -588l649 -846h-440l-453 602l-73 -70v-532h-349zM539 -489l104 387l215 2l-166 -389h-153z" />
<glyph unicode="&#x137;" horiz-adv-x="1226" d="M123 0v1501h328v-739l329 311h391l-442 -416l475 -657h-399l-299 449l-55 -52v-397h-328zM412 -489l104 387l215 2l-166 -389h-153z" />
<glyph unicode="&#x138;" horiz-adv-x="1226" d="M123 0v1073h328v-311l329 311h391l-442 -416l475 -657h-399l-299 449l-55 -52v-397h-328z" />
<glyph unicode="&#x139;" horiz-adv-x="1095" d="M143 350v1084h349v-1098q0 -11 10 -20t22 -9h531v-307h-557q-146 0 -250.5 102.5t-104.5 247.5zM293 1534l178 309h221l-227 -309h-172z" />
<glyph unicode="&#x13a;" horiz-adv-x="780" d="M123 350v1151h328v-1159q0 -56 34 -84.5t82 -28.5q93 0 158 43h35v-254q-134 -41 -248 -41q-188 0 -288.5 87.5t-100.5 285.5zM272 1534l179 309h221l-228 -309h-172z" />
<glyph unicode="&#x13b;" horiz-adv-x="1095" d="M143 350v1084h349v-1098q0 -11 10 -20t22 -9h531v-307h-557q-146 0 -250.5 102.5t-104.5 247.5zM428 -489l104 387l216 2l-166 -389h-154z" />
<glyph unicode="&#x13c;" horiz-adv-x="780" d="M123 350v1151h328v-1159q0 -56 34 -84.5t82 -28.5q93 0 158 43h35v-254q-134 -41 -248 -41q-188 0 -288.5 87.5t-100.5 285.5zM250 -489l104 387l215 2l-166 -389h-153z" />
<glyph unicode="&#x13d;" horiz-adv-x="1095" d="M143 350v1084h349v-1098q0 -11 10 -20t22 -9h531v-307h-557q-146 0 -250.5 102.5t-104.5 247.5zM586 907l141 527h266l-227 -527h-180z" />
<glyph unicode="&#x13e;" horiz-adv-x="829" d="M123 350v1151h328v-1159q0 -56 34 -84.5t82 -28.5q93 0 158 43h35v-254q-134 -41 -248 -41q-188 0 -288.5 87.5t-100.5 285.5zM555 977l141 526h267l-228 -526h-180z" />
<glyph unicode="&#x141;" horiz-adv-x="1095" d="M-78 694l221 180v560h349v-277l161 133l133 -166l-294 -241v-547q0 -11 10 -20t22 -9h531v-307h-557q-146 0 -250.5 102.5t-104.5 247.5v250l-88 -72z" />
<glyph unicode="&#x142;" horiz-adv-x="780" d="M-109 694l232 189v618h328v-352l172 141l133 -166l-305 -250v-532q0 -56 34 -84.5t82 -28.5q93 0 158 43h35v-254q-134 -41 -248 -41q-188 0 -288.5 87.5t-100.5 285.5v258l-98 -80z" />
<glyph unicode="&#x143;" horiz-adv-x="1507" d="M143 0v1235q0 96 70 155.5t166 59.5q77 0 143 -34t103 -99l415 -723h9v840h315v-1434h-373l-524 907h-8v-907h-316zM676 1534l178 309h221l-227 -309h-172z" />
<glyph unicode="&#x144;" d="M123 0v1073h319v-65h7q51 39 128.5 62.5t127.5 23.5q188 0 300.5 -111t112.5 -295v-688h-327v692q0 61 -39 103.5t-105 42.5q-45 0 -104 -18.5t-92 -39.5v-780h-328zM522 1174l178 309h222l-228 -309h-172z" />
<glyph unicode="&#x145;" horiz-adv-x="1507" d="M143 0v1235q0 96 70 155.5t166 59.5q77 0 143 -34t103 -99l415 -723h9v840h315v-1434h-373l-524 907h-8v-907h-316zM512 -489l104 387l215 2l-165 -389h-154z" />
<glyph unicode="&#x146;" d="M123 0v1073h319v-65h7q51 39 128.5 62.5t127.5 23.5q188 0 300.5 -111t112.5 -295v-688h-327v692q0 61 -39 103.5t-105 42.5q-45 0 -104 -18.5t-92 -39.5v-780h-328zM399 -489l105 387l215 2l-166 -389h-154z" />
<glyph unicode="&#x147;" horiz-adv-x="1507" d="M143 0v1235q0 96 70 155.5t166 59.5q77 0 143 -34t103 -99l415 -723h9v840h315v-1434h-373l-524 907h-8v-907h-316zM479 1843h172l101 -139l102 139h172l-180 -309h-189z" />
<glyph unicode="&#x148;" d="M123 0v1073h319v-65h7q51 39 128.5 62.5t127.5 23.5q188 0 300.5 -111t112.5 -295v-688h-327v692q0 61 -39 103.5t-105 42.5q-45 0 -104 -18.5t-92 -39.5v-780h-328zM387 1483h172l100 -140l103 140h172l-180 -309h-189z" />
<glyph unicode="&#x14a;" horiz-adv-x="1507" d="M143 0v1235q0 96 70 155.5t166 59.5q77 0 143 -34t103 -99l415 -723h9v840h315v-1440q0 -229 -106.5 -357.5t-329.5 -128.5h-125v308h98q37 0 60.5 11t34.5 33t15 43.5t5 53.5l-549 950h-8v-907h-316z" />
<glyph unicode="&#x14b;" horiz-adv-x="1230" d="M123 0v1073h319v-65h7q51 39 128.5 62.5t127.5 23.5q188 0 300.5 -111t112.5 -295v-723q0 -239 -109 -348t-331 -109h-98v267h90q34 0 57 8t35.5 19.5t19 35t8 44.5t1.5 57v753q0 61 -39 103.5t-105 42.5q-45 0 -104 -18.5t-92 -39.5v-780h-328z" />
<glyph unicode="&#x14c;" horiz-adv-x="1611" d="M102 717q0 220 86.5 387.5t246 259.5t370.5 92q322 0 513 -201t191 -538q0 -334 -193 -537t-511 -203q-210 0 -370 93t-246.5 261t-86.5 386zM449 1595v138h712v-138h-712zM465 715q0 -210 92 -330.5t248 -120.5q157 0 249.5 120.5t92.5 330.5t-93 332t-249 122 q-157 0 -248.5 -122t-91.5 -332z" />
<glyph unicode="&#x14d;" horiz-adv-x="1245" d="M82 535q0 251 145 405t396 154q111 0 210.5 -41.5t172 -114t115 -177.5t42.5 -226q0 -161 -72.5 -289.5t-195.5 -198.5t-272 -70t-272 70t-196 198.5t-73 289.5zM266 1235v137h713v-137h-713zM420 535q0 -143 52 -222.5t151 -79.5q98 0 150 79.5t52 222.5t-52 223 t-150 80t-150.5 -80t-52.5 -223z" />
<glyph unicode="&#x150;" horiz-adv-x="1611" d="M102 717q0 220 86.5 387.5t246 259.5t370.5 92q322 0 513 -201t191 -538q0 -334 -193 -537t-511 -203q-210 0 -370 93t-246.5 261t-86.5 386zM465 715q0 -210 92 -330.5t248 -120.5q157 0 249.5 120.5t92.5 330.5t-93 332t-249 122q-157 0 -248.5 -122t-91.5 -332z M518 1534l178 309h222l-228 -309h-172zM938 1534l178 309h221l-227 -309h-172z" />
<glyph unicode="&#x151;" horiz-adv-x="1245" d="M82 535q0 251 145 405t396 154q111 0 210.5 -41.5t172 -114t115 -177.5t42.5 -226q0 -161 -72.5 -289.5t-195.5 -198.5t-272 -70t-272 70t-196 198.5t-73 289.5zM336 1174l178 309h221l-227 -309h-172zM420 535q0 -143 52 -222.5t151 -79.5q98 0 150 79.5t52 222.5 t-52 223t-150 80t-150.5 -80t-52.5 -223zM756 1174l178 309h221l-227 -309h-172z" />
<glyph unicode="&#x152;" horiz-adv-x="2027" d="M102 717q0 163 49 302t133.5 234.5t200.5 149t248 53.5q219 0 377 -158h12q88 136 275 136h590v-308h-566q-11 0 -19.5 -8t-8.5 -20v-197h415v-303h-415v-291h592v-307h-920v88h-10q-139 -111 -322 -111q-132 0 -248 54.5t-200.5 150t-133.5 234.5t-49 301zM465 715 q0 -206 80.5 -323.5t208.5 -117.5q129 0 209.5 117.5t80.5 323.5t-81 325t-209 119q-129 0 -209 -118.5t-80 -325.5z" />
<glyph unicode="&#x153;" horiz-adv-x="1931" d="M82 535q0 251 145 405t396 154q100 0 193.5 -45t164.5 -125h10q67 81 160.5 125.5t204.5 44.5q119 0 212 -37.5t152 -100.5t95.5 -150t47.5 -181.5t3 -198.5h-701q11 -109 101 -161t219 -52q71 0 160.5 24.5t134.5 57.5h35v-252q-179 -66 -388 -66q-130 0 -244 41.5 t-192 128.5h-10q-71 -80 -164.5 -125t-193.5 -45q-149 0 -272 70t-196 198.5t-73 289.5zM420 535q0 -143 52 -222.5t151 -79.5q98 0 150 79.5t52 222.5t-52 223t-150 80t-150.5 -80t-52.5 -223zM1159 637h377q-1 104 -51.5 161.5t-122.5 57.5q-78 0 -137 -59.5t-66 -159.5z " />
<glyph unicode="&#x154;" horiz-adv-x="1429" d="M143 0v1079q0 147 103 251t250 104h172q596 0 596 -473q0 -156 -71.5 -258t-197.5 -152q389 -549 394 -551h-416l-326 496h-155v-496h-349zM492 797h190q219 0 219 164q0 88 -56.5 126.5t-176.5 38.5h-148q-11 0 -19.5 -8t-8.5 -20v-301zM555 1534l178 309h221l-227 -309 h-172z" />
<glyph unicode="&#x155;" horiz-adv-x="819" d="M123 0h328v719q66 58 146 73t146 -10h35v312q-203 0 -327 -103h-9v82h-319v-1073zM270 1174l179 309h221l-228 -309h-172z" />
<glyph unicode="&#x156;" horiz-adv-x="1429" d="M143 0v1079q0 147 103 251t250 104h172q596 0 596 -473q0 -156 -71.5 -258t-197.5 -152q389 -549 394 -551h-416l-326 496h-155v-496h-349zM492 797h190q219 0 219 164q0 88 -56.5 126.5t-176.5 38.5h-148q-11 0 -19.5 -8t-8.5 -20v-301zM494 -489l104 387l215 2 l-166 -389h-153z" />
<glyph unicode="&#x157;" horiz-adv-x="819" d="M68 -489l104 387l215 2l-166 -389h-153zM123 0v1073h319v-82h9q124 103 327 103v-312h-35q-66 25 -146 10t-146 -73v-719h-328z" />
<glyph unicode="&#x158;" horiz-adv-x="1429" d="M143 0v1079q0 147 103 251t250 104h172q596 0 596 -473q0 -156 -71.5 -258t-197.5 -152q389 -549 394 -551h-416l-326 496h-155v-496h-349zM420 1843h172l100 -139l103 139h172l-181 -309h-188zM492 797h190q219 0 219 164q0 88 -56.5 126.5t-176.5 38.5h-148 q-11 0 -19.5 -8t-8.5 -20v-301z" />
<glyph unicode="&#x159;" horiz-adv-x="819" d="M123 0h328v719q66 58 146 73t146 -10h35v312q-203 0 -327 -103h-9v82h-319v-1073zM176 1483h172l101 -140l102 140h172l-180 -309h-189z" />
<glyph unicode="&#x15a;" horiz-adv-x="1204" d="M61 57v305h39q86 -43 194 -67.5t200 -26.5q76 -1 139.5 12t105 43.5t41.5 73.5q0 30 -13.5 53.5t-42.5 42t-52.5 29t-63.5 25.5q-113 43 -266 110q-116 51 -180 150.5t-64 230.5q0 109 42.5 191.5t116 131t163 72t192.5 23.5q117 0 207 -18t213 -62v-305h-39 q-42 31 -140.5 63.5t-195.5 32.5q-217 0 -217 -102q0 -26 11 -46.5t32 -35.5t38 -23.5t44 -19.5q7 -3 10 -4l273 -113q120 -45 197 -142.5t77 -227.5q0 -123 -49.5 -217t-136 -149t-194.5 -82.5t-234 -27.5q-243 0 -447 80zM524 1534l178 309h222l-228 -309h-172z" />
<glyph unicode="&#x15b;" horiz-adv-x="989" d="M61 37v254h35q62 -28 158.5 -45t175.5 -17q26 0 53.5 3t57 10.5t48.5 22t19 34.5q0 46 -104 82l-197 74q-66 25 -110.5 61t-66.5 78.5t-30 82t-8 87.5q0 106 57 182.5t147 112t202 35.5q97 0 169 -12t179 -44v-254h-35q-50 28 -129.5 43t-144.5 15q-125 0 -125 -49 q0 -32 82 -62l202 -76q232 -87 232 -313q0 -76 -29.5 -138.5t-78.5 -103.5t-113 -69.5t-131 -41t-136 -12.5q-176 0 -379 60zM418 1174l178 309h221l-227 -309h-172z" />
<glyph unicode="&#x15c;" horiz-adv-x="1204" d="M61 57v305h39q86 -43 194 -67.5t200 -26.5q76 -1 139.5 12t105 43.5t41.5 73.5q0 30 -13.5 53.5t-42.5 42t-52.5 29t-63.5 25.5q-113 43 -266 110q-116 51 -180 150.5t-64 230.5q0 109 42.5 191.5t116 131t163 72t192.5 23.5q117 0 207 -18t213 -62v-305h-39 q-42 31 -140.5 63.5t-195.5 32.5q-217 0 -217 -102q0 -26 11 -46.5t32 -35.5t38 -23.5t44 -19.5q7 -3 10 -4l273 -113q120 -45 197 -142.5t77 -227.5q0 -123 -49.5 -217t-136 -149t-194.5 -82.5t-234 -27.5q-243 0 -447 80zM348 1534l178 309h189l180 -309h-172l-102 139 l-101 -139h-172z" />
<glyph unicode="&#x15d;" horiz-adv-x="989" d="M61 37v254h35q62 -28 158.5 -45t175.5 -17q26 0 53.5 3t57 10.5t48.5 22t19 34.5q0 46 -104 82l-197 74q-66 25 -110.5 61t-66.5 78.5t-30 82t-8 87.5q0 106 57 182.5t147 112t202 35.5q97 0 169 -12t179 -44v-254h-35q-50 28 -129.5 43t-144.5 15q-125 0 -125 -49 q0 -32 82 -62l202 -76q232 -87 232 -313q0 -76 -29.5 -138.5t-78.5 -103.5t-113 -69.5t-131 -41t-136 -12.5q-176 0 -379 60zM242 1174l178 309h188l180 -309h-172l-102 139l-100 -139h-172z" />
<glyph unicode="&#x15e;" horiz-adv-x="1204" d="M61 57v305h39q86 -43 194 -67.5t200 -26.5q76 -1 139.5 12t105 43.5t41.5 73.5q0 30 -13.5 53.5t-42.5 42t-52.5 29t-63.5 25.5q-113 43 -266 110q-116 51 -180 150.5t-64 230.5q0 109 42.5 191.5t116 131t163 72t192.5 23.5q117 0 207 -18t213 -62v-305h-39 q-42 31 -140.5 63.5t-195.5 32.5q-217 0 -217 -102q0 -26 11 -46.5t32 -35.5t38 -23.5t44 -19.5q7 -3 10 -4l273 -113q120 -45 197 -142.5t77 -227.5q0 -112 -41 -199.5t-114 -143t-165 -87.5t-202 -41l-6 -39q97 -16 154 -58.5t57 -132.5q0 -113 -78.5 -178.5t-187.5 -65.5 q-136 0 -265 97l111 139q86 -55 150 -55q33 0 55 16.5t22 48.5q0 48 -73 74.5t-146 26.5l23 127q-195 10 -355 75z" />
<glyph unicode="&#x15f;" horiz-adv-x="989" d="M61 37v254h35q62 -28 158.5 -45t175.5 -17q26 0 53.5 3t57 10.5t48.5 22t19 34.5q0 46 -104 82l-197 74q-66 25 -110.5 61t-66.5 78.5t-30 82t-8 87.5q0 106 57 182.5t147 112t202 35.5q97 0 169 -12t179 -44v-254h-35q-50 28 -129.5 43t-144.5 15q-125 0 -125 -49 q0 -32 82 -62l202 -76q232 -87 232 -313q0 -84 -35.5 -151t-96 -109.5t-131.5 -67t-151 -32.5l-6 -39q97 -16 154 -58.5t57 -132.5q0 -113 -78.5 -178.5t-187.5 -65.5q-136 0 -265 97l111 139q86 -55 150 -55q33 0 55 16.5t22 48.5q0 48 -73 74.5t-146 26.5l23 129 q-157 18 -269 53z" />
<glyph unicode="&#x160;" horiz-adv-x="1204" d="M61 57v305h39q86 -43 194 -67.5t200 -26.5q76 -1 139.5 12t105 43.5t41.5 73.5q0 30 -13.5 53.5t-42.5 42t-52.5 29t-63.5 25.5q-113 43 -266 110q-116 51 -180 150.5t-64 230.5q0 109 42.5 191.5t116 131t163 72t192.5 23.5q117 0 207 -18t213 -62v-305h-39 q-42 31 -140.5 63.5t-195.5 32.5q-217 0 -217 -102q0 -26 11 -46.5t32 -35.5t38 -23.5t44 -19.5q7 -3 10 -4l273 -113q120 -45 197 -142.5t77 -227.5q0 -123 -49.5 -217t-136 -149t-194.5 -82.5t-234 -27.5q-243 0 -447 80zM348 1843h172l101 -139l102 139h172l-180 -309 h-189z" />
<glyph unicode="&#x161;" horiz-adv-x="989" d="M61 37v254h35q62 -28 158.5 -45t175.5 -17q26 0 53.5 3t57 10.5t48.5 22t19 34.5q0 46 -104 82l-197 74q-66 25 -110.5 61t-66.5 78.5t-30 82t-8 87.5q0 106 57 182.5t147 112t202 35.5q97 0 169 -12t179 -44v-254h-35q-50 28 -129.5 43t-144.5 15q-125 0 -125 -49 q0 -32 82 -62l202 -76q232 -87 232 -313q0 -76 -29.5 -138.5t-78.5 -103.5t-113 -69.5t-131 -41t-136 -12.5q-176 0 -379 60zM242 1483h172l100 -140l102 140h172l-180 -309h-188z" />
<glyph unicode="&#x162;" horiz-adv-x="1118" d="M20 1126v308h1078v-308h-365v-1126h-348v1126h-365zM336 -489l104 387l215 2l-166 -389h-153z" />
<glyph unicode="&#x163;" horiz-adv-x="788" d="M20 807v266h111v238h328v-238h250v-266h-250v-461q0 -56 34 -84.5t82 -28.5q93 0 158 43h35v-258q-134 -41 -248 -41q-188 0 -288.5 87.5t-100.5 285.5v457h-111zM274 -489l105 387l215 2l-166 -389h-154z" />
<glyph unicode="&#x164;" horiz-adv-x="1118" d="M20 1126v308h1078v-308h-365v-1126h-348v1126h-365zM285 1843h172l100 -139l102 139h172l-180 -309h-188z" />
<glyph unicode="&#x165;" horiz-adv-x="1034" d="M20 807v266h111v238h328v-238h250v-266h-250v-461q0 -56 34 -84.5t82 -28.5q93 0 158 43h35v-258q-134 -41 -248 -41q-188 0 -288.5 87.5t-100.5 285.5v457h-111zM809 977l141 526h267l-228 -526h-180z" />
<glyph unicode="&#x166;" horiz-adv-x="1118" d="M20 1126v308h1078v-308h-365v-204h275v-179h-275v-743h-348v743h-276v179h276v204h-365z" />
<glyph unicode="&#x167;" horiz-adv-x="808" d="M20 500v186h111v121h-111v266h111v238h328v-238h250v-266h-250v-121h250v-186h-250v-158q0 -56 34 -84.5t82 -28.5q93 0 158 43h35v-254q-134 -41 -248 -41q-188 0 -288.5 87.5t-100.5 285.5v150h-111z" />
<glyph unicode="&#x168;" horiz-adv-x="1433" d="M143 582v852h349v-906q0 -134 54.5 -198t176.5 -64q119 0 175 62t56 198v908h336v-852q0 -605 -567 -605q-298 0 -439 148t-141 457zM342 1628q51 84 108.5 129t145.5 45q61 0 133 -35q10 -5 36 -22t46 -25t41 -6q17 1 29.5 6.5t23.5 20t15 21t16 28.5l154 -82 q-49 -85 -104 -129.5t-142 -44.5q-74 0 -139 35q-9 5 -27.5 16.5t-30.5 18t-30.5 12.5t-34.5 6q-10 0 -18.5 -2t-16 -7.5t-12.5 -8.5t-12 -13t-9.5 -13.5t-10.5 -16.5t-9 -15z" />
<glyph unicode="&#x169;" d="M123 383v690h328v-694q0 -61 38.5 -103.5t104.5 -42.5q45 0 105 18.5t92 39.5v782h327v-1073h-319v66h-6q-51 -39 -129 -64t-127 -25q-188 0 -301 111t-113 295zM246 1268q51 84 108.5 129t145.5 45q61 0 133 -35q10 -5 36 -22t46 -25t41 -6q17 1 29.5 6.5t23.5 20t15 21 t16 28.5l153 -82q-49 -86 -103.5 -130t-141.5 -44q-76 0 -140 34q-9 5 -27.5 16.5t-31 18.5t-30.5 13t-34 6q-10 0 -18.5 -2t-16 -7.5t-12.5 -8.5t-12 -13t-9.5 -13.5t-10.5 -16.5t-9 -15z" />
<glyph unicode="&#x16a;" horiz-adv-x="1433" d="M143 582v852h349v-906q0 -134 54.5 -198t176.5 -64q119 0 175 62t56 198v908h336v-852q0 -605 -567 -605q-298 0 -439 148t-141 457zM360 1595v138h713v-138h-713z" />
<glyph unicode="&#x16b;" d="M123 383v690h328v-694q0 -61 38.5 -103.5t104.5 -42.5q45 0 105 18.5t92 39.5v782h327v-1073h-319v66h-6q-51 -39 -129 -64t-127 -25q-188 0 -301 111t-113 295zM264 1235v137h713v-137h-713z" />
<glyph unicode="&#x16c;" horiz-adv-x="1433" d="M143 582v852h349v-906q0 -134 54.5 -198t176.5 -64q119 0 175 62t56 198v908h336v-852q0 -605 -567 -605q-298 0 -439 148t-141 457zM387 1800h154q24 -49 68.5 -66.5t107.5 -17.5q128 0 172 84h155q-37 -129 -115 -196.5t-212 -67.5q-135 0 -213 67t-117 197z" />
<glyph unicode="&#x16d;" d="M123 383v690h328v-694q0 -61 38.5 -103.5t104.5 -42.5q45 0 105 18.5t92 39.5v782h327v-1073h-319v66h-6q-51 -39 -129 -64t-127 -25q-188 0 -301 111t-113 295zM291 1440h153q41 -84 177 -84q128 0 172 84h155q-37 -129 -115 -196.5t-212 -67.5q-135 0 -213 67t-117 197 z" />
<glyph unicode="&#x16e;" horiz-adv-x="1433" d="M143 582v852h349v-906q0 -134 54.5 -198t176.5 -64q119 0 175 62t56 198v908h336v-852q0 -605 -567 -605q-298 0 -439 148t-141 457zM520 1688q0 82 58 139t141 57q79 0 136.5 -57.5t57.5 -138.5q0 -79 -58 -137t-136 -58q-83 0 -141 57.5t-58 137.5zM629 1688 q0 -36 26 -61t64 -25q35 0 59.5 25.5t24.5 60.5q0 37 -24.5 61.5t-59.5 24.5q-38 0 -64 -24.5t-26 -61.5z" />
<glyph unicode="&#x16f;" d="M123 383v690h328v-694q0 -61 38.5 -103.5t104.5 -42.5q45 0 105 18.5t92 39.5v782h327v-1073h-319v66h-6q-51 -39 -129 -64t-127 -25q-188 0 -301 111t-113 295zM424 1327q0 82 58 139.5t141 57.5q79 0 136.5 -58t57.5 -139q0 -79 -58 -136.5t-136 -57.5q-83 0 -141 57 t-58 137zM532 1327q0 -35 26.5 -60.5t64.5 -25.5q35 0 59.5 25.5t24.5 60.5q0 37 -24.5 61.5t-59.5 24.5q-38 0 -64.5 -24.5t-26.5 -61.5z" />
<glyph unicode="&#x170;" horiz-adv-x="1433" d="M143 582v852h349v-906q0 -134 54.5 -198t176.5 -64q119 0 175 62t56 198v908h336v-852q0 -605 -567 -605q-298 0 -439 148t-141 457zM389 1534l178 309h221l-227 -309h-172zM809 1534l178 309h221l-227 -309h-172z" />
<glyph unicode="&#x171;" d="M123 383v690h328v-694q0 -61 38.5 -103.5t104.5 -42.5q45 0 105 18.5t92 39.5v782h327v-1073h-319v66h-6q-51 -39 -129 -64t-127 -25q-188 0 -301 111t-113 295zM293 1174l178 309h221l-227 -309h-172zM713 1174l178 309h221l-227 -309h-172z" />
<glyph unicode="&#x172;" horiz-adv-x="1433" d="M143 582v852h349v-906q0 -134 54.5 -198t176.5 -64q119 0 175 62t56 198v908h336v-852q0 -565 -493 -602q-58 -74 -58 -146q0 -137 203 -137v-191q-55 2 -107.5 9.5t-111.5 25.5t-102.5 44.5t-72 71.5t-28.5 101q0 105 86 226q-237 26 -350 173t-113 425z" />
<glyph unicode="&#x173;" d="M123 383v690h328v-694q0 -61 38.5 -103.5t104.5 -42.5q45 0 105 18.5t92 39.5v782h327v-1073h-129q-74 -87 -74 -166q0 -137 203 -137v-191q-55 2 -107.5 9.5t-111.5 25.5t-102.5 44.5t-72 71.5t-28.5 101q0 115 103 246v62h-6q-51 -39 -129 -64t-127 -25 q-188 0 -301 111t-113 295z" />
<glyph unicode="&#x174;" horiz-adv-x="1927" d="M20 1434l326 -1289q19 -70 86 -116.5t146 -46.5q81 0 147 43t86 133l147 649h9l149 -649q22 -90 87.5 -133t146.5 -43q79 0 145.5 46.5t85.5 116.5l326 1289h-367l-197 -895h-8l-211 895h-321l-211 -897h-8l-197 897h-367zM690 1534l178 309h189l180 -309h-172l-102 139 l-101 -139h-172z" />
<glyph unicode="&#x175;" horiz-adv-x="1611" d="M20 1073l267 -952q17 -59 74 -98t122 -39q72 0 133.5 38t75.5 101l109 469h8l111 -469q14 -63 75.5 -101t132.5 -38q66 0 123 39t74 98l266 952h-344l-143 -653h-8l-156 653h-268l-156 -653h-8l-143 653h-345zM532 1174l179 309h188l180 -309h-172l-102 139l-100 -139 h-173z" />
<glyph unicode="&#x176;" horiz-adv-x="1327" d="M20 1434h388l262 -557h10l266 557h361l-457 -912v-522h-348v522zM389 1534l178 309h189l180 -309h-172l-102 139l-101 -139h-172z" />
<glyph unicode="&#x177;" horiz-adv-x="1189" d="M20 1073h355l250 -635h10l229 635h305l-469 -1296q-50 -139 -162 -204t-266 -65h-112v267h108q82 0 111.5 20t46.5 68l51 141zM322 1174l178 309h188l180 -309h-172l-102 139l-100 -139h-172z" />
<glyph unicode="&#x178;" horiz-adv-x="1327" d="M20 1434h388l262 -557h10l266 557h361l-457 -912v-522h-348v522zM332 1561v256h260v-256h-260zM735 1561v256h258v-256h-258z" />
<glyph unicode="&#x179;" horiz-adv-x="1196" d="M41 0v213l659 905v8h-614v308h821q124 0 195 -76q49 -54 52 -136.5t-42 -140.5l-565 -766v-8h602v-307h-1108zM459 1534l178 309h221l-227 -309h-172z" />
<glyph unicode="&#x17a;" horiz-adv-x="958" d="M31 0v188l456 613v8h-428v264h686q56 0 100 -25.5t64.5 -64.5t15.5 -89.5t-40 -98.5l-391 -523v-8h432v-264h-895zM360 1174l179 309h221l-228 -309h-172z" />
<glyph unicode="&#x17b;" horiz-adv-x="1196" d="M41 0v213l659 905v8h-614v308h821q124 0 195 -76q49 -54 52 -136.5t-42 -140.5l-565 -766v-8h602v-307h-1108zM467 1561v256h260v-256h-260z" />
<glyph unicode="&#x17c;" horiz-adv-x="958" d="M31 0v188l456 613v8h-428v264h686q56 0 100 -25.5t64.5 -64.5t15.5 -89.5t-40 -98.5l-391 -523v-8h432v-264h-895zM348 1200v256h260v-256h-260z" />
<glyph unicode="&#x17d;" horiz-adv-x="1196" d="M41 0v213l659 905v8h-614v308h821q124 0 195 -76q49 -54 52 -136.5t-42 -140.5l-565 -766v-8h602v-307h-1108zM324 1843h172l100 -139l102 139h172l-180 -309h-188z" />
<glyph unicode="&#x17e;" horiz-adv-x="958" d="M31 0v188l456 613v8h-428v264h686q56 0 100 -25.5t64.5 -64.5t15.5 -89.5t-40 -98.5l-391 -523v-8h432v-264h-895zM205 1483h172l100 -140l103 140h172l-181 -309h-188z" />
<glyph unicode="&#x192;" horiz-adv-x="1251" d="M0 -492l55 263h86q97 0 150.5 40t73.5 136l143 727h-219l43 205h215l41 190q90 432 565 432h98l-57 -266h-80q-52 0 -85 -6.5t-62 -27t-47.5 -60t-30.5 -103.5l-31 -159h215l-41 -205h-219l-147 -758q-40 -208 -188.5 -308t-381.5 -100h-96z" />
<glyph unicode="&#x218;" horiz-adv-x="1204" d="M61 57v305h39q86 -43 194 -67.5t200 -26.5q76 -1 139.5 12t105 43.5t41.5 73.5q0 30 -13.5 53.5t-42.5 42t-52.5 29t-63.5 25.5q-113 43 -266 110q-116 51 -180 150.5t-64 230.5q0 109 42.5 191.5t116 131t163 72t192.5 23.5q117 0 207 -18t213 -62v-305h-39 q-42 31 -140.5 63.5t-195.5 32.5q-217 0 -217 -102q0 -26 11 -46.5t32 -35.5t38 -23.5t44 -19.5q7 -3 10 -4l273 -113q120 -45 197 -142.5t77 -227.5q0 -123 -49.5 -217t-136 -149t-194.5 -82.5t-234 -27.5q-243 0 -447 80zM334 -489l104 387l215 2l-166 -389h-153z" />
<glyph unicode="&#x219;" horiz-adv-x="989" d="M61 37v254h35q62 -28 158.5 -45t175.5 -17q26 0 53.5 3t57 10.5t48.5 22t19 34.5q0 46 -104 82l-197 74q-66 25 -110.5 61t-66.5 78.5t-30 82t-8 87.5q0 106 57 182.5t147 112t202 35.5q97 0 169 -12t179 -44v-254h-35q-50 28 -129.5 43t-144.5 15q-125 0 -125 -49 q0 -32 82 -62l202 -76q232 -87 232 -313q0 -76 -29.5 -138.5t-78.5 -103.5t-113 -69.5t-131 -41t-136 -12.5q-176 0 -379 60zM252 -489l104 387l215 2l-165 -389h-154z" />
<glyph unicode="&#x21a;" horiz-adv-x="1118" d="M20 1126v308h1078v-308h-365v-1126h-348v1126h-365zM336 -489l104 387l215 2l-166 -389h-153z" />
<glyph unicode="&#x21b;" horiz-adv-x="788" d="M20 807v266h111v238h328v-238h250v-266h-250v-461q0 -56 34 -84.5t82 -28.5q93 0 158 43h35v-258q-134 -41 -248 -41q-188 0 -288.5 87.5t-100.5 285.5v457h-111zM274 -489l105 387l215 2l-166 -389h-154z" />
<glyph unicode="&#x2c6;" horiz-adv-x="792" d="M123 1174l178 309h188l181 -309h-172l-103 139l-100 -139h-172z" />
<glyph unicode="&#x2c7;" horiz-adv-x="792" d="M123 1483h172l100 -140l103 140h172l-181 -309h-188z" />
<glyph unicode="&#x2d8;" horiz-adv-x="903" d="M123 1440h153q41 -84 177 -84q128 0 172 84h155q-37 -129 -115 -196.5t-212 -67.5q-135 0 -213 67t-117 197z" />
<glyph unicode="&#x2d9;" horiz-adv-x="505" d="M123 1200v256h260v-256h-260z" />
<glyph unicode="&#x2da;" horiz-adv-x="638" d="M123 1327q0 82 58 139.5t141 57.5q79 0 136.5 -58t57.5 -139q0 -79 -58 -136.5t-136 -57.5q-83 0 -141 57t-58 137zM231 1327q0 -35 26.5 -60.5t64.5 -25.5q35 0 59.5 25.5t24.5 60.5q0 37 -24.5 61.5t-59.5 24.5q-38 0 -64.5 -24.5t-26.5 -61.5z" />
<glyph unicode="&#x2db;" horiz-adv-x="667" d="M123 -242q0 87 46.5 164t123.5 160h207q-70 -54 -114 -122t-44 -126q0 -137 203 -137v-191q-55 2 -107.5 9.5t-111.5 25.5t-102.5 44.5t-72 71.5t-28.5 101z" />
<glyph unicode="&#x2dc;" horiz-adv-x="993" d="M123 1268q51 84 108.5 129t145.5 45q61 0 133 -35q10 -5 36 -22t46 -25t41 -6q17 1 29.5 6.5t23.5 20t15 21t16 28.5l153 -82q-49 -86 -103.5 -130t-141.5 -44q-76 0 -140 34q-9 5 -27.5 16.5t-31 18.5t-30.5 13t-34 6q-10 0 -18.5 -2t-16 -7.5t-12.5 -8.5t-12 -13 t-9.5 -13.5t-10.5 -16.5t-9 -15z" />
<glyph unicode="&#x2dd;" horiz-adv-x="1064" d="M123 1174l178 309h221l-227 -309h-172zM543 1174l178 309h221l-227 -309h-172z" />
<glyph unicode="&#x3c0;" horiz-adv-x="1357" d="M123 807v266h1112v-266h-143v-807h-328v807h-170v-807h-328v807h-143z" />
<glyph unicode="&#x1e02;" horiz-adv-x="1351" d="M143 0v1081q0 149 94 251t240 102h225q65 0 125.5 -7.5t123.5 -24.5t115 -47.5t93.5 -72t64.5 -102.5t23 -136q0 -97 -59.5 -166.5t-157.5 -105.5v-8q115 -31 198 -116t83 -206q0 -442 -596 -442h-572zM492 293h229q37 0 64.5 2.5t60.5 12.5t53.5 27.5t34.5 50t14 77.5 q0 32 -9.5 57t-22.5 41t-37 27t-41.5 16.5t-49 8t-47.5 3t-47 0.5h-202v-323zM492 889h200q100 0 147.5 26.5t47.5 108.5q0 58 -52 87.5t-143 29.5h-168q-12 0 -22 -11.5t-10 -25.5v-215zM545 1561v256h260v-256h-260z" />
<glyph unicode="&#x1e03;" horiz-adv-x="1220" d="M123 293v1208h328v-452h6q34 20 88.5 32.5t89.5 12.5q233 0 368.5 -154t135.5 -397q0 -264 -140.5 -415t-414.5 -151h-144q-132 0 -224.5 92.5t-92.5 223.5zM451 311q0 -34 21 -56t52 -22h45q59 0 102 17.5t67.5 45.5t39 71.5t19 86t4.5 99.5q0 55 -9.5 101.5t-31 90 t-65.5 68.5t-105 25q-60 0 -139 -23v-504zM582 1200v256h260v-256h-260z" />
<glyph unicode="&#x1e0a;" horiz-adv-x="1515" d="M143 0v1096q0 139 99 238.5t237 99.5h230q328 0 516 -185.5t188 -531.5q0 -344 -190 -530.5t-514 -186.5h-566zM492 307h217q165 0 253.5 96t88.5 312q0 411 -342 411h-189q-11 0 -19.5 -8t-8.5 -18v-793zM606 1561v256h260v-256h-260z" />
<glyph unicode="&#x1e0b;" horiz-adv-x="1220" d="M82 543q0 243 135.5 397t368.5 154q35 0 89.5 -12.5t88.5 -32.5h6v452h328v-1208q0 -131 -93 -223.5t-225 -92.5h-143q-274 0 -414.5 151t-140.5 415zM377 1200v256h260v-256h-260zM420 553q0 -57 4.5 -99.5t18.5 -86t38.5 -71.5t67.5 -45.5t102 -17.5h45q31 0 52.5 22.5 t21.5 55.5v504q-79 23 -139 23q-61 0 -105 -25t-65.5 -68.5t-31 -90t-9.5 -101.5z" />
<glyph unicode="&#x1e1e;" horiz-adv-x="1173" d="M143 0v1081q0 146 104.5 249.5t250.5 103.5h655v-308h-631q-13 0 -21.5 -7.5t-8.5 -18.5v-238h485v-303h-485v-559h-349zM559 1561v256h260v-256h-260z" />
<glyph unicode="&#x1e1f;" horiz-adv-x="815" d="M41 807v266h109v53q0 187 101 281t298 94q61 0 112 -11.5t123 -37.5v-254h-34q-61 47 -148 47q-49 0 -87 -33t-38 -92v-47h248v-266h-248v-807h-327v807h-109zM350 1561v256h260v-256h-260z" />
<glyph unicode="&#x1e40;" horiz-adv-x="1884" d="M133 0h352l39 870h6l215 -870h394l215 870h6l39 -870h352l-70 1212q-7 116 -80.5 176t-177.5 62q-234 0 -278 -186l-199 -834h-8l-199 834q-44 186 -278 186q-104 -2 -177.5 -62t-80.5 -176zM811 1561v256h260v-256h-260z" />
<glyph unicode="&#x1e41;" horiz-adv-x="1746" d="M123 0v1073h323v-82q51 49 140.5 76t150.5 27q81 0 154 -34t115 -93q62 66 154.5 96.5t162.5 30.5q93 0 163.5 -55t104 -133.5t33.5 -162.5v-743h-328v692q0 62 -27 104t-79 42q-29 0 -77 -21t-75 -43v-774h-325v688q0 65 -25 107.5t-76 42.5q-29 0 -82 -22.5t-79 -43.5 v-772h-328zM743 1200v256h261v-256h-261z" />
<glyph unicode="&#x1e56;" horiz-adv-x="1325" d="M143 0v1079q0 147 103 251t250 104h172q596 0 596 -473q0 -126 -47 -219t-130.5 -147t-188 -80t-230.5 -26h-176v-489h-349zM492 797h190q219 0 219 164q0 88 -56.5 126.5t-176.5 38.5h-148q-11 0 -19.5 -8t-8.5 -20v-301zM553 1561v256h260v-256h-260z" />
<glyph unicode="&#x1e57;" horiz-adv-x="1220" d="M123 -492h328v515h6q34 -20 88.5 -33t89.5 -13q233 0 368.5 154t135.5 397q0 264 -140.5 415t-414.5 151h-144q-132 0 -224.5 -92.5t-92.5 -223.5v-1270zM451 256v504q0 34 21 56t52 22h45q59 0 102 -17.5t67.5 -45.5t39 -71.5t19 -86t4.5 -99.5q0 -55 -9.5 -101.5 t-31 -90t-65.5 -68.5t-105 -25q-60 0 -139 23zM479 1200v256h260v-256h-260z" />
<glyph unicode="&#x1e60;" horiz-adv-x="1204" d="M61 57v305h39q86 -43 194 -67.5t200 -26.5q76 -1 139.5 12t105 43.5t41.5 73.5q0 30 -13.5 53.5t-42.5 42t-52.5 29t-63.5 25.5q-113 43 -266 110q-116 51 -180 150.5t-64 230.5q0 109 42.5 191.5t116 131t163 72t192.5 23.5q117 0 207 -18t213 -62v-305h-39 q-42 31 -140.5 63.5t-195.5 32.5q-217 0 -217 -102q0 -26 11 -46.5t32 -35.5t38 -23.5t44 -19.5q7 -3 10 -4l273 -113q120 -45 197 -142.5t77 -227.5q0 -123 -49.5 -217t-136 -149t-194.5 -82.5t-234 -27.5q-243 0 -447 80zM492 1561v256h260v-256h-260z" />
<glyph unicode="&#x1e61;" horiz-adv-x="989" d="M61 37v254h35q62 -28 158.5 -45t175.5 -17q26 0 53.5 3t57 10.5t48.5 22t19 34.5q0 46 -104 82l-197 74q-66 25 -110.5 61t-66.5 78.5t-30 82t-8 87.5q0 106 57 182.5t147 112t202 35.5q97 0 169 -12t179 -44v-254h-35q-50 28 -129.5 43t-144.5 15q-125 0 -125 -49 q0 -32 82 -62l202 -76q232 -87 232 -313q0 -76 -29.5 -138.5t-78.5 -103.5t-113 -69.5t-131 -41t-136 -12.5q-176 0 -379 60zM385 1200v256h260v-256h-260z" />
<glyph unicode="&#x1e6a;" horiz-adv-x="1118" d="M20 1126v308h1078v-308h-365v-1126h-348v1126h-365zM428 1561v256h260v-256h-260z" />
<glyph unicode="&#x1e6b;" horiz-adv-x="788" d="M20 807v266h111v238h328v-238h250v-266h-250v-461q0 -56 34 -84.5t82 -28.5q93 0 158 43h35v-258q-134 -41 -248 -41q-188 0 -288.5 87.5t-100.5 285.5v457h-111zM162 1561v256h260v-256h-260z" />
<glyph unicode="&#x1e80;" horiz-adv-x="1927" d="M20 1434l326 -1289q19 -70 86 -116.5t146 -46.5q81 0 147 43t86 133l147 649h9l149 -649q22 -90 87.5 -133t146.5 -43q79 0 145.5 46.5t85.5 116.5l326 1289h-367l-197 -895h-8l-211 895h-321l-211 -897h-8l-197 897h-367zM653 1843h221l179 -309h-172z" />
<glyph unicode="&#x1e81;" horiz-adv-x="1611" d="M20 1073l267 -952q17 -59 74 -98t122 -39q72 0 133.5 38t75.5 101l109 469h8l111 -469q14 -63 75.5 -101t132.5 -38q66 0 123 39t74 98l266 952h-344l-143 -653h-8l-156 653h-268l-156 -653h-8l-143 653h-345zM485 1483h222l178 -309h-172z" />
<glyph unicode="&#x1e82;" horiz-adv-x="1927" d="M20 1434l326 -1289q19 -70 86 -116.5t146 -46.5q81 0 147 43t86 133l147 649h9l149 -649q22 -90 87.5 -133t146.5 -43q79 0 145.5 46.5t85.5 116.5l326 1289h-367l-197 -895h-8l-211 895h-321l-211 -897h-8l-197 897h-367zM887 1534l178 309h221l-227 -309h-172z" />
<glyph unicode="&#x1e83;" horiz-adv-x="1611" d="M20 1073l267 -952q17 -59 74 -98t122 -39q72 0 133.5 38t75.5 101l109 469h8l111 -469q14 -63 75.5 -101t132.5 -38q66 0 123 39t74 98l266 952h-344l-143 -653h-8l-156 653h-268l-156 -653h-8l-143 653h-345zM729 1174l178 309h221l-227 -309h-172z" />
<glyph unicode="&#x1e84;" horiz-adv-x="1927" d="M20 1434l326 -1289q19 -70 86 -116.5t146 -46.5q81 0 147 43t86 133l147 649h9l149 -649q22 -90 87.5 -133t146.5 -43q79 0 145.5 46.5t85.5 116.5l326 1289h-367l-197 -895h-8l-211 895h-321l-211 -897h-8l-197 897h-367zM633 1561v256h260v-256h-260zM1036 1561v256 h258v-256h-258z" />
<glyph unicode="&#x1e85;" horiz-adv-x="1611" d="M20 1073l267 -952q17 -59 74 -98t122 -39q72 0 133.5 38t75.5 101l109 469h8l111 -469q14 -63 75.5 -101t132.5 -38q66 0 123 39t74 98l266 952h-344l-143 -653h-8l-156 653h-268l-156 -653h-8l-143 653h-345zM475 1200v256h260v-256h-260zM879 1200v256h258v-256h-258z " />
<glyph unicode="&#x1ef2;" horiz-adv-x="1327" d="M20 1434h388l262 -557h10l266 557h361l-457 -912v-522h-348v522zM373 1843h221l178 -309h-172z" />
<glyph unicode="&#x1ef3;" horiz-adv-x="1189" d="M20 1073h355l250 -635h10l229 635h305l-469 -1296q-50 -139 -162 -204t-266 -65h-112v267h108q82 0 111.5 20t46.5 68l51 141zM305 1483h221l179 -309h-173z" />
<glyph unicode="&#x2000;" horiz-adv-x="942" />
<glyph unicode="&#x2001;" horiz-adv-x="1884" />
<glyph unicode="&#x2002;" horiz-adv-x="942" />
<glyph unicode="&#x2003;" horiz-adv-x="1884" />
<glyph unicode="&#x2004;" horiz-adv-x="628" />
<glyph unicode="&#x2005;" horiz-adv-x="471" />
<glyph unicode="&#x2006;" horiz-adv-x="314" />
<glyph unicode="&#x2007;" horiz-adv-x="314" />
<glyph unicode="&#x2008;" horiz-adv-x="235" />
<glyph unicode="&#x2009;" horiz-adv-x="376" />
<glyph unicode="&#x200a;" horiz-adv-x="104" />
<glyph unicode="&#x2010;" horiz-adv-x="964" d="M123 428v229h719v-229h-719z" />
<glyph unicode="&#x2011;" horiz-adv-x="964" d="M123 428v229h719v-229h-719z" />
<glyph unicode="&#x2012;" horiz-adv-x="964" d="M123 428v229h719v-229h-719z" />
<glyph unicode="&#x2013;" horiz-adv-x="1280" d="M123 422v223h1034v-223h-1034z" />
<glyph unicode="&#x2014;" horiz-adv-x="2238" d="M123 422v223h1993v-223h-1993z" />
<glyph unicode="&#x2018;" horiz-adv-x="653" d="M123 977l227 526h180l-141 -526h-266z" />
<glyph unicode="&#x2019;" horiz-adv-x="653" d="M123 977l141 526h266l-227 -526h-180z" />
<glyph unicode="&#x201a;" horiz-adv-x="653" d="M123 -242l141 527h266l-227 -527h-180z" />
<glyph unicode="&#x201c;" horiz-adv-x="1099" d="M123 977l227 526h180l-141 -526h-266zM569 977l228 526h180l-141 -526h-267z" />
<glyph unicode="&#x201d;" horiz-adv-x="1099" d="M123 977l141 526h266l-227 -526h-180zM569 977l142 526h266l-227 -526h-181z" />
<glyph unicode="&#x201e;" horiz-adv-x="1099" d="M123 -242l141 527h266l-227 -527h-180zM569 -242l142 527h266l-227 -527h-181z" />
<glyph unicode="&#x2020;" horiz-adv-x="1251" d="M123 6v234h397v589h-397v236h397v369h246v-369h362v-236h-362v-589h362v-234h-362v-498h-246v498h-397z" />
<glyph unicode="&#x2021;" horiz-adv-x="1251" d="M123 6v234h397v589h-397v236h397v369h246v-369h362v-236h-362v-589h362v-234h-362v-498h-246v498h-397z" />
<glyph unicode="&#x2022;" horiz-adv-x="630" d="M123 713q0 80 55.5 136t134.5 56q80 0 137.5 -56.5t57.5 -135.5t-58 -137t-137 -58t-134.5 57.5t-55.5 137.5z" />
<glyph unicode="&#x2026;" horiz-adv-x="2052" d="M123 0v272h274v-272h-274zM889 0v272h274v-272h-274zM1655 0v272h274v-272h-274z" />
<glyph unicode="&#x202f;" horiz-adv-x="376" />
<glyph unicode="&#x2030;" horiz-adv-x="2293" d="M123 1090q0 167 81 266.5t218 99.5t218 -100.5t81 -265.5t-81 -265t-218 -100t-218 100t-81 265zM287 1087q0 -85 36 -146.5t99 -61.5t99 61.5t36 146.5t-36 147t-99 62t-99 -62t-36 -147zM332 -27l794 1491h168l-794 -1491h-168zM905 342q0 167 81 267t218 100t218 -101 t81 -266t-81 -265t-218 -100t-218 100t-81 265zM1069 340q0 -85 36 -147t99 -62t99 62t36 147t-36 147t-99 62t-99 -62t-36 -147zM1573 342q0 167 81 267t218 100t218 -101t81 -266t-81 -265t-218 -100t-218 100t-81 265zM1737 340q0 -85 36 -147t99 -62t99 62t36 147 t-36 147t-99 62t-99 -62t-36 -147z" />
<glyph unicode="&#x2039;" horiz-adv-x="849" d="M123 537l360 489h244l-330 -489l328 -490h-240z" />
<glyph unicode="&#x203a;" horiz-adv-x="849" d="M123 1026h244l360 -489l-362 -490h-240l328 490z" />
<glyph unicode="&#x2044;" horiz-adv-x="1208" d="M123 -27l795 1491h167l-794 -1491h-168z" />
<glyph unicode="&#x205f;" horiz-adv-x="471" />
<glyph unicode="&#x20ac;" horiz-adv-x="1431" d="M123 496l29 166h153q-2 23 -2 57q0 39 2 55h-129l29 166h125q25 109 73 200t118 163t169 112.5t217 40.5q90 0 166 -15.5t119 -33t117 -53.5l-54 -256h-34q-101 71 -256 71q-111 0 -182.5 -62.5t-102.5 -166.5h549l-29 -166h-547q-2 -23 -2 -55q0 -43 2 -57h523l-29 -166 h-467q75 -232 303 -232q67 0 135 22t113 64h43v-287q-81 -47 -156 -66.5t-180 -19.5q-122 0 -226 40.5t-179 112.5t-126.5 164.5t-76.5 201.5h-207z" />
<glyph unicode="&#x2113;" horiz-adv-x="1005" d="M123 369q117 108 143 135v530q0 125 22.5 218t61.5 146t85.5 78t101.5 25q108 0 163.5 -87t55.5 -230q0 -325 -348 -703v-82q0 -85 14 -144.5t40 -91t56 -44.5t70 -13q70 0 127.5 51t97.5 124l70 -66q-116 -240 -328 -240q-76 0 -132.5 28.5t-89 79.5t-49 113.5 t-18.5 139.5v26l-98 -88zM408 643q249 311 249 545q0 188 -116 188q-26 0 -48 -15.5t-42 -52t-31.5 -107t-11.5 -169.5v-389z" />
<glyph unicode="&#x2122;" horiz-adv-x="1794" d="M61 1249v185h625v-185h-219v-645h-188v645h-218zM778 604l41 713q3 50 38.5 86.5t82.5 36.5q52 0 92.5 -27t52.5 -70l140 -469h6l131 469q12 46 51 72.5t88 26.5q55 -1 90.5 -36t38.5 -89l41 -713h-192l-17 459h-6l-139 -459h-187l-143 463h-6l-18 -463h-185z" />
<glyph unicode="&#x2126;" horiz-adv-x="1449" d="M123 0v147h338v97q-102 43 -176 135.5t-108 200.5t-34 219q0 140 39 260t112 208.5t184 138.5t249 50t250 -51.5t183 -139.5t109 -203.5t38 -246.5q0 -122 -32 -231.5t-105.5 -202t-180.5 -135.5v-101h338v-145h-487v332q78 22 137 73t92.5 119t49.5 140.5t16 148.5 q0 102 -25.5 191t-75 159.5t-128.5 111t-179 40.5q-87 0 -158 -29.5t-118 -79t-78.5 -116.5t-45.5 -139.5t-14 -151.5q0 -104 31.5 -199.5t100.5 -171.5t165 -100v-328h-487z" />
<glyph unicode="&#x212e;" horiz-adv-x="1626" d="M123 719q0 329 194 532q196 205 498 205q281 0 477 -184q202 -187 211 -553h-1079v-488q157 -157 391 -157q334 0 514 323l96 -59q-245 -358 -610 -358q-298 0 -496 204q-196 202 -196 535zM424 815h784v393q-170 156 -395 156q-230 0 -389 -156v-393z" />
<glyph unicode="&#x2202;" horiz-adv-x="1140" d="M123 317q0 196 120.5 341t307.5 200q148 46 356 49q-2 46 -3.5 70t-7 75.5t-13 82.5t-23 73t-35.5 65.5t-51 40.5t-69 17q-132 0 -222 -219l-131 55q56 122 147.5 205.5t205.5 83.5q75 0 133.5 -40t91 -99t53.5 -137.5t28 -143t7 -127.5q0 -81 -9 -166t-30 -177t-52 -176 t-79 -160t-107.5 -131.5t-141 -88.5t-175.5 -33q-142 0 -221.5 99.5t-79.5 240.5zM276 297q0 -76 50 -131t123 -55q59 0 115 25.5t100.5 68t79 90.5t59.5 100q72 154 100 387q-240 -11 -364 -67q-118 -54 -190.5 -172.5t-72.5 -245.5z" />
<glyph unicode="&#x2206;" horiz-adv-x="1544" d="M123 0l680 1501l618 -1501h-1298zM258 88h969l-463 1110z" />
<glyph unicode="&#x220f;" horiz-adv-x="1288" d="M123 -492v1926h1042v-1926h-166v1774h-710v-1774h-166z" />
<glyph unicode="&#x2211;" horiz-adv-x="1251" d="M123 -346l520 817l-520 817v146h1005v-152h-813l521 -811l-529 -811h821v-152h-1005v146z" />
<glyph unicode="&#x2212;" horiz-adv-x="1200" d="M123 598v221h954v-221h-954z" />
<glyph unicode="&#x221a;" horiz-adv-x="1247" d="M123 877l291 147l391 -793l248 1565h71l-299 -1876l-479 983l-190 -90z" />
<glyph unicode="&#x221e;" horiz-adv-x="1503" d="M123 715q0 116 79 198t191 82q165 0 309 -178q45 52 66 76t63 64t72.5 58t73.5 33t88 15q97 0 170.5 -51t109 -130t35.5 -171q0 -143 -89 -242.5t-226 -99.5q-47 0 -92.5 16t-79 37t-72.5 58.5t-61.5 63.5t-57.5 70q-144 -184 -309 -184q-115 0 -192.5 87t-77.5 198z M244 717q0 -67 42.5 -114.5t106.5 -47.5q112 0 236 160q-38 43 -58 64t-53 49.5t-63 40.5t-62 12q-68 0 -108.5 -48.5t-40.5 -115.5zM778 717q8 -10 37.5 -50t43 -56t42.5 -46.5t50.5 -44t52 -25.5t61.5 -12q86 0 137.5 67t54.5 155q3 98 -51.5 167.5t-146.5 69.5 q-31 0 -62.5 -12t-53 -25.5t-50.5 -44t-41 -45.5t-40.5 -53t-33.5 -45z" />
<glyph unicode="&#x222b;" horiz-adv-x="903" d="M123 -358q0 44 27.5 78t68.5 34q51 0 77 -44.5t13 -90.5q0 -1 -1 -5t-1 -6.5t-0.5 -7t0 -7t1 -6.5t2 -6t3.5 -4.5t5.5 -3.5t7.5 -1q33 0 58 23t38 59t19.5 69.5t7.5 63.5q2 124 -10.5 259.5t-36.5 312.5t-33 259q-20 180 -28.5 296.5t-6.5 278t26 290.5q11 59 29 109.5 t48 99t77 76.5t107 28q59 0 109 -38t50 -95q0 -47 -25 -81t-69 -34q-40 0 -69 28t-29 69q0 13 5 34.5t5 30.5q0 10 -7 17.5t-18 7.5q-34 0 -59.5 -28t-37.5 -69.5t-17.5 -77.5t-5.5 -65q0 -169 40.5 -488t45.5 -382q12 -147 16.5 -228t7.5 -211t-8.5 -239.5t-36.5 -208.5 q-22 -93 -86 -161.5t-153 -68.5q-63 0 -109.5 37t-46.5 97z" />
<glyph unicode="&#x2248;" horiz-adv-x="1277" d="M123 344v215q120 135 289 135q71 0 139 -19t158 -57q134 -55 180 -55q120 0 266 142v-232q-53 -57 -131.5 -91t-161.5 -34q-57 0 -110 16t-129 48q-156 67 -236 67q-135 0 -264 -135zM123 725v215q120 135 289 135q71 0 139 -19t158 -57q134 -55 180 -55q121 0 266 141 v-231q-53 -57 -131.5 -91t-161.5 -34q-57 0 -110 16t-129 48q-156 67 -236 67q-135 0 -264 -135z" />
<glyph unicode="&#x2260;" horiz-adv-x="1202" d="M123 160l172 241h-168v226h324l133 188h-457v219h612l170 242h170l-168 -242h168v-219h-323l-133 -188h456v-226h-612l-172 -241h-172z" />
<glyph unicode="&#x2264;" horiz-adv-x="1142" d="M123 0h897v223h-897v-223zM123 670v202l897 404v-238l-590 -268l590 -266v-240z" />
<glyph unicode="&#x2265;" horiz-adv-x="1142" d="M123 0h897v223h-897v-223zM123 264v240l590 266l-590 268v238l897 -404v-202z" />
<glyph unicode="&#x25ca;" horiz-adv-x="1316" d="M121 713l463 755h149l463 -755l-463 -746h-149zM270 717l387 -631l390 631l-390 633z" />
<glyph unicode="&#x25fc;" horiz-adv-x="1075" d="M0 0v1075h1075v-1075h-1075z" />
</font>
</defs>
</svg>
