<?xml version="1.0" standalone="no"?>
<!DOCTYPE svg PUBLIC "-//W3C//DTD SVG 1.1//EN" "http://www.w3.org/Graphics/SVG/1.1/DTD/svg11.dtd" >
<svg xmlns="http://www.w3.org/2000/svg">
<metadata></metadata>
<defs>
<font id="oblikbold" horiz-adv-x="1234" >
<font-face units-per-em="2048" ascent="1638" descent="-410" />
<missing-glyph horiz-adv-x="512" />
<glyph horiz-adv-x="0" />
<glyph horiz-adv-x="682" />
<glyph unicode=" "  horiz-adv-x="512" />
<glyph unicode="&#x09;" horiz-adv-x="512" />
<glyph unicode="&#xa0;" horiz-adv-x="512" />
<glyph unicode="!" horiz-adv-x="555" d="M143 1434h269l-31 -1086h-205zM150 0h256v258h-256v-258z" />
<glyph unicode="&#x22;" horiz-adv-x="706" d="M82 1434h180l-14 -439h-156zM444 1434h181l-15 -439h-155z" />
<glyph unicode="#" horiz-adv-x="1325" d="M102 428v182h211l31 219h-242v183h271l65 456h185l-68 -456h295l65 456h187l-66 -456h187v-183h-213l-33 -219h246v-182h-273l-63 -457h-191l70 457h-293l-67 -457h-187l68 457h-185zM500 610h291l32 219h-295z" />
<glyph unicode="$" horiz-adv-x="1210" d="M82 51v262h33q221 -84 395 -84h22v392q-125 44 -192 77q-112 55 -173 148.5t-61 216.5q0 167 117 268.5t309 120.5v178h150v-176q161 -10 336 -68v-262h-35q-126 65 -301 78v-338q174 -56 264 -112q83 -52 122.5 -142.5t39.5 -193.5q0 -89 -38 -169.5t-103 -135.5 q-111 -92 -285 -119v-189h-150v174h-24q-197 0 -426 74zM381 1069q0 -55 41 -90.5t110 -63.5v283q-151 -18 -151 -129zM682 252q152 43 152 160q-2 100 -152 157v-317z" />
<glyph unicode="%" horiz-adv-x="1667" d="M143 1090q0 167 81 266.5t218 99.5t218 -100.5t81 -265.5t-81 -265t-218 -100t-218 100t-81 265zM299 1087q0 -93 37.5 -159t105.5 -66t106 66t38 159t-38 159.5t-106 66.5t-105.5 -66.5t-37.5 -159.5zM346 -27l799 1493h147l-792 -1493h-154zM926 342q0 167 81 267 t218 100t218 -101t81 -266t-81 -265t-218 -100t-218 100t-81 265zM1081 340q0 -93 38 -159t106 -66t105.5 66t37.5 159t-37.5 159t-105.5 66t-106 -66t-38 -159z" />
<glyph unicode="&#x26;" horiz-adv-x="1449" d="M123 420q0 133 71.5 238t190.5 178q0 4 -8 12q-110 140 -105 266q3 153 105 247.5t270 94.5q156 0 252 -96t90 -252q-2 -60 -18.5 -106.5t-52.5 -86.5t-66.5 -64.5t-89.5 -66.5l199 -243q18 53 18 143h238q-10 -201 -74 -362l266 -322h-328l-98 113q-169 -136 -373 -136 q-133 0 -243 52.5t-177 155t-67 235.5zM358 430q-4 -95 55.5 -156t157.5 -63q73 -3 146.5 18t116.5 66l-297 362q-37 -23 -54.5 -34.5t-45.5 -34.5t-41 -43t-24.5 -50t-13.5 -65zM526 1114q0 -12 2.5 -23.5t9 -24t11 -21.5t15.5 -23t16 -20t18 -20.5t16 -18.5q79 44 102 66 q38 35 38 79q0 51 -27.5 91t-79.5 40q-57 0 -89 -37.5t-32 -87.5z" />
<glyph unicode="'" horiz-adv-x="344" d="M82 1434h180l-14 -439h-156z" />
<glyph unicode="(" horiz-adv-x="813" d="M145 483q4 163 38 306t101.5 270.5t181 224.5t265.5 152v-172q-114 -76 -193 -213t-112 -280.5t-33 -287.5q0 -113 18.5 -223.5t56.5 -219t105.5 -201.5t157.5 -154v-181q-154 57 -270 157.5t-185.5 230t-102 278t-28.5 313.5z" />
<glyph unicode=")" horiz-adv-x="813" d="M82 -315q90 61 157.5 154t105.5 201.5t56.5 219t18.5 223.5q0 144 -33 287.5t-112 280.5t-193 213v172q152 -55 265.5 -152t181 -224.5t101.5 -270.5t38 -306q4 -165 -28.5 -313.5t-102 -278t-185.5 -230t-270 -157.5v181z" />
<glyph unicode="*" horiz-adv-x="1058" d="M143 989l265 109l-265 110l84 154l242 -164l-27 305h174l-26 -305l239 164l86 -154l-262 -110l262 -109l-86 -153l-239 161l24 -301h-174l29 301l-242 -161z" />
<glyph unicode="+" horiz-adv-x="1243" d="M143 616v187h387v387h183v-387h387v-187h-387v-385h-183v385h-387z" />
<glyph unicode="," horiz-adv-x="729" d="M143 -332l162 604h281l-267 -604h-176z" />
<glyph unicode="-" horiz-adv-x="1005" d="M143 428v219h719v-219h-719z" />
<glyph unicode="." horiz-adv-x="561" d="M143 0v272h275v-272h-275z" />
<glyph unicode="/" horiz-adv-x="870" d="M143 -27l428 1491h156l-432 -1491h-152z" />
<glyph unicode="0" horiz-adv-x="1464" d="M123 717q0 336 166 537.5t442 201.5t443 -201.5t167 -537.5t-167 -538t-443 -202t-442 202t-166 538zM391 715q0 -233 92 -369.5t248 -136.5q157 0 249.5 136.5t92.5 369.5t-92.5 371.5t-249.5 138.5q-156 0 -248 -138t-92 -372z" />
<glyph unicode="1" horiz-adv-x="829" d="M41 1161l238 201q99 86 210 86q90 0 133.5 -52t43.5 -143v-1253h-260v1171h-11l-202 -180z" />
<glyph unicode="2" horiz-adv-x="1036" d="M61 0v168l541 678q84 105 84 176q0 93 -71.5 148t-163.5 55q-166 0 -279 -92h-29v237q165 86 342 86q94 0 177 -26t149 -77t104.5 -134t38.5 -189q0 -170 -141 -334l-401 -463v-6h540v-227h-891z" />
<glyph unicode="3" horiz-adv-x="1038" d="M61 51v238h29q166 -90 322 -90q117 0 196.5 62t79.5 161q0 63 -29.5 108.5t-80.5 69.5t-106 34.5t-118 10.5h-108v223h73q37 0 64.5 1.5t65.5 7t64.5 17.5t51.5 30.5t38 49t13 70.5q0 87 -69 139t-154 52q-174 0 -276 -78h-29v238q166 61 313 61q71 0 139 -15t131 -46.5 t110.5 -76.5t75.5 -109.5t28 -141.5q0 -89 -53 -175t-134 -116v-8q109 -35 183.5 -130.5t74.5 -215.5q0 -88 -30 -162t-81.5 -125.5t-122 -87.5t-151 -53t-168.5 -17q-150 0 -342 74z" />
<glyph unicode="4" horiz-adv-x="1228" d="M63.5 441q-8.5 51 28.5 112l526 793q67 102 207 102q82 0 129 -59t47 -142v-690h146v-235h-146v-322h-260v322h-536q-52 0 -92.5 34t-49 85zM352 557h389v573h-8z" />
<glyph unicode="5" horiz-adv-x="1060" d="M82 53v238h29q122 -82 319 -82q127 0 204 72.5t77 199.5q0 69 -31.5 120.5t-85.5 79.5t-116 41t-132 13h-219v699h803v-226h-543v-252q217 0 344 -67q115 -60 181.5 -172t66.5 -246q0 -115 -47 -209.5t-126 -156t-180.5 -95t-213.5 -33.5q-146 0 -330 76z" />
<glyph unicode="6" horiz-adv-x="1282" d="M123 676q0 288 129 498q85 136 214.5 208t291.5 74q93 0 166 -18.5t157 -63.5v-237h-28q-113 94 -297 94q-120 0 -212 -77t-130 -196h8q43 34 113.5 53t146.5 19q206 0 341.5 -148.5t135.5 -371.5q0 -230 -145.5 -381.5t-372.5 -151.5q-128 0 -240 62.5t-180 177.5 q-58 95 -78 207t-20 252zM397 492q0 -115 71 -202t181 -87q77 0 133 43t82.5 110.5t26.5 149.5q0 78 -26 143.5t-85 109.5t-141 44q-51 0 -92.5 -17t-69 -46t-46 -69.5t-26.5 -84.5t-8 -94z" />
<glyph unicode="7" horiz-adv-x="964" d="M41 1208v226h700q110 0 158.5 -57.5t1.5 -168.5l-508 -1208h-284l512 1198v10h-580z" />
<glyph unicode="8" horiz-adv-x="1284" d="M102 424q0 119 66 213.5t182 128.5v8q-84 29 -132 111.5t-48 169.5q0 97 39 175t105 126.5t150 74t179 25.5q202 0 337.5 -110.5t135.5 -290.5q0 -94 -46 -172t-132 -109v-8q112 -35 178 -128t66 -210q0 -89 -30 -164t-81 -127t-119.5 -88.5t-145 -54t-157.5 -17.5 q-103 0 -200 30t-174.5 85t-125 141.5t-47.5 190.5zM369 428q0 -109 76 -170t196 -61t197 61t77 170q0 103 -78.5 168.5t-195.5 65.5t-194.5 -65.5t-77.5 -168.5zM432 1042q0 -86 60 -140t151 -54t151 54t60 140q0 92 -59 143.5t-152 51.5t-152 -51.5t-59 -143.5z" />
<glyph unicode="9" horiz-adv-x="1282" d="M123 924q0 230 145.5 381t372.5 151q129 0 240.5 -62t179.5 -177q58 -95 78 -207t20 -252q0 -288 -129 -498q-85 -136 -215 -208.5t-291 -74.5q-93 0 -166 18.5t-157 63.5v238h28q113 -94 297 -94q120 0 212 76.5t130 195.5h-8q-43 -34 -113.5 -53t-146.5 -19 q-206 0 -341.5 148.5t-135.5 372.5zM391 928q0 -78 26 -143.5t85 -109.5t141 -44q51 0 92.5 17t69 46t46 69.5t26.5 84.5t8 94q0 115 -71 202t-181 87q-77 0 -133 -43t-82.5 -110.5t-26.5 -149.5z" />
<glyph unicode=":" horiz-adv-x="561" d="M143 0v272h275v-272h-275zM143 799v274h275v-274h-275z" />
<glyph unicode=";" horiz-adv-x="729" d="M143 -332l162 604h281l-267 -604h-176zM311 799v274h275v-274h-275z" />
<glyph unicode="&#x3c;" horiz-adv-x="1185" d="M143 623v186l899 410v-205l-657 -295l657 -297v-205z" />
<glyph unicode="=" horiz-adv-x="1245" d="M143 438v185h959v-185h-959zM143 811v184h959v-184h-959z" />
<glyph unicode="&#x3e;" horiz-adv-x="1185" d="M143 217v205l658 297l-658 295v205l899 -410v-186z" />
<glyph unicode="?" horiz-adv-x="987" d="M102 1110v238q173 108 349 108q80 0 156.5 -24.5t139 -70.5t100.5 -119.5t38 -162.5q0 -94 -43.5 -176t-118.5 -135q-29 -20 -70.5 -40.5t-67 -35t-51.5 -38t-38.5 -61.5t-12.5 -95v-156h-239v182q0 69 11 120t29.5 86t53 65.5t71 54t93.5 55.5q5 3 8 4q115 66 115 166 q0 49 -33.5 82.5t-77 46.5t-90.5 13q-78 0 -155.5 -27.5t-137.5 -79.5h-29zM236 0v256h256v-256h-256z" />
<glyph unicode="@" horiz-adv-x="2113" d="M123 473q0 198 69.5 373.5t192.5 305.5t305 206t395 76q170 0 316.5 -49t253.5 -137t183.5 -208t114.5 -264t38 -303q0 -254 -125 -473h-656v57h-6q-95 -80 -243 -80q-145 0 -236.5 83t-91.5 227q0 113 69 193.5t197 101.5l307 51q0 33 -23.5 58t-59 38t-68.5 19t-60 6 q-155 0 -250 -56h-26v205q145 51 280 51q66 0 124.5 -9.5t114 -33t95.5 -59.5t64 -91.5t24 -125.5v-518h351q79 158 79 356q0 172 -51.5 321t-147 261t-243 176.5t-328.5 64.5q-182 0 -337 -65t-261 -176t-165.5 -261.5t-59.5 -320.5t55.5 -318.5t158.5 -260t260 -176 t349 -64.5q188 0 322 49l59 -129q-164 -65 -377 -59q-222 4 -405 80.5t-304 205.5t-187 301.5t-66 370.5zM860 301q-1 -62 37 -89.5t102 -27.5q98 0 207 64v205q-36 -6 -117 -19t-122 -20q-51 -10 -79 -35.5t-28 -77.5z" />
<glyph unicode="A" horiz-adv-x="1417" d="M20 0l496 1323q21 58 74.5 92.5t116.5 34.5q64 0 115 -35t73 -92l502 -1323h-293l-123 334h-561l-125 -334h-275zM508 578h385l-188 524h-9z" />
<glyph unicode="B" horiz-adv-x="1302" d="M164 0v1155q0 116 80.5 197.5t197.5 81.5h275q201 0 330 -103t129 -278q0 -97 -45 -175t-136 -106v-8q118 -36 182 -118.5t64 -211.5q0 -114 -42.5 -200t-118 -136t-169.5 -74t-206 -24h-541zM438 246h250q51 0 86.5 3.5t72 16t59 34t36.5 59.5t14 92q0 49 -17 84.5 t-42.5 55t-67 31t-78.5 14.5t-89 3h-224v-393zM438 868h197q39 0 59.5 1t57 5t57 14t43 27t33 45.5t10.5 67.5q0 94 -61 127t-193 33h-135q-30 0 -49 -20.5t-19 -51.5v-248z" />
<glyph unicode="C" horiz-adv-x="1308" d="M123 725q0 120 29.5 229.5t88.5 201t142.5 158.5t196 104.5t243.5 37.5q177 0 377 -74v-262h-33q-69 39 -164 61.5t-180 22.5q-105 0 -186 -38t-130.5 -105.5t-74 -154t-24.5 -189.5q0 -76 14 -145t45.5 -132t79 -109.5t119.5 -74t161 -27.5q85 0 182 23t165 63h32v-262 q-200 -76 -377 -76q-216 0 -377 96t-245 265t-84 387z" />
<glyph unicode="D" horiz-adv-x="1464" d="M164 0v1157q0 114 81.5 195.5t196.5 81.5h238q309 0 485 -182.5t176 -534.5t-176 -534.5t-485 -182.5h-516zM440 252h240q92 0 159 21.5t109 59t66.5 97.5t33.5 127.5t9 159.5t-9 159.5t-33.5 127.5t-66.5 97.5t-109 59t-159 21.5h-174q-28 0 -47 -19t-19 -45v-866z" />
<glyph unicode="E" horiz-adv-x="1218" d="M164 0v1157q0 114 80.5 195.5t195.5 81.5h717v-250h-651q-26 0 -46 -19t-20 -45v-246h531v-239h-531v-385h717v-250h-993z" />
<glyph unicode="F" horiz-adv-x="1171" d="M164 0v1157q0 114 81.5 195.5t196.5 81.5h688v-250h-624q-26 0 -46 -19t-20 -45v-268h500v-248h-500v-604h-276z" />
<glyph unicode="G" horiz-adv-x="1433" d="M123 717q0 154 47 288t134.5 234.5t222 158.5t300.5 58q205 0 412 -72v-262h-33q-164 82 -366 82q-143 0 -242 -65.5t-144.5 -173.5t-45.5 -250q0 -228 121 -357t350 -129q86 0 163 23v270h-264v246h533v-721q-257 -70 -471 -70q-334 0 -525.5 202t-191.5 538z" />
<glyph unicode="H" horiz-adv-x="1478" d="M164 0v1434h276v-560h602v560h273v-1434h-273v625h-602v-625h-276z" />
<glyph unicode="I" horiz-adv-x="604" d="M164 0v1434h276v-1434h-276z" />
<glyph unicode="J" horiz-adv-x="686" d="M20 0h66q49 1 81.5 15t49.5 42.5t23 62.5t6 85v979h-160v250h436v-1176q0 -246 -101 -377t-327 -131h-74v250z" />
<glyph unicode="K" horiz-adv-x="1425" d="M164 0v1434h276v-560l533 560h362l-590 -590l660 -844h-356l-494 655l-115 -118v-537h-276z" />
<glyph unicode="L" horiz-adv-x="1110" d="M164 281v1153h276v-1119q0 -26 19 -45.5t45 -19.5h545v-250h-603q-117 0 -199.5 82.5t-82.5 198.5z" />
<glyph unicode="M" horiz-adv-x="1822" d="M154 0l65 1264q4 83 62.5 133.5t142.5 50.5q73 0 125.5 -38t75.5 -107l284 -904h9l280 904q22 69 74.5 107t126.5 38q84 0 142.5 -50.5t62.5 -133.5l65 -1264h-276l-41 942h-9l-290 -942h-283l-293 942h-8l-39 -942h-276z" />
<glyph unicode="N" horiz-adv-x="1503" d="M164 0v1262q0 75 46 131t120 57q121 0 200 -121l543 -821h8v926h258v-1434h-264l-645 983h-8v-983h-258z" />
<glyph unicode="O" horiz-adv-x="1603" d="M123 717q0 333 189.5 536t488.5 203q197 0 351 -90.5t241.5 -259t87.5 -389.5q0 -166 -51 -305t-141 -234t-215.5 -148t-272.5 -53t-272.5 53t-215 148.5t-140 234t-50.5 304.5zM408 717q0 -225 106.5 -356.5t286.5 -131.5q181 0 288 131.5t107 356.5q0 207 -109.5 347 t-285.5 140q-181 0 -287 -131t-106 -356z" />
<glyph unicode="P" horiz-adv-x="1282" d="M164 0v1155q0 116 81.5 197.5t196.5 81.5h191q273 0 420 -115.5t147 -347.5q0 -233 -146 -347t-419 -114h-195v-510h-276zM440 758h199q138 0 207 48.5t69 164.5q0 118 -69 166.5t-207 48.5h-133q-29 0 -47.5 -18.5t-18.5 -45.5v-364z" />
<glyph unicode="Q" horiz-adv-x="1603" d="M123 717q0 333 189.5 536t488.5 203q197 0 351 -90.5t241.5 -259t87.5 -389.5q0 -249 -111.5 -430.5t-302.5 -259.5q69 -105 104 -105q50 0 142 98h6l139 -163q-85 -81 -119 -105q-80 -57 -163 -57q-46 0 -90 17t-79 43.5t-69 65.5t-59 75.5t-50 80.5h-28 q-147 0 -272.5 53t-215 148.5t-140 234t-50.5 304.5zM408 717q0 -225 106.5 -356.5t286.5 -131.5q181 0 288 131.5t107 356.5q0 207 -109.5 347t-285.5 140q-181 0 -287 -131t-106 -356z" />
<glyph unicode="R" horiz-adv-x="1374" d="M164 0v1155q0 116 81.5 197.5t196.5 81.5h191q273 0 420 -114t147 -345q0 -325 -291 -420l404 -555h-336l-359 518h-178v-518h-276zM440 766h199q139 0 207.5 46.5t68.5 162.5q0 117 -68.5 164t-207.5 47h-133q-29 0 -47.5 -18.5t-18.5 -45.5v-356z" />
<glyph unicode="S" horiz-adv-x="1210" d="M82 51v262h33q221 -84 395 -84q38 0 77 4t85 16.5t81 31.5t59 53q23 33 22 74q0 37 -18 67q-16 28 -48.5 49t-60 33.5t-68.5 26.5q-19 7 -75.5 25.5t-82 27.5t-68 26t-79.5 35q-112 55 -173 148.5t-61 216.5t68.5 213.5t183.5 135t260 44.5q197 0 406 -70v-262h-35 q-74 38 -173.5 59t-195.5 21q-239 0 -239 -135q0 -36 19 -64.5t55 -49.5t66 -33.5t74 -27.5q14 -5 21 -7q10 -3 54 -17.5t62.5 -21.5t53.5 -19.5t62 -25t53 -25.5q105 -61 159 -146t54 -216q0 -89 -38 -169.5t-103 -135.5q-162 -134 -459 -134q-197 0 -426 74z" />
<glyph unicode="T" horiz-adv-x="1146" d="M41 1184v250h1065v-250h-397v-1184h-277v1184h-391z" />
<glyph unicode="U" horiz-adv-x="1447" d="M164 580v854h276v-908q0 -163 65.5 -230t219.5 -67q155 0 224 67t69 228v910h266v-854q0 -308 -134.5 -455.5t-426.5 -147.5t-425.5 147.5t-133.5 455.5z" />
<glyph unicode="V" horiz-adv-x="1351" d="M41 1434h295l340 -1043h8l342 1043h285l-449 -1317q-22 -60 -72.5 -96.5t-113.5 -36.5q-65 0 -115 36t-72 97z" />
<glyph unicode="W" horiz-adv-x="1890" d="M41 1434h289l239 -963h9l227 963h280l228 -963h8l240 963h288l-340 -1305q-18 -66 -71 -108q-49 -39 -112 -39h-9q-64 1 -115 41.5t-65 99.5l-185 811h-8l-190 -811q-14 -59 -65.5 -99.5t-115.5 -41.5h-9q-63 0 -112 39q-53 42 -71 108z" />
<glyph unicode="X" horiz-adv-x="1390" d="M41 0l494 788l-420 646h331l250 -406h9l258 406h307l-416 -643l496 -791h-330l-330 543h-10l-332 -543h-307z" />
<glyph unicode="Y" horiz-adv-x="1290" d="M41 1434h311l295 -615h8l299 615h295l-465 -885v-549h-276v549z" />
<glyph unicode="Z" horiz-adv-x="1175" d="M61 0v176l734 1000v8h-684v250h817q76 0 135 -49.5t69 -122.5q2 -12 2 -23q0 -63 -47 -133l-622 -848v-8h668v-250h-1072z" />
<glyph unicode="[" horiz-adv-x="743" d="M143 -492v1926h519v-213h-273v-1500h273v-213h-519z" />
<glyph unicode="\" horiz-adv-x="870" d="M143 1464h156l428 -1491h-152z" />
<glyph unicode="]" horiz-adv-x="743" d="M82 -279h272v1500h-272v213h518v-1926h-518v213z" />
<glyph unicode="^" horiz-adv-x="1148" d="M143 760l338 741h187l338 -741h-205l-228 500l-225 -500h-205z" />
<glyph unicode="_" horiz-adv-x="1595" d="M143 -276h1309v-185h-1309v185z" />
<glyph unicode="`" horiz-adv-x="671" d="M143 1479h207l178 -308h-157z" />
<glyph unicode="a" horiz-adv-x="1142" d="M84 328v9q0 135 87 225q90 94 222 114l326 51q0 37 -23.5 66.5t-58.5 45t-70 23.5t-65 8q-71 0 -149 -16.5t-136 -46.5h-29v237q171 52 318 52q97 0 178.5 -19.5t149.5 -60.5t106.5 -113t38.5 -170v-733h-250v90h-8q-113 -113 -260 -113q-161 0 -267 97.5t-110 253.5z M346 342q0 -70 45.5 -103.5t116.5 -33.5q104 0 211 74v241q-33 -6 -115 -19.5t-133 -23.5q-125 -24 -125 -135z" />
<glyph unicode="b" horiz-adv-x="1200" d="M143 238v1263h260v-452h11q85 47 196 47q121 0 215 -41t153 -115t89.5 -172t30.5 -215q0 -123 -30 -225t-91.5 -182t-164 -124.5t-237.5 -44.5h-174q-107 0 -182.5 76.5t-75.5 184.5zM403 268q0 -24 18.5 -41.5t43.5 -17.5h86q85 0 141 22.5t85.5 70.5t40.5 106.5 t11 144.5q0 68 -12.5 122.5t-40 98t-76 67t-114.5 23.5q-95 0 -183 -26v-570z" />
<glyph unicode="c" horiz-adv-x="1036" d="M102 537q0 115 35 216t100.5 177.5t167 121t226.5 44.5q158 0 321 -66v-237h-28q-47 37 -123.5 54t-155.5 17q-148 0 -211 -86.5t-63 -242.5q0 -64 14 -119t44.5 -103t86 -76t129.5 -28q174 0 281 63h28v-237q-129 -58 -323 -58q-156 0 -278.5 77t-186.5 204t-64 279z " />
<glyph unicode="d" horiz-adv-x="1200" d="M102 553q0 117 30.5 215t89.5 172t153 115t215 41q111 0 196 -47h11v452h260v-1263q0 -108 -75.5 -184.5t-182.5 -76.5h-174q-135 0 -237.5 44.5t-164 124.5t-91.5 182t-30 225zM371 553q0 -86 11 -144.5t40.5 -106.5t85.5 -70.5t141 -22.5h86q25 0 43.5 17.5t18.5 41.5 v570q-88 26 -183 26q-66 0 -114.5 -23.5t-76 -67t-40 -98t-12.5 -122.5z" />
<glyph unicode="e" horiz-adv-x="1169" d="M102 530q0 81 18.5 160t59 153t98 130t142 89.5t184.5 33.5q110 0 196.5 -36t142 -97.5t89.5 -147t46 -179.5q8 -62 7 -130q0 -35 -2 -72h-702q8 -61 39.5 -107.5t78 -73.5t100.5 -40.5t114 -13.5q168 0 286 67h29v-237q-148 -52 -336 -52q-175 0 -306.5 62.5 t-207.5 188.5t-76 302zM383 649h436q-9 104 -62 162.5t-149 58.5q-97 0 -156.5 -62t-68.5 -159z" />
<glyph unicode="f" horiz-adv-x="745" d="M41 848v225h115v31q0 201 85 299t275 98q87 0 209 -35v-237h-29q-71 43 -153 43q-57 0 -92 -33.5t-35 -99.5v-66h272v-225h-272v-848h-260v848h-115z" />
<glyph unicode="g" horiz-adv-x="1200" d="M102 518q0 123 30 225.5t91.5 182.5t164 125t237.5 45h174q107 0 182.5 -77t75.5 -185v-781q0 -281 -138 -412t-413 -133q-54 0 -112.5 9t-97.5 19t-106 30v237h29q133 -65 289 -65q121 0 205 65t84 166v56h-9q-86 -48 -198 -48q-121 0 -215 41t-153 114t-89.5 171 t-30.5 215zM371 518q0 -68 12.5 -122t40 -97t76 -66.5t114.5 -23.5q92 0 183 27v567q0 24 -18.5 41.5t-43.5 17.5h-86q-85 0 -141 -22.5t-85.5 -70.5t-40.5 -106.5t-11 -144.5z" />
<glyph unicode="h" d="M143 0v1501h260v-491h7q161 86 303 86q164 0 271.5 -112t107.5 -286v-698h-261v676q0 84 -39.5 136t-121.5 52q-65 0 -139.5 -23t-127.5 -61v-780h-260z" />
<glyph unicode="i" horiz-adv-x="548" d="M137 1178v256h273v-256h-273zM143 0v1073h260v-1073h-260z" />
<glyph unicode="j" horiz-adv-x="620" d="M0 -260v-232q245 0 361 115.5t116 366.5v1083h-393v-225h133v-901q0 -115 -50 -161t-167 -46zM211 1178v256h272v-256h-272z" />
<glyph unicode="k" horiz-adv-x="1191" d="M143 0v1501h260v-776l385 348h361l-465 -401l487 -672h-321l-363 502l-84 -72v-430h-260z" />
<glyph unicode="l" horiz-adv-x="753" d="M143 358v1143h260v-1184q0 -64 32 -86t100 -22q78 0 149 45h29v-234q-116 -43 -209 -43q-188 0 -274.5 94t-86.5 287z" />
<glyph unicode="m" horiz-adv-x="1683" d="M143 0v1073h254v-72q40 40 100.5 67.5t114.5 27.5h5q80 0 150 -31q72 -32 122 -92q60 55 132.5 90t145.5 35q166 0 269.5 -115.5t103.5 -288.5v-694h-260v657q0 195 -131 195q-81 0 -176 -104v-748h-256v657q0 195 -125 195q-44 0 -98 -26t-91 -60v-766h-260z" />
<glyph unicode="n" d="M143 0v1073h252v-65h6q172 88 308 88q170 0 276.5 -110.5t106.5 -289.5v-696h-261v678q0 83 -39 134.5t-122 51.5q-63 0 -137 -25t-130 -63v-776h-260z" />
<glyph unicode="o" horiz-adv-x="1228" d="M102 537q0 254 142 406.5t372 152.5q229 0 369.5 -152.5t140.5 -406.5t-140 -407t-370 -153t-372 153t-142 407zM371 537q0 -150 67 -239t176 -89q111 0 177.5 89t66.5 239t-67 238.5t-177 88.5t-176.5 -88.5t-66.5 -238.5z" />
<glyph unicode="p" horiz-adv-x="1200" d="M143 -492v1328q0 107 75.5 183.5t182.5 76.5h174q135 0 237.5 -44.5t164 -124.5t91.5 -182t30 -225q0 -117 -30.5 -215t-89.5 -172t-153 -115t-215 -41q-110 0 -196 48h-11v-517h-260zM403 236q91 -27 183 -27q66 0 114.5 23.5t76 67t40 98t12.5 122.5q0 86 -11 144.5 t-40.5 106.5t-85.5 70.5t-141 22.5h-86q-25 0 -43.5 -17.5t-18.5 -41.5v-569z" />
<glyph unicode="q" horiz-adv-x="1200" d="M102 520q0 123 30 225t91.5 182t164 124.5t237.5 44.5h174q107 0 182.5 -76.5t75.5 -183.5v-1328h-260v517h-11q-86 -48 -196 -48q-121 0 -215 41t-153 115t-89.5 172t-30.5 215zM371 520q0 -68 12.5 -122.5t40 -98t76 -67t114.5 -23.5q92 0 183 27v569q0 24 -18.5 41.5 t-43.5 17.5h-86q-85 0 -141 -22.5t-85.5 -70.5t-40.5 -106.5t-11 -144.5z" />
<glyph unicode="r" horiz-adv-x="786" d="M143 0v1073h252v-65h8q176 88 342 88v-248h-28q-36 17 -81 17q-10 0 -22 -1q-58 -5 -113 -23.5t-98 -45.5v-795h-260z" />
<glyph unicode="s" horiz-adv-x="956" d="M82 31v233h29q60 -28 147.5 -44.5t157.5 -16.5q34 0 64.5 4t65.5 14.5t56 34t21 57.5q0 12 -4 23t-14 20.5t-17 16.5t-23 15t-22 11.5t-23.5 10.5t-19.5 8l-203 86q-188 81 -188 284q0 147 105 227.5t263 80.5q92 0 155 -12t154 -42v-233h-30q-106 59 -260 59 q-136 0 -136 -69q0 -40 99 -80l207 -86q119 -50 163.5 -125.5t44.5 -177.5q0 -73 -27 -133.5t-71.5 -100.5t-103.5 -67.5t-120.5 -39.5t-125.5 -12q-171 0 -344 54z" />
<glyph unicode="t" horiz-adv-x="770" d="M41 848v225h119v240h260v-240h272v-225h-272v-531q0 -65 31.5 -86.5t99.5 -21.5q78 0 149 45h29v-234q-116 -43 -209 -43q-188 0 -274 94t-86 287v490h-119z" />
<glyph unicode="u" d="M143 377v696h260v-678q0 -82 40 -134t122 -52q63 0 136.5 25t129.5 63v776h261v-1073h-252v66h-6q-182 -89 -308 -89q-170 0 -276.5 110.5t-106.5 289.5z" />
<glyph unicode="v" horiz-adv-x="1120" d="M41 1073h278l246 -725h8l252 725h254l-352 -977q-20 -54 -65.5 -85t-102.5 -31q-60 0 -104 29t-64 83z" />
<glyph unicode="w" horiz-adv-x="1576" d="M41 1073h272l189 -713h8l184 713h189l184 -713h8l189 713h272l-276 -975q-14 -54 -66 -86t-113 -32q-60 0 -112.5 33.5t-65.5 88.5l-110 449h-9l-110 -449q-13 -55 -65.5 -88.5t-112.5 -33.5q-61 0 -113 32t-66 86z" />
<glyph unicode="x" horiz-adv-x="1187" d="M41 0l399 580l-348 493h320l190 -301h8l201 301h291l-352 -502l397 -571h-318l-241 365h-8l-244 -365h-295z" />
<glyph unicode="y" horiz-adv-x="1177" d="M41 1073h285l282 -719h10l259 719h260l-473 -1304q-54 -149 -166 -205t-308 -56h-26v226h53t44.5 1.5t40 4t32.5 7t30 11.5t23.5 17.5t22.5 25t18 32.5t18 42l46 125z" />
<glyph unicode="z" horiz-adv-x="960" d="M51 0v147l502 693v8h-477v225h665q56 0 96 -22q40 -23 56 -57q12 -26 12 -57q0 -9 -1 -19q-5 -42 -34 -82l-436 -603v-8h475v-225h-858z" />
<glyph unicode="{" horiz-adv-x="1011" d="M143 365v213h160q109 0 109 104v446q0 154 91.5 230t260.5 76h166v-213h-160q-108 0 -108 -101v-450q0 -56 -35 -115t-82 -84q53 -31 85 -85t32 -114v-444q0 -111 108 -111h160v-209h-166q-352 0 -352 304v446q0 56 -25.5 81.5t-83.5 25.5h-160z" />
<glyph unicode="|" horiz-adv-x="456" d="M143 -492v1995h170v-1995h-170z" />
<glyph unicode="}" horiz-adv-x="1011" d="M82 -283h160q108 0 108 111v444q0 60 32 114t85 85q-47 25 -82 84t-35 115v450q0 101 -108 101h-160v213h166q169 0 260.5 -76t91.5 -230v-446q0 -104 109 -104h159v-213h-159q-58 0 -83.5 -25.5t-25.5 -81.5v-446q0 -304 -352 -304h-166v209z" />
<glyph unicode="~" horiz-adv-x="1323" d="M143 539v204q121 136 287 136q27 0 56.5 -4t48.5 -7.5t53.5 -15.5t44.5 -15.5t51 -19.5t45 -18q134 -54 186 -54q70 0 141 42.5t124 101.5v-219q-134 -127 -291 -127q-43 0 -91 11.5t-72 21t-79 32.5q-161 68 -237 68q-136 0 -267 -137z" />
<glyph unicode="&#xa1;" horiz-adv-x="555" d="M143 -360l31 1085h205l33 -1085h-269zM150 815v258h256v-258h-256z" />
<glyph unicode="&#xa2;" horiz-adv-x="1036" d="M102 537q0 227 128.5 383.5t355.5 173.5v176h149v-180q105 -14 217 -60v-237h-28q-64 51 -189 65v-645q116 14 191 59h28v-237q-89 -42 -219 -53v-179h-149v177q-145 11 -256.5 89.5t-169.5 200.5t-58 267zM371 535q0 -57 11 -107.5t35 -96t67.5 -77t101.5 -41.5v647 q-215 -33 -215 -325z" />
<glyph unicode="&#xa3;" horiz-adv-x="1290" d="M143 250q49 0 73 2.5t48.5 15t36 39.5t18.5 74l33 225h-209v238h244l35 215q29 180 167.5 288.5t323.5 108.5q125 0 234 -53v-264h-43q-55 65 -174 65q-89 0 -156 -49.5t-80 -134.5l-26 -176h346v-238h-385l-29 -217q-4 -35 -26 -72t-50 -59v-8h623v-250h-1002z" />
<glyph unicode="&#xa4;" horiz-adv-x="1335" d="M143 342l154 152q-72 109 -72 239.5t72 243.5l-154 149l133 131l152 -151q109 72 239.5 72t239.5 -72l154 151l131 -131l-152 -149q70 -112 70 -243t-70 -240l152 -152l-131 -129l-154 147q-109 -70 -239.5 -70t-239.5 70l-152 -147zM403 734.5q0 -109.5 78 -187.5 q78 -79 187.5 -79t187.5 79q77 78 77.5 187.5t-77.5 189.5q-76 80 -186.5 80t-188.5 -80t-78 -189.5z" />
<glyph unicode="&#xa5;" horiz-adv-x="1290" d="M41 1434h311l295 -615h8l299 615h295l-284 -543h196v-160h-280l-64 -121h344v-159h-377v-451h-276v451h-379v159h346l-63 121h-283v160h199z" />
<glyph unicode="&#xa6;" horiz-adv-x="458" d="M143 233h172v-725h-172v725zM143 776v725h172v-725h-172z" />
<glyph unicode="&#xa7;" horiz-adv-x="1099" d="M82 -180h29q76 -37 171 -58.5t179 -21.5q70 -1 133.5 21t108.5 74.5t45 125.5q0 114 -121 168q-38 18 -161 62t-185 83q-94 58 -146.5 148t-52.5 199q0 127 74 219v2q-74 106 -74 250q3 185 130.5 297t315.5 112q107 0 193.5 -17.5t196.5 -56.5v-239h-29q-127 80 -328 80 q-51 0 -102.5 -17t-91 -55.5t-39.5 -89.5q0 -73 34.5 -109.5t110.5 -70.5q42 -20 118.5 -47t138 -55t108.5 -64q159 -120 159 -324q0 -129 -71 -221q71 -107 71 -244q0 -116 -42.5 -206.5t-116.5 -145.5t-168.5 -83t-204.5 -28q-168 0 -383 74v238zM335.5 588.5 q22.5 -54.5 76.5 -86.5q48 -30 99.5 -52.5t128.5 -50t101 -37.5q19 62 -4.5 117.5t-81.5 89.5q-53 31 -164 70t-155 61q-23 -57 -0.5 -111.5z" />
<glyph unicode="&#xa8;" horiz-adv-x="864" d="M143 1212v226h222v-226h-222zM496 1212v226h225v-226h-225z" />
<glyph unicode="&#xa9;" horiz-adv-x="1722" d="M123 715q0 151 58 288.5t157 236.5t235.5 157.5t286.5 58.5q151 0 288 -58.5t235.5 -157.5t157 -236.5t58.5 -288.5q0 -150 -58.5 -286.5t-157 -235.5t-235.5 -157.5t-288 -58.5q-150 0 -286.5 58.5t-235.5 157.5t-157 235.5t-58 286.5zM260 715q0 -122 47.5 -233 t127.5 -191t191.5 -127t233.5 -47q164 0 303 79.5t220 217.5t81 301q0 164 -81 303t-220 219t-303 80q-122 0 -233.5 -47.5t-191.5 -128t-127.5 -192t-47.5 -234.5zM506 723q0 116 44.5 210.5t138.5 154t222 59.5q92 0 219 -43v-150h-20q-38 20 -94.5 31.5t-104.5 11.5 q-128 0 -185.5 -76t-57.5 -204q0 -121 60.5 -203t182.5 -82q66 0 110 10.5t91 36.5h21v-149q-107 -45 -220 -45q-192 0 -299.5 122.5t-107.5 315.5z" />
<glyph unicode="&#xaa;" horiz-adv-x="903" d="M145 946q3 92 60 151.5t147 71.5l234 35q0 27 -18 47.5t-45.5 30t-53 14t-47.5 4.5q-110 0 -193 -45h-20v162q119 39 219 39q67 0 122.5 -12t104 -38.5t76 -77t27.5 -120.5v-491h-166v55h-6q-82 -76 -191 -76q-114 0 -184.5 71.5t-65.5 178.5zM319 946q0 -88 115 -88 q70 0 152 47v158q-127 -17 -185 -29q-82 -14 -82 -88z" />
<glyph unicode="&#xab;" horiz-adv-x="1312" d="M143 535l359 487h211l-332 -487l332 -490h-211zM600 535l358 487h211l-331 -487l331 -490h-211z" />
<glyph unicode="&#xac;" horiz-adv-x="1277" d="M143 809v186h992v-575h-187v389h-805z" />
<glyph unicode="&#xad;" horiz-adv-x="1005" d="M143 428v219h719v-219h-719z" />
<glyph unicode="&#xae;" horiz-adv-x="1726" d="M123 715q0 151 58.5 288.5t157.5 236.5t236.5 157.5t288.5 58.5q150 0 287 -58.5t236.5 -157.5t158 -236.5t58.5 -288.5q0 -150 -58.5 -286.5t-158 -235.5t-236.5 -157.5t-287 -58.5q-151 0 -288.5 58.5t-236.5 157.5t-157.5 235.5t-58.5 286.5zM250 715 q0 -166 82.5 -308t224 -224.5t307.5 -82.5q125 0 239 49t196.5 131.5t131 196t48.5 238.5t-48.5 239t-131 196t-196.5 130.5t-239 48.5q-166 0 -307.5 -82t-224 -223.5t-82.5 -308.5zM547 311v674q0 68 47.5 116t114.5 48h135q319 0 319 -260q0 -87 -43 -154t-121 -96 l232 -328h-197l-209 305h-120v-305h-158zM705 758h141q153 0 153 133q0 64 -39 90.5t-122 26.5h-97q-15 0 -25.5 -12t-10.5 -27v-211z" />
<glyph unicode="&#xaf;" horiz-adv-x="999" d="M143 1200v100h713v-100h-713z" />
<glyph unicode="&#xb0;" horiz-adv-x="1038" d="M143 1079q0 157 109 267t266 110t267 -110t110 -267q0 -156 -110 -265t-267 -109t-266 108.5t-109 265.5zM305 1079q0 -91 61 -152t152 -61q92 0 153.5 61t61.5 152q0 92 -61.5 153.5t-153.5 61.5q-91 0 -152 -61.5t-61 -153.5z" />
<glyph unicode="&#xb1;" horiz-adv-x="1245" d="M143 0v184h959v-184h-959zM143 641v184h387v387h185v-387h387v-184h-387v-387h-185v387h-387z" />
<glyph unicode="&#xb2;" horiz-adv-x="737" d="M143 721v82l267 338q51 67 51 100q0 47 -32.5 70.5t-80.5 23.5q-44 0 -86.5 -13.5t-64.5 -33.5h-15v127q82 43 174 43q97 0 165.5 -58.5t68.5 -158.5q0 -88 -55 -149l-211 -246v-6h270v-119h-451z" />
<glyph unicode="&#xb3;" horiz-adv-x="733" d="M143 743v127h15q36 -21 84.5 -34t89.5 -13q47 0 87 32.5t40 80.5q0 111 -172 111h-54v112h39q152 0 152 92q0 40 -34 65t-77 25q-88 0 -145 -41h-14v127q82 31 159 31q97 0 169.5 -53.5t72.5 -147.5q0 -45 -24 -87t-64 -56v-6q56 -20 89.5 -67t33.5 -105 q0 -103 -77.5 -165t-188.5 -62q-81 0 -181 34z" />
<glyph unicode="&#xb4;" horiz-adv-x="673" d="M143 1171l176 308h211l-231 -308h-156z" />
<glyph unicode="&#xb5;" horiz-adv-x="1226" d="M143 -492v1565h254v-665q0 -85 41 -137t123 -52q63 0 136.5 25t129.5 63v766h256v-1073h-247v70h-7q-153 -93 -305 -93q-34 0 -69 15.5t-58 36.5v-521h-254z" />
<glyph unicode="&#xb6;" horiz-adv-x="1413" d="M143 1047q0 161 112.5 274t272.5 113h742v-179h-113v-1747h-186v1747h-203v-1747h-186v1154h-54q-159 0 -272 113t-113 272z" />
<glyph unicode="&#xb7;" horiz-adv-x="561" d="M143 580v272h275v-272h-275z" />
<glyph unicode="&#xb8;" horiz-adv-x="788" d="M143 -412l88 117h9q68 -47 143 -47q102 0 102 78q0 37 -42 63t-93 34.5t-92 4.5l39 215h147l-20 -112q46 -7 83.5 -21t69.5 -37.5t50 -59.5t18 -83q0 -110 -75.5 -171t-182.5 -61q-126 0 -244 80z" />
<glyph unicode="&#xb9;" horiz-adv-x="516" d="M61 1309l121 104q49 45 103 45q44 0 66 -29t22 -75v-633h-127v582h-8l-99 -84z" />
<glyph unicode="&#xba;" horiz-adv-x="983" d="M143 1077q0 176 94.5 277.5t243.5 101.5q157 0 258 -101.5t101 -277.5t-96 -276.5t-252 -100.5t-252.5 100.5t-96.5 276.5zM319 1077q0 -106 43.5 -164.5t126.5 -58.5q84 0 129.5 59t45.5 164q0 106 -45.5 166t-129.5 60t-127 -59.5t-43 -166.5z" />
<glyph unicode="&#xbb;" horiz-adv-x="1312" d="M143 45l332 490l-332 487h211l359 -487l-359 -490h-211zM600 45l332 490l-332 487h211l358 -487l-358 -490h-211z" />
<glyph unicode="&#xbc;" horiz-adv-x="1400" d="M143 1309l121 104q49 45 103 45q44 0 66 -29t22 -75v-633h-127v582h-9l-98 -84zM221 -27l799 1493h141l-796 -1493h-144zM721.5 197.5q-21.5 35.5 5.5 78.5l270 410q28 47 95 47q41 0 66.5 -30t25.5 -72v-350h73v-119h-73v-162h-125v162h-268q-48 0 -69.5 35.5zM866 281 h193v297l-193 -291v-6z" />
<glyph unicode="&#xbd;" horiz-adv-x="1484" d="M143 1309l121 104q49 45 103 45q44 0 66 -29t22 -75v-633h-127v582h-9l-98 -84zM221 -27l799 1493h141l-796 -1493h-144zM891 0v82l266 338q51 67 51 100q0 47 -32 70.5t-80 23.5q-44 0 -87 -13.5t-65 -33.5h-14v127q82 43 174 43q97 0 165 -58.5t68 -158.5 q0 -88 -55 -149l-211 -246v-6h270v-119h-450z" />
<glyph unicode="&#xbe;" horiz-adv-x="1472" d="M143 743v127h15q36 -21 84.5 -34t89.5 -13q47 0 87 32.5t40 80.5q0 111 -172 111h-54v112h39q152 0 152 92q0 40 -34 65t-77 25q-88 0 -145 -41h-14v127q82 31 159 31q97 0 169.5 -53.5t72.5 -147.5q0 -45 -24 -87t-64 -56v-6q56 -20 89.5 -67t33.5 -105 q0 -103 -77.5 -165t-188.5 -62q-81 0 -181 34zM293 -27l799 1493h141l-797 -1493h-143zM793 197.5q-21 35.5 6 78.5l270 410q28 47 94 47q41 0 66.5 -30t25.5 -72v-350h74v-119h-74v-162h-125v162h-268q-48 0 -69 35.5zM938 281h192v297l-192 -291v-6z" />
<glyph unicode="&#xbf;" horiz-adv-x="987" d="M102 -6q0 94 43.5 176t118.5 135q29 20 70.5 40.5t67 35t51.5 38t38.5 61.5t12.5 95v156h239v-182q0 -69 -11 -120t-29.5 -86t-53 -65.5t-71 -54t-93.5 -55.5q-5 -3 -8 -4q-115 -66 -115 -166q0 -49 33.5 -82t77 -46t90.5 -13q78 0 156 27t137 79h29v-237 q-175 -109 -348 -109q-80 0 -156.5 24.5t-139 70.5t-101 119.5t-38.5 162.5zM496 817v256h256v-256h-256z" />
<glyph unicode="&#xc0;" horiz-adv-x="1417" d="M20 0l496 1323q21 58 74.5 92.5t116.5 34.5q64 0 115 -35t73 -92l502 -1323h-293l-123 334h-561l-125 -334h-275zM414 1839h207l178 -307h-158zM508 578h385l-188 524h-9z" />
<glyph unicode="&#xc1;" horiz-adv-x="1417" d="M20 0l496 1323q21 58 74.5 92.5t116.5 34.5q64 0 115 -35t73 -92l502 -1323h-293l-123 334h-561l-125 -334h-275zM508 578h385l-188 524h-9zM616 1532l177 307h211l-232 -307h-156z" />
<glyph unicode="&#xc2;" horiz-adv-x="1417" d="M20 0l496 1323q21 58 74.5 92.5t116.5 34.5q64 0 115 -35t73 -92l502 -1323h-293l-123 334h-561l-125 -334h-275zM426 1534l180 307h205l178 -307h-158l-124 166l-123 -166h-158zM508 578h385l-188 524h-9z" />
<glyph unicode="&#xc3;" horiz-adv-x="1417" d="M20 0l496 1323q21 58 74.5 92.5t116.5 34.5q64 0 115 -35t73 -92l502 -1323h-293l-123 334h-561l-125 -334h-275zM338 1630q93 159 242 162q89 0 157 -43q8 -5 25.5 -17t27 -17.5t26.5 -11t34 -5.5q25 0 44 12t28.5 25.5t23.5 40.5l133 -72q-43 -80 -99 -121t-140 -41 q-81 0 -148 37q-12 6 -30 17.5t-29 18t-28 12t-34 5.5q-25 0 -44.5 -11.5t-28.5 -23t-27 -38.5zM508 578h385l-188 524h-9z" />
<glyph unicode="&#xc4;" horiz-adv-x="1417" d="M20 0l496 1323q21 58 74.5 92.5t116.5 34.5q64 0 115 -35t73 -92l502 -1323h-293l-123 334h-561l-125 -334h-275zM420 1573v225h221v-225h-221zM508 578h385l-188 524h-9zM772 1573v225h225v-225h-225z" />
<glyph unicode="&#xc5;" horiz-adv-x="1417" d="M20 0l496 1323q21 58 74.5 92.5t116.5 34.5q64 0 115 -35t73 -92l502 -1323h-293l-123 334h-561l-125 -334h-275zM508 578h385l-188 524h-9zM510 1698q0 83 57 139.5t140 56.5q82 0 140 -56.5t58 -139.5q0 -81 -58 -138t-140 -57q-83 0 -140 56.5t-57 138.5zM621 1698 q0 -36 25 -61t61 -25q37 0 61.5 24.5t24.5 61.5q0 36 -25 61t-61 25q-35 0 -60.5 -25.5t-25.5 -60.5z" />
<glyph unicode="&#xc6;" horiz-adv-x="1980" d="M20 0l709 1280q39 69 109 111.5t153 42.5h928v-256h-598q-26 0 -45 -19t-19 -45v-240h474v-239h-474v-379h662v-256h-938v305h-487l-172 -305h-302zM629 551h352v616h-6z" />
<glyph unicode="&#xc7;" horiz-adv-x="1308" d="M123 725q0 120 29.5 229.5t88.5 201t142.5 158.5t196 104.5t243.5 37.5q177 0 377 -74v-262h-33q-69 39 -164 61.5t-180 22.5q-105 0 -186 -38t-130.5 -105.5t-74 -154t-24.5 -189.5q0 -76 14 -145t45.5 -132t79 -109.5t119.5 -74t161 -27.5q85 0 182 23t165 63h32v-262 q-166 -62 -311 -73l-6 -39q46 -7 83.5 -21t69.5 -37.5t50 -59.5t18 -83q0 -110 -75.5 -171t-182.5 -61q-126 0 -244 80l88 117h9q68 -47 143 -47q102 0 102 78q0 37 -42 63t-93 34.5t-92 4.5l25 144q-290 26 -457.5 229t-167.5 514z" />
<glyph unicode="&#xc8;" horiz-adv-x="1218" d="M164 0v1157q0 114 80.5 195.5t195.5 81.5h717v-250h-651q-26 0 -46 -19t-20 -45v-246h531v-239h-531v-385h717v-250h-993zM457 1839h207l178 -307h-158z" />
<glyph unicode="&#xc9;" horiz-adv-x="1218" d="M164 0v1157q0 114 80.5 195.5t195.5 81.5h717v-250h-651q-26 0 -46 -19t-20 -45v-246h531v-239h-531v-385h717v-250h-993zM600 1532l176 307h211l-231 -307h-156z" />
<glyph unicode="&#xca;" horiz-adv-x="1218" d="M164 0v1157q0 114 80.5 195.5t195.5 81.5h717v-250h-651q-26 0 -46 -19t-20 -45v-246h531v-239h-531v-385h717v-250h-993zM420 1534l180 307h205l178 -307h-158l-125 166l-122 -166h-158z" />
<glyph unicode="&#xcb;" horiz-adv-x="1218" d="M164 0v1157q0 114 80.5 195.5t195.5 81.5h717v-250h-651q-26 0 -46 -19t-20 -45v-246h531v-239h-531v-385h717v-250h-993zM381 1573v225h221v-225h-221zM733 1573v225h225v-225h-225z" />
<glyph unicode="&#xcc;" horiz-adv-x="604" d="M63 1839h207l179 -307h-158zM164 0v1434h276v-1434h-276z" />
<glyph unicode="&#xcd;" horiz-adv-x="604" d="M156 1532l176 307h211l-232 -307h-155zM164 0v1434h276v-1434h-276z" />
<glyph unicode="&#xce;" horiz-adv-x="604" d="M20 1534l181 307h205l178 -307h-158l-125 166l-123 -166h-158zM164 0v1434h276v-1434h-276z" />
<glyph unicode="&#xcf;" horiz-adv-x="604" d="M14 1573v225h222v-225h-222zM164 0v1434h276v-1434h-276zM367 1573v225h225v-225h-225z" />
<glyph unicode="&#xd0;" horiz-adv-x="1464" d="M20 678v182h144v297q0 114 81.5 195.5t196.5 81.5h238q309 0 485 -182.5t176 -534.5t-176 -534.5t-485 -182.5h-516v678h-144zM440 252h240q92 0 159 21.5t109 59t66.5 97.5t33.5 127.5t9 159.5t-9 159.5t-33.5 127.5t-66.5 97.5t-109 59t-159 21.5h-174q-28 0 -47 -19 t-19 -45v-258h381v-182h-381v-426z" />
<glyph unicode="&#xd1;" horiz-adv-x="1503" d="M164 0v1262q0 75 46 131t120 57q121 0 200 -121l543 -821h8v926h258v-1434h-264l-645 983h-8v-983h-258zM381 1630q93 159 242 162q89 0 157 -43q8 -5 25.5 -17t27 -17.5t26.5 -11t34 -5.5q25 0 44 12t28.5 25.5t23.5 40.5l133 -72q-43 -80 -99 -121t-140 -41 q-81 0 -148 37q-12 6 -30 17.5t-29 18t-28 12t-34 5.5q-25 0 -44.5 -11.5t-28.5 -23t-27 -38.5z" />
<glyph unicode="&#xd2;" horiz-adv-x="1603" d="M123 717q0 333 189.5 536t488.5 203q197 0 351 -90.5t241.5 -259t87.5 -389.5q0 -166 -51 -305t-141 -234t-215.5 -148t-272.5 -53t-272.5 53t-215 148.5t-140 234t-50.5 304.5zM408 717q0 -225 106.5 -356.5t286.5 -131.5q181 0 288 131.5t107 356.5q0 207 -109.5 347 t-285.5 140q-181 0 -287 -131t-106 -356zM526 1839h207l178 -307h-157z" />
<glyph unicode="&#xd3;" horiz-adv-x="1603" d="M123 717q0 333 189.5 536t488.5 203q197 0 351 -90.5t241.5 -259t87.5 -389.5q0 -166 -51 -305t-141 -234t-215.5 -148t-272.5 -53t-272.5 53t-215 148.5t-140 234t-50.5 304.5zM408 717q0 -225 106.5 -356.5t286.5 -131.5q181 0 288 131.5t107 356.5q0 207 -109.5 347 t-285.5 140q-181 0 -287 -131t-106 -356zM690 1532l176 307h211l-231 -307h-156z" />
<glyph unicode="&#xd4;" horiz-adv-x="1603" d="M123 717q0 333 189.5 536t488.5 203q197 0 351 -90.5t241.5 -259t87.5 -389.5q0 -166 -51 -305t-141 -234t-215.5 -148t-272.5 -53t-272.5 53t-215 148.5t-140 234t-50.5 304.5zM408 717q0 -225 106.5 -356.5t286.5 -131.5q181 0 288 131.5t107 356.5q0 207 -109.5 347 t-285.5 140q-181 0 -287 -131t-106 -356zM520 1534l180 307h205l178 -307h-157l-125 166l-123 -166h-158z" />
<glyph unicode="&#xd5;" horiz-adv-x="1603" d="M123 717q0 333 189.5 536t488.5 203q197 0 351 -90.5t241.5 -259t87.5 -389.5q0 -166 -51 -305t-141 -234t-215.5 -148t-272.5 -53t-272.5 53t-215 148.5t-140 234t-50.5 304.5zM408 717q0 -225 106.5 -356.5t286.5 -131.5q181 0 288 131.5t107 356.5q0 207 -109.5 347 t-285.5 140q-181 0 -287 -131t-106 -356zM430 1630q93 159 242 162q89 0 157 -43q8 -5 25.5 -17t27 -17.5t26.5 -11t34 -5.5q25 0 44 12t28.5 25.5t23.5 40.5l133 -72q-43 -80 -99 -121t-140 -41q-81 0 -148 37q-11 6 -36.5 22.5t-43.5 23.5t-40 7q-25 0 -44.5 -11 t-29.5 -23.5t-27 -38.5z" />
<glyph unicode="&#xd6;" horiz-adv-x="1603" d="M123 717q0 333 189.5 536t488.5 203q197 0 351 -90.5t241.5 -259t87.5 -389.5q0 -166 -51 -305t-141 -234t-215.5 -148t-272.5 -53t-272.5 53t-215 148.5t-140 234t-50.5 304.5zM408 717q0 -225 106.5 -356.5t286.5 -131.5q181 0 288 131.5t107 356.5q0 207 -109.5 347 t-285.5 140q-181 0 -287 -131t-106 -356zM512 1573v225h221v-225h-221zM864 1573v225h226v-225h-226z" />
<glyph unicode="&#xd7;" horiz-adv-x="1148" d="M143 412l301 299l-301 299l129 129l299 -299l301 299l132 -131l-299 -299l301 -301l-129 -129l-302 301l-301 -301z" />
<glyph unicode="&#xd8;" horiz-adv-x="1701" d="M123 104l170 170q-117 188 -117 443q0 333 189.5 536t488.5 203q275 0 455 -168l159 160l111 -115l-168 -168q123 -188 123 -448q0 -166 -51 -305t-141 -234t-215.5 -148t-272.5 -53q-274 0 -459 173l-159 -160zM461 717q0 -130 39 -236l614 613q-109 112 -260 112 q-180 0 -286.5 -132t-106.5 -357zM586 340q105 -111 268 -111q181 0 288 131.5t107 356.5q0 130 -47 239z" />
<glyph unicode="&#xd9;" horiz-adv-x="1447" d="M164 580q0 -308 133.5 -455.5t425.5 -147.5t426.5 147.5t134.5 455.5v854h-266v-910q0 -161 -69 -228t-224 -67q-154 0 -219.5 67t-65.5 230v908h-276v-854zM449 1839h206l179 -307h-158z" />
<glyph unicode="&#xda;" horiz-adv-x="1447" d="M164 580q0 -308 133.5 -455.5t425.5 -147.5t426.5 147.5t134.5 455.5v854h-266v-910q0 -161 -69 -228t-224 -67q-154 0 -219.5 67t-65.5 230v908h-276v-854zM633 1532l176 307h211l-232 -307h-155z" />
<glyph unicode="&#xdb;" horiz-adv-x="1447" d="M164 580q0 -308 133.5 -455.5t425.5 -147.5t426.5 147.5t134.5 455.5v854h-266v-910q0 -161 -69 -228t-224 -67q-154 0 -219.5 67t-65.5 230v908h-276v-854zM442 1534l181 307h204l179 -307h-158l-125 166l-123 -166h-158z" />
<glyph unicode="&#xdc;" horiz-adv-x="1447" d="M164 580q0 -308 133.5 -455.5t425.5 -147.5t426.5 147.5t134.5 455.5v854h-266v-910q0 -161 -69 -228t-224 -67q-154 0 -219.5 67t-65.5 230v908h-276v-854zM434 1573v225h221v-225h-221zM786 1573v225h226v-225h-226z" />
<glyph unicode="&#xdd;" horiz-adv-x="1290" d="M41 1434h311l295 -615h8l299 615h295l-465 -885v-549h-276v549zM573 1532l177 307h211l-232 -307h-156z" />
<glyph unicode="&#xde;" horiz-adv-x="1273" d="M164 0v1434h270v-254h191q273 0 420 -115.5t147 -347.5q0 -233 -146 -347t-419 -114h-193v-256h-270zM434 504h197q138 0 207 48.5t69 164.5q0 118 -69 166.5t-207 48.5h-197v-428z" />
<glyph unicode="&#xdf;" horiz-adv-x="1157" d="M143 0v1087q0 194 122.5 304t328.5 110q85 0 161 -25t136.5 -73t96.5 -125.5t36 -173.5q0 -94 -55.5 -177t-130.5 -112v-8q120 -44 178.5 -143t58.5 -234q0 -126 -66 -231t-175 -163.5t-234 -58.5q-76 0 -127 15v237h29q34 -20 84 -20q103 3 162 69t59 173 q1 108 -77.5 167t-186.5 64h-23v229h21q213 4 213 189q0 74 -40 122t-128 48q-78 0 -129 -56.5t-54 -142.5v-1071h-260z" />
<glyph unicode="&#xe0;" horiz-adv-x="1142" d="M84 328q-3 141 87 234.5t222 113.5l326 51q0 37 -23.5 66.5t-58.5 45t-70 23.5t-65 8q-71 0 -149 -16.5t-136 -46.5h-29v237q171 52 318 52q97 0 178.5 -19.5t149.5 -60.5t106.5 -113t38.5 -170v-733h-250v90h-8q-113 -113 -260 -113q-161 0 -267 97.5t-110 253.5z M297 1479h207l178 -308h-158zM346 342q0 -70 45.5 -103.5t116.5 -33.5q104 0 211 74v241q-33 -6 -115 -19.5t-133 -23.5q-125 -24 -125 -135z" />
<glyph unicode="&#xe1;" horiz-adv-x="1142" d="M84 328q-3 141 87 234.5t222 113.5l326 51q0 37 -23.5 66.5t-58.5 45t-70 23.5t-65 8q-71 0 -149 -16.5t-136 -46.5h-29v237q171 52 318 52q97 0 178.5 -19.5t149.5 -60.5t106.5 -113t38.5 -170v-733h-250v90h-8q-113 -113 -260 -113q-161 0 -267 97.5t-110 253.5z M346 342q0 -70 45.5 -103.5t116.5 -33.5q104 0 211 74v241q-33 -6 -115 -19.5t-133 -23.5q-125 -24 -125 -135zM459 1171l176 308h211l-232 -308h-155z" />
<glyph unicode="&#xe2;" horiz-adv-x="1142" d="M84 328q-3 141 87 234.5t222 113.5l326 51q0 37 -23.5 66.5t-58.5 45t-70 23.5t-65 8q-71 0 -149 -16.5t-136 -46.5h-29v237q171 52 318 52q97 0 178.5 -19.5t149.5 -60.5t106.5 -113t38.5 -170v-733h-250v90h-8q-113 -113 -260 -113q-161 0 -267 97.5t-110 253.5z M309 1174l180 307h205l178 -307h-157l-125 165l-123 -165h-158zM346 342q0 -70 45.5 -103.5t116.5 -33.5q104 0 211 74v241q-33 -6 -115 -19.5t-133 -23.5q-125 -24 -125 -135z" />
<glyph unicode="&#xe3;" horiz-adv-x="1142" d="M84 328q-3 141 87 234.5t222 113.5l326 51q0 37 -23.5 66.5t-58.5 45t-70 23.5t-65 8q-71 0 -149 -16.5t-136 -46.5h-29v237q171 52 318 52q97 0 178.5 -19.5t149.5 -60.5t106.5 -113t38.5 -170v-733h-250v90h-8q-113 -113 -260 -113q-161 0 -267 97.5t-110 253.5z M221 1270q93 159 242 162q90 0 158 -43q9 -5 25.5 -17t26.5 -18t26.5 -11.5t33.5 -5.5q25 0 44 12t28.5 25.5t23.5 40.5l134 -72q-43 -79 -99 -120t-141 -41q-81 0 -148 37q-11 6 -36.5 22.5t-43.5 23.5t-40 7q-25 0 -44.5 -11.5t-29 -23.5t-27.5 -39zM346 342 q0 -70 45.5 -103.5t116.5 -33.5q104 0 211 74v241q-33 -6 -115 -19.5t-133 -23.5q-125 -24 -125 -135z" />
<glyph unicode="&#xe4;" horiz-adv-x="1142" d="M84 328q-3 141 87 234.5t222 113.5l326 51q0 37 -23.5 66.5t-58.5 45t-70 23.5t-65 8q-71 0 -149 -16.5t-136 -46.5h-29v237q171 52 318 52q97 0 178.5 -19.5t149.5 -60.5t106.5 -113t38.5 -170v-733h-250v90h-8q-113 -113 -260 -113q-161 0 -267 97.5t-110 253.5z M303 1212v226h221v-226h-221zM346 342q0 -70 45.5 -103.5t116.5 -33.5q104 0 211 74v241q-33 -6 -115 -19.5t-133 -23.5q-125 -24 -125 -135zM655 1212v226h226v-226h-226z" />
<glyph unicode="&#xe5;" horiz-adv-x="1142" d="M84 328q-3 141 87 234.5t222 113.5l326 51q0 37 -23.5 66.5t-58.5 45t-70 23.5t-65 8q-71 0 -149 -16.5t-136 -46.5h-29v237q171 52 318 52q97 0 178.5 -19.5t149.5 -60.5t106.5 -113t38.5 -170v-733h-250v90h-8q-113 -113 -260 -113q-161 0 -267 97.5t-110 253.5z M346 342q0 -70 45.5 -103.5t116.5 -33.5q104 0 211 74v241q-33 -6 -115 -19.5t-133 -23.5q-125 -24 -125 -135zM352 1337q0 83 57 140t140 57q82 0 140.5 -57t58.5 -140q0 -81 -58.5 -137.5t-140.5 -56.5q-83 0 -140 56t-57 138zM463 1337q0 -36 25 -61t61 -25 q37 0 61.5 24.5t24.5 61.5q0 36 -25 61t-61 25q-35 0 -60.5 -25.5t-25.5 -60.5z" />
<glyph unicode="&#xe6;" horiz-adv-x="1757" d="M84 328q-3 141 87 234.5t222 113.5l352 51q0 49 -46 83.5t-97 47t-94 12.5q-72 0 -152.5 -16.5t-138.5 -46.5h-29v237q171 52 318 52q245 0 368 -131h11q108 131 307 131q110 0 196.5 -36t142 -97.5t89.5 -147t45.5 -180t5.5 -201.5h-702q11 -80 62 -134.5t119.5 -77.5 t149.5 -23q169 0 287 67h29v-237q-148 -52 -336 -52q-253 0 -403 144h-11q-75 -60 -184 -102.5t-221 -43.5q-160 -2 -266.5 97.5t-110.5 255.5zM346 342q0 -70 45.5 -103.5t116.5 -33.5q108 0 231 74q-46 100 -49 233q-13 -2 -94 -14.5t-125 -20.5q-125 -24 -125 -135z M971 649h436q-9 104 -62 162t-149 59q-97 0 -156.5 -62t-68.5 -159z" />
<glyph unicode="&#xe7;" horiz-adv-x="1036" d="M102 537q0 115 35 216t100.5 177.5t167 121t226.5 44.5q158 0 321 -66v-237h-28q-47 37 -123.5 54t-155.5 17q-148 0 -211 -86.5t-63 -242.5q0 -64 14 -119t44.5 -103t86 -76t129.5 -28q174 0 281 63h28v-237q-106 -48 -258 -55l-6 -39q46 -7 83.5 -21t69.5 -37.5 t50 -59.5t18 -83q0 -110 -75.5 -171t-182.5 -61q-125 0 -243 80l88 117h8q68 -47 143 -47q103 0 103 78q0 37 -42 63t-93.5 34.5t-92.5 4.5l27 146q-135 18 -238 97t-157 197.5t-54 258.5z" />
<glyph unicode="&#xe8;" horiz-adv-x="1169" d="M102 530q0 81 18.5 160t59 153t98 130t142 89.5t184.5 33.5q110 0 196.5 -36t142 -97.5t89.5 -147t45.5 -180t5.5 -201.5h-702q8 -61 39.5 -107.5t78 -73.5t100.5 -40.5t114 -13.5q168 0 286 67h29v-237q-148 -52 -336 -52q-175 0 -306.5 62.5t-207.5 188.5t-76 302z M371 1479h207l178 -308h-158zM383 649h436q-9 104 -62 162.5t-149 58.5q-97 0 -156.5 -62t-68.5 -159z" />
<glyph unicode="&#xe9;" horiz-adv-x="1169" d="M102 530q0 81 18.5 160t59 153t98 130t142 89.5t184.5 33.5q110 0 196.5 -36t142 -97.5t89.5 -147t45.5 -180t5.5 -201.5h-702q8 -61 39.5 -107.5t78 -73.5t100.5 -40.5t114 -13.5q168 0 286 67h29v-237q-148 -52 -336 -52q-175 0 -306.5 62.5t-207.5 188.5t-76 302z M383 649h436q-9 104 -62 162.5t-149 58.5q-97 0 -156.5 -62t-68.5 -159zM535 1171l176 308h211l-232 -308h-155z" />
<glyph unicode="&#xea;" horiz-adv-x="1169" d="M102 530q0 81 18.5 160t59 153t98 130t142 89.5t184.5 33.5q110 0 196.5 -36t142 -97.5t89.5 -147t45.5 -180t5.5 -201.5h-702q8 -61 39.5 -107.5t78 -73.5t100.5 -40.5t114 -13.5q168 0 286 67h29v-237q-148 -52 -336 -52q-175 0 -306.5 62.5t-207.5 188.5t-76 302z M344 1174l180 307h205l178 -307h-157l-125 165l-123 -165h-158zM383 649h436q-9 104 -62 162.5t-149 58.5q-97 0 -156.5 -62t-68.5 -159z" />
<glyph unicode="&#xeb;" horiz-adv-x="1169" d="M102 530q0 81 18.5 160t59 153t98 130t142 89.5t184.5 33.5q110 0 196.5 -36t142 -97.5t89.5 -147t45.5 -180t5.5 -201.5h-702q8 -61 39.5 -107.5t78 -73.5t100.5 -40.5t114 -13.5q168 0 286 67h29v-237q-148 -52 -336 -52q-175 0 -306.5 62.5t-207.5 188.5t-76 302z M336 1212v226h221v-226h-221zM383 649h436q-9 104 -62 162.5t-149 58.5q-97 0 -156.5 -62t-68.5 -159zM688 1212v226h225v-226h-225z" />
<glyph unicode="&#xec;" horiz-adv-x="546" d="M20 1479h207l179 -308h-158zM143 0v1073h260v-1073h-260z" />
<glyph unicode="&#xed;" horiz-adv-x="546" d="M141 1171l176 308h211l-231 -308h-156zM143 0v1073h260v-1073h-260z" />
<glyph unicode="&#xee;" horiz-adv-x="546" d="M-8 1174l180 307h205l178 -307h-158l-125 165l-122 -165h-158zM143 0v1073h260v-1073h-260z" />
<glyph unicode="&#xef;" horiz-adv-x="546" d="M-14 1212v226h221v-226h-221zM143 0v1073h260v-1073h-260zM338 1212v226h225v-226h-225z" />
<glyph unicode="&#xf0;" horiz-adv-x="1249" d="M102 520q0 112 31.5 212.5t91 179.5t153 125t208.5 46q90 0 145 -30h8q-62 88 -170 178l-299 -109l-49 135l213 78q-178 118 -313 164h434q48 -28 111 -76l213 76l53 -137l-139 -51q163 -155 258.5 -359t95.5 -438q0 -105 -37 -202t-102.5 -171.5t-164.5 -119t-214 -44.5 q-237 0 -382 154t-145 389zM360 522q0 -127 73 -220t198 -93q82 0 143 48.5t89 121t28 156.5t-27 155t-89.5 119.5t-151.5 48.5q-86 0 -147.5 -50t-88.5 -124t-27 -162z" />
<glyph unicode="&#xf1;" d="M143 0v1073h252v-65h6q172 88 308 88q170 0 276.5 -110.5t106.5 -289.5v-696h-261v678q0 83 -39 134.5t-122 51.5q-63 0 -137 -25t-130 -63v-776h-260zM266 1270q93 159 242 162q90 0 158 -43q9 -5 25.5 -17t26.5 -18t26.5 -11.5t33.5 -5.5q25 0 44 12t28.5 25.5 t23.5 40.5l134 -72q-43 -79 -99 -120t-141 -41q-80 0 -147 37q-12 6 -30 17.5t-29 18t-28 12t-34 5.5q-25 0 -44.5 -11.5t-29 -23.5t-27.5 -39z" />
<glyph unicode="&#xf2;" horiz-adv-x="1228" d="M102 537q0 254 142 406.5t372 152.5q229 0 369.5 -152.5t140.5 -406.5t-140 -407t-370 -153t-372 153t-142 407zM360 1479h207l178 -308h-157zM371 537q0 -150 67 -239t176 -89q111 0 177.5 89t66.5 239t-67 238.5t-177 88.5t-176.5 -88.5t-66.5 -238.5z" />
<glyph unicode="&#xf3;" horiz-adv-x="1228" d="M102 537q0 254 142 406.5t372 152.5q229 0 369.5 -152.5t140.5 -406.5t-140 -407t-370 -153t-372 153t-142 407zM371 537q0 -150 67 -239t176 -89q111 0 177.5 89t66.5 239t-67 238.5t-177 88.5t-176.5 -88.5t-66.5 -238.5zM522 1171l176 308h211l-231 -308h-156z" />
<glyph unicode="&#xf4;" horiz-adv-x="1228" d="M102 537q0 254 142 406.5t372 152.5q229 0 369.5 -152.5t140.5 -406.5t-140 -407t-370 -153t-372 153t-142 407zM332 1174l180 307h205l178 -307h-158l-125 165l-123 -165h-157zM371 537q0 -150 67 -239t176 -89q111 0 177.5 89t66.5 239t-67 238.5t-177 88.5 t-176.5 -88.5t-66.5 -238.5z" />
<glyph unicode="&#xf5;" horiz-adv-x="1228" d="M102 537q0 254 142 406.5t372 152.5q229 0 369.5 -152.5t140.5 -406.5t-140 -407t-370 -153t-372 153t-142 407zM244 1270q93 159 241 162q90 0 158 -43q8 -5 25.5 -17t27 -18t26.5 -11.5t34 -5.5q25 0 44 12t28.5 25.5t23.5 40.5l133 -72q-43 -79 -99 -120t-141 -41 q-80 0 -147 37q-12 6 -30 17.5t-29 18t-28 12t-34 5.5q-25 0 -44.5 -12t-28.5 -23t-27 -39zM371 537q0 -150 67 -239t176 -89q111 0 177.5 89t66.5 239t-67 238.5t-177 88.5t-176.5 -88.5t-66.5 -238.5z" />
<glyph unicode="&#xf6;" horiz-adv-x="1228" d="M102 537q0 254 142 406.5t372 152.5q229 0 369.5 -152.5t140.5 -406.5t-140 -407t-370 -153t-372 153t-142 407zM326 1212v226h221v-226h-221zM371 537q0 -150 67 -239t176 -89q111 0 177.5 89t66.5 239t-67 238.5t-177 88.5t-176.5 -88.5t-66.5 -238.5zM678 1212v226 h225v-226h-225z" />
<glyph unicode="&#xf7;" horiz-adv-x="1243" d="M143 444v183h957v-183h-957zM485 0v274h273v-274h-273zM485 803v270h273v-270h-273z" />
<glyph unicode="&#xf8;" horiz-adv-x="1294" d="M102 96l123 123q-78 137 -78 318q0 253 142.5 406t372.5 153q192 0 327 -113l101 100l102 -104l-107 -107q86 -141 86 -335q0 -254 -140 -407t-369 -153q-208 0 -345 125l-110 -110zM416 537q0 -63 12 -115l381 381q-64 61 -150 61q-110 0 -176.5 -88.5t-66.5 -238.5z M498 283q65 -74 161 -74q111 0 177.5 89t66.5 239q0 73 -18 135z" />
<glyph unicode="&#xf9;" d="M143 377v696h260v-678q0 -82 40 -134t122 -52q63 0 136.5 25t129.5 63v776h261v-1073h-252v66h-6q-182 -89 -308 -89q-170 0 -276.5 110.5t-106.5 289.5zM342 1479h207l178 -308h-158z" />
<glyph unicode="&#xfa;" d="M143 377v696h260v-678q0 -82 40 -134t122 -52q63 0 136.5 25t129.5 63v776h261v-1073h-252v66h-6q-182 -89 -308 -89q-170 0 -276.5 110.5t-106.5 289.5zM526 1171l176 308h211l-231 -308h-156z" />
<glyph unicode="&#xfb;" d="M143 377v696h260v-678q0 -82 40 -134t122 -52q63 0 136.5 25t129.5 63v776h261v-1073h-252v66h-6q-182 -89 -308 -89q-170 0 -276.5 110.5t-106.5 289.5zM336 1174l180 307h205l178 -307h-158l-125 165l-122 -165h-158z" />
<glyph unicode="&#xfc;" d="M143 377v696h260v-678q0 -82 40 -134t122 -52q63 0 136.5 25t129.5 63v776h261v-1073h-252v66h-6q-182 -89 -308 -89q-170 0 -276.5 110.5t-106.5 289.5zM328 1212v226h221v-226h-221zM680 1212v226h225v-226h-225z" />
<glyph unicode="&#xfd;" horiz-adv-x="1177" d="M41 1073h285l282 -719h10l259 719h260l-473 -1304q-54 -149 -166 -205t-308 -56h-26v226h53t44.5 1.5t40 4t32.5 7t30 11.5t23.5 17.5t22.5 25t18 32.5t18 42l46 125zM518 1171l176 308h211l-231 -308h-156z" />
<glyph unicode="&#xfe;" horiz-adv-x="1200" d="M143 -492v1993h260v-452h11q85 47 196 47q239 0 363.5 -149.5t124.5 -409.5q0 -122 -29 -222.5t-87 -177t-153 -118.5t-219 -42q-110 0 -196 48h-11v-517h-260zM403 236q91 -27 183 -27q134 0 188.5 84t54.5 244q0 59 -6 105t-22 89t-42.5 71t-70 45t-102.5 17 q-95 0 -183 -26v-602z" />
<glyph unicode="&#xff;" horiz-adv-x="1177" d="M41 1073h285l282 -719h10l259 719h260l-473 -1304q-54 -149 -166 -205t-308 -56h-26v226h53t44.5 1.5t40 4t32.5 7t30 11.5t23.5 17.5t22.5 25t18 32.5t18 42l46 125zM299 1212v226h221v-226h-221zM651 1212v226h226v-226h-226z" />
<glyph unicode="&#x100;" horiz-adv-x="1417" d="M20 0l496 1323q21 58 74.5 92.5t116.5 34.5q64 0 115 -35t73 -92l502 -1323h-293l-123 334h-561l-125 -334h-275zM352 1561v100h713v-100h-713zM508 578h385l-188 524h-9z" />
<glyph unicode="&#x101;" horiz-adv-x="1142" d="M84 328q-3 141 87 234.5t222 113.5l326 51q0 37 -23.5 66.5t-58.5 45t-70 23.5t-65 8q-71 0 -149 -16.5t-136 -46.5h-29v237q171 52 318 52q97 0 178.5 -19.5t149.5 -60.5t106.5 -113t38.5 -170v-733h-250v90h-8q-113 -113 -260 -113q-161 0 -267 97.5t-110 253.5z M236 1200v100h712v-100h-712zM346 342q0 -70 45.5 -103.5t116.5 -33.5q104 0 211 74v241q-33 -6 -115 -19.5t-133 -23.5q-125 -24 -125 -135z" />
<glyph unicode="&#x102;" horiz-adv-x="1417" d="M20 0l496 1323q21 58 74.5 92.5t116.5 34.5q64 0 115 -35t73 -92l502 -1323h-293l-123 334h-561l-125 -334h-275zM385 1786h129q27 -48 74.5 -65t118.5 -17q74 0 121 17t71 65h131q-37 -115 -117.5 -178.5t-205.5 -63.5q-122 0 -203 64t-119 178zM508 578h385l-188 524 h-9z" />
<glyph unicode="&#x103;" horiz-adv-x="1142" d="M84 328q-3 141 87 234.5t222 113.5l326 51q0 37 -23.5 66.5t-58.5 45t-70 23.5t-65 8q-71 0 -149 -16.5t-136 -46.5h-29v237q171 52 318 52q97 0 178.5 -19.5t149.5 -60.5t106.5 -113t38.5 -170v-733h-250v90h-8q-113 -113 -260 -113q-161 0 -267 97.5t-110 253.5z M268 1425h129q27 -48 74.5 -65t118.5 -17q74 0 121 17t71 65h131q-37 -114 -117.5 -177.5t-205.5 -63.5q-122 0 -203 63.5t-119 177.5zM346 342q0 -70 45.5 -103.5t116.5 -33.5q104 0 211 74v241q-33 -6 -115 -19.5t-133 -23.5q-125 -24 -125 -135z" />
<glyph unicode="&#x104;" horiz-adv-x="1417" d="M20 0l496 1323q21 58 74.5 92.5t116.5 34.5q64 0 115 -35t73 -92l502 -1323h-97q-94 -116 -94 -238q0 -30 18.5 -51.5t50 -31t60.5 -13.5t62 -4v-154q-313 9 -359 181q-36 139 101 311h-35l-123 334h-561l-125 -334h-275zM508 578h385l-188 524h-9z" />
<glyph unicode="&#x105;" horiz-adv-x="1142" d="M84 328q-3 141 87 234.5t222 113.5l326 51q0 37 -23.5 66.5t-58.5 45t-70 23.5t-65 8q-71 0 -149 -16.5t-136 -46.5h-29v237q171 52 318 52q97 0 178.5 -19.5t149.5 -60.5t106.5 -113t38.5 -170v-733h-76q-94 -116 -94 -238q0 -30 18.5 -51.5t49.5 -31t60 -13.5t62 -4 v-154q-312 9 -358 181q-36 140 100 311h-12v90h-8q-113 -113 -260 -113q-161 0 -267 97.5t-110 253.5zM346 342q0 -70 45.5 -103.5t116.5 -33.5q104 0 211 74v241q-33 -6 -115 -19.5t-133 -23.5q-125 -24 -125 -135z" />
<glyph unicode="&#x106;" horiz-adv-x="1308" d="M123 725q0 120 29.5 229.5t88.5 201t142.5 158.5t196 104.5t243.5 37.5q177 0 377 -74v-262h-33q-69 39 -164 61.5t-180 22.5q-105 0 -186 -38t-130.5 -105.5t-74 -154t-24.5 -189.5q0 -76 14 -145t45.5 -132t79 -109.5t119.5 -74t161 -27.5q85 0 182 23t165 63h32v-262 q-200 -76 -377 -76q-216 0 -377 96t-245 265t-84 387zM727 1532l176 307h211l-231 -307h-156z" />
<glyph unicode="&#x107;" horiz-adv-x="1036" d="M102 537q0 115 35 216t100.5 177.5t167 121t226.5 44.5q158 0 321 -66v-237h-28q-47 37 -123.5 54t-155.5 17q-148 0 -211 -86.5t-63 -242.5q0 -64 14 -119t44.5 -103t86 -76t129.5 -28q174 0 281 63h28v-237q-129 -58 -323 -58q-156 0 -278.5 77t-186.5 204t-64 279z M559 1171l176 308h211l-231 -308h-156z" />
<glyph unicode="&#x108;" horiz-adv-x="1308" d="M123 725q0 120 29.5 229.5t88.5 201t142.5 158.5t196 104.5t243.5 37.5q177 0 377 -74v-262h-33q-69 39 -164 61.5t-180 22.5q-105 0 -186 -38t-130.5 -105.5t-74 -154t-24.5 -189.5q0 -76 14 -145t45.5 -132t79 -109.5t119.5 -74t161 -27.5q85 0 182 23t165 63h32v-262 q-200 -76 -377 -76q-216 0 -377 96t-245 265t-84 387zM537 1534l180 307h205l178 -307h-158l-125 166l-123 -166h-157z" />
<glyph unicode="&#x109;" horiz-adv-x="1036" d="M102 537q0 115 35 216t100.5 177.5t167 121t226.5 44.5q158 0 321 -66v-237h-28q-47 37 -123.5 54t-155.5 17q-148 0 -211 -86.5t-63 -242.5q0 -64 14 -119t44.5 -103t86 -76t129.5 -28q174 0 281 63h28v-237q-129 -58 -323 -58q-156 0 -278.5 77t-186.5 204t-64 279z M338 1174l180 307h205l178 -307h-158l-125 165l-122 -165h-158z" />
<glyph unicode="&#x10a;" horiz-adv-x="1308" d="M123 725q0 120 29.5 229.5t88.5 201t142.5 158.5t196 104.5t243.5 37.5q177 0 377 -74v-262h-33q-69 39 -164 61.5t-180 22.5q-105 0 -186 -38t-130.5 -105.5t-74 -154t-24.5 -189.5q0 -76 14 -145t45.5 -132t79 -109.5t119.5 -74t161 -27.5q85 0 182 23t165 63h32v-262 q-200 -76 -377 -76q-216 0 -377 96t-245 265t-84 387zM723 1573v225h221v-225h-221z" />
<glyph unicode="&#x10b;" horiz-adv-x="1036" d="M102 537q0 115 35 216t100.5 177.5t167 121t226.5 44.5q158 0 321 -66v-237h-28q-47 37 -123.5 54t-155.5 17q-148 0 -211 -86.5t-63 -242.5q0 -64 14 -119t44.5 -103t86 -76t129.5 -28q174 0 281 63h28v-237q-129 -58 -323 -58q-156 0 -278.5 77t-186.5 204t-64 279z M530 1212v226h222v-226h-222z" />
<glyph unicode="&#x10c;" horiz-adv-x="1308" d="M123 725q0 120 29.5 229.5t88.5 201t142.5 158.5t196 104.5t243.5 37.5q177 0 377 -74v-262h-33q-69 39 -164 61.5t-180 22.5q-105 0 -186 -38t-130.5 -105.5t-74 -154t-24.5 -189.5q0 -76 14 -145t45.5 -132t79 -109.5t119.5 -74t161 -27.5q85 0 182 23t165 63h32v-262 q-200 -76 -377 -76q-216 0 -377 96t-245 265t-84 387zM547 1839h153l127 -168l125 168h158l-178 -307h-205z" />
<glyph unicode="&#x10d;" horiz-adv-x="1036" d="M102 537q0 115 35 216t100.5 177.5t167 121t226.5 44.5q158 0 321 -66v-237h-28q-47 37 -123.5 54t-155.5 17q-148 0 -211 -86.5t-63 -242.5q0 -64 14 -119t44.5 -103t86 -76t129.5 -28q174 0 281 63h28v-237q-129 -58 -323 -58q-156 0 -278.5 77t-186.5 204t-64 279z M358 1479h154l127 -168l125 168h158l-179 -308h-204z" />
<glyph unicode="&#x10e;" horiz-adv-x="1464" d="M164 0v1157q0 114 81.5 195.5t196.5 81.5h238q309 0 485 -182.5t176 -534.5t-176 -534.5t-485 -182.5h-516zM430 1839h154l127 -168l125 168h157l-178 -307h-205zM440 252h240q92 0 159 21.5t109 59t66.5 97.5t33.5 127.5t9 159.5t-9 159.5t-33.5 127.5t-66.5 97.5 t-109 59t-159 21.5h-174q-28 0 -47 -19t-19 -45v-866z" />
<glyph unicode="&#x10f;" horiz-adv-x="1452" d="M102 553q0 117 30.5 215t89.5 172t153 115t215 41q111 0 196 -47h11v452h260v-1263q0 -108 -75.5 -184.5t-182.5 -76.5h-174q-135 0 -237.5 44.5t-164 124.5t-91.5 182t-30 225zM371 553q0 -86 11 -144.5t40.5 -106.5t85.5 -70.5t141 -22.5h86q25 0 43.5 17.5t18.5 41.5 v570q-88 26 -183 26q-66 0 -114.5 -23.5t-76 -67t-40 -98t-12.5 -122.5zM1176 926l151 575h260l-252 -575h-159z" />
<glyph unicode="&#x110;" horiz-adv-x="1464" d="M20 678v182h144v297q0 114 81.5 195.5t196.5 81.5h238q309 0 485 -182.5t176 -534.5t-176 -534.5t-485 -182.5h-516v678h-144zM440 252h240q92 0 159 21.5t109 59t66.5 97.5t33.5 127.5t9 159.5t-9 159.5t-33.5 127.5t-66.5 97.5t-109 59t-159 21.5h-174q-28 0 -47 -19 t-19 -45v-258h381v-182h-381v-426z" />
<glyph unicode="&#x111;" horiz-adv-x="1202" d="M102 553q0 117 30.5 215t89.5 172t153 115t215 41q111 0 196 -47h11v223h-326v112h326v117h260v-117h129v-112h-129v-1034q0 -108 -75.5 -184.5t-182.5 -76.5h-174q-135 0 -237.5 44.5t-164 124.5t-91.5 182t-30 225zM371 553q0 -86 11 -144.5t40.5 -106.5t85.5 -70.5 t141 -22.5h86q25 0 43.5 17.5t18.5 41.5v570q-88 26 -183 26q-66 0 -114.5 -23.5t-76 -67t-40 -98t-12.5 -122.5z" />
<glyph unicode="&#x112;" horiz-adv-x="1218" d="M164 0v1157q0 114 80.5 195.5t195.5 81.5h717v-250h-651q-26 0 -46 -19t-20 -45v-246h531v-239h-531v-385h717v-250h-993zM354 1561v100h713v-100h-713z" />
<glyph unicode="&#x113;" horiz-adv-x="1169" d="M102 530q0 81 18.5 160t59 153t98 130t142 89.5t184.5 33.5q110 0 196.5 -36t142 -97.5t89.5 -147t45.5 -180t5.5 -201.5h-702q8 -61 39.5 -107.5t78 -73.5t100.5 -40.5t114 -13.5q168 0 286 67h29v-237q-148 -52 -336 -52q-175 0 -306.5 62.5t-207.5 188.5t-76 302z M289 1200v100h712v-100h-712zM383 649h436q-9 104 -62 162.5t-149 58.5q-97 0 -156.5 -62t-68.5 -159z" />
<glyph unicode="&#x116;" horiz-adv-x="1218" d="M164 0v1157q0 114 80.5 195.5t195.5 81.5h717v-250h-651q-26 0 -46 -19t-20 -45v-246h531v-239h-531v-385h717v-250h-993zM600 1573v225h221v-225h-221z" />
<glyph unicode="&#x117;" horiz-adv-x="1169" d="M102 530q0 81 18.5 160t59 153t98 130t142 89.5t184.5 33.5q110 0 196.5 -36t142 -97.5t89.5 -147t45.5 -180t5.5 -201.5h-702q8 -61 39.5 -107.5t78 -73.5t100.5 -40.5t114 -13.5q168 0 286 67h29v-237q-148 -52 -336 -52q-175 0 -306.5 62.5t-207.5 188.5t-76 302z M383 649h436q-9 104 -62 162.5t-149 58.5q-97 0 -156.5 -62t-68.5 -159zM514 1212v226h221v-226h-221z" />
<glyph unicode="&#x118;" horiz-adv-x="1218" d="M164 0v1157q0 114 80.5 195.5t195.5 81.5h717v-250h-651q-26 0 -46 -19t-20 -45v-246h531v-239h-531v-385h717v-250h-96q-94 -116 -94 -238q0 -30 18.5 -51.5t49.5 -31t60 -13.5t62 -4v-154q-312 9 -358 181q-36 140 100 311h-735z" />
<glyph unicode="&#x119;" horiz-adv-x="1169" d="M102 530q0 81 18.5 160t59 153t98 130t142 89.5t184.5 33.5q110 0 196.5 -36t142 -97.5t89.5 -147t45.5 -180t5.5 -201.5h-702q8 -61 39.5 -107.5t78 -73.5t100.5 -40.5t114 -13.5q168 0 286 67h29v-237q-140 -49 -305 -52q-76 -106 -76 -215q0 -30 18.5 -51.5t50 -31 t60.5 -13.5t62 -4v-154q-313 9 -359 181q-36 131 90 299q-216 30 -341.5 170t-125.5 372zM383 649h436q-9 104 -62 162.5t-149 58.5q-97 0 -156.5 -62t-68.5 -159z" />
<glyph unicode="&#x11a;" horiz-adv-x="1218" d="M164 0v1157q0 114 80.5 195.5t195.5 81.5h717v-250h-651q-26 0 -46 -19t-20 -45v-246h531v-239h-531v-385h717v-250h-993zM410 1839h153l127 -168l125 168h158l-178 -307h-205z" />
<glyph unicode="&#x11b;" horiz-adv-x="1169" d="M102 530q0 81 18.5 160t59 153t98 130t142 89.5t184.5 33.5q110 0 196.5 -36t142 -97.5t89.5 -147t45.5 -180t5.5 -201.5h-702q8 -61 39.5 -107.5t78 -73.5t100.5 -40.5t114 -13.5q168 0 286 67h29v-237q-148 -52 -336 -52q-175 0 -306.5 62.5t-207.5 188.5t-76 302z M344 1479h154l127 -168l125 168h157l-178 -308h-205zM383 649h436q-9 104 -62 162.5t-149 58.5q-97 0 -156.5 -62t-68.5 -159z" />
<glyph unicode="&#x11c;" horiz-adv-x="1433" d="M123 717q0 154 47 288t134.5 234.5t222 158.5t300.5 58q205 0 412 -72v-262h-33q-164 82 -366 82q-143 0 -242 -65.5t-144.5 -173.5t-45.5 -250q0 -228 121 -357t350 -129q86 0 163 23v270h-264v246h533v-721q-257 -70 -471 -70q-334 0 -525.5 202t-191.5 538zM557 1534 l180 307h205l178 -307h-157l-125 166l-123 -166h-158z" />
<glyph unicode="&#x11d;" horiz-adv-x="1200" d="M102 518q0 123 30 225.5t91.5 182.5t164 125t237.5 45h174q107 0 182.5 -77t75.5 -185v-781q0 -281 -138 -412t-413 -133q-54 0 -112.5 9t-97.5 19t-106 30v237h29q133 -65 289 -65q121 0 205 65t84 166v56h-9q-86 -48 -198 -48q-121 0 -215 41t-153 114t-89.5 171 t-30.5 215zM338 1174l180 307h205l178 -307h-158l-125 165l-122 -165h-158zM371 518q0 -68 12.5 -122t40 -97t76 -66.5t114.5 -23.5q92 0 183 27v567q0 24 -18.5 41.5t-43.5 17.5h-86q-85 0 -141 -22.5t-85.5 -70.5t-40.5 -106.5t-11 -144.5z" />
<glyph unicode="&#x11e;" horiz-adv-x="1433" d="M123 717q0 154 47 288t134.5 234.5t222 158.5t300.5 58q205 0 412 -72v-262h-33q-164 82 -366 82q-143 0 -242 -65.5t-144.5 -173.5t-45.5 -250q0 -228 121 -357t350 -129q86 0 163 23v270h-264v246h533v-721q-257 -70 -471 -70q-334 0 -525.5 202t-191.5 538zM518 1786 h129q27 -48 74.5 -65t118.5 -17q74 0 121 17t71 65h131q-37 -115 -117.5 -178.5t-205.5 -63.5q-122 0 -203 64t-119 178z" />
<glyph unicode="&#x11f;" horiz-adv-x="1200" d="M102 518q0 123 30 225.5t91.5 182.5t164 125t237.5 45h174q107 0 182.5 -77t75.5 -185v-781q0 -281 -138 -412t-413 -133q-54 0 -112.5 9t-97.5 19t-106 30v237h29q133 -65 289 -65q121 0 205 65t84 166v56h-9q-86 -48 -198 -48q-121 0 -215 41t-153 114t-89.5 171 t-30.5 215zM317 1425h129q27 -48 74.5 -65t118.5 -17q74 0 121 17t71 65h132q-37 -114 -118 -177.5t-206 -63.5q-122 0 -203 63.5t-119 177.5zM371 518q0 -68 12.5 -122t40 -97t76 -66.5t114.5 -23.5q92 0 183 27v567q0 24 -18.5 41.5t-43.5 17.5h-86q-85 0 -141 -22.5 t-85.5 -70.5t-40.5 -106.5t-11 -144.5z" />
<glyph unicode="&#x120;" horiz-adv-x="1433" d="M123 717q0 154 47 288t134.5 234.5t222 158.5t300.5 58q205 0 412 -72v-262h-33q-164 82 -366 82q-143 0 -242 -65.5t-144.5 -173.5t-45.5 -250q0 -228 121 -357t350 -129q86 0 163 23v270h-264v246h533v-721q-257 -70 -471 -70q-334 0 -525.5 202t-191.5 538zM729 1573 v225h221v-225h-221z" />
<glyph unicode="&#x121;" horiz-adv-x="1200" d="M102 518q0 123 30 225.5t91.5 182.5t164 125t237.5 45h174q107 0 182.5 -77t75.5 -185v-781q0 -281 -138 -412t-413 -133q-54 0 -112.5 9t-97.5 19t-106 30v237h29q133 -65 289 -65q121 0 205 65t84 166v56h-9q-86 -48 -198 -48q-121 0 -215 41t-153 114t-89.5 171 t-30.5 215zM371 518q0 -68 12.5 -122t40 -97t76 -66.5t114.5 -23.5q92 0 183 27v567q0 24 -18.5 41.5t-43.5 17.5h-86q-85 0 -141 -22.5t-85.5 -70.5t-40.5 -106.5t-11 -144.5zM510 1212v226h221v-226h-221z" />
<glyph unicode="&#x122;" horiz-adv-x="1433" d="M123 717q0 154 47 288t134.5 234.5t222 158.5t300.5 58q205 0 412 -72v-262h-33q-164 82 -366 82q-143 0 -242 -65.5t-144.5 -173.5t-45.5 -250q0 -228 121 -357t350 -129q86 0 163 23v270h-264v246h533v-721q-257 -70 -471 -70q-334 0 -525.5 202t-191.5 538zM664 -492 l102 394h207l-172 -394h-137z" />
<glyph unicode="&#x123;" horiz-adv-x="1200" d="M102 518q0 123 30 225.5t91.5 182.5t164 125t237.5 45h174q107 0 182.5 -77t75.5 -185v-781q0 -281 -138 -412t-413 -133q-54 0 -112.5 9t-97.5 19t-106 30v237h29q133 -65 289 -65q121 0 205 65t84 166v56h-9q-86 -48 -198 -48q-121 0 -215 41t-153 114t-89.5 171 t-30.5 215zM371 518q0 -68 12.5 -122t40 -97t76 -66.5t114.5 -23.5q92 0 183 27v567q0 24 -18.5 41.5t-43.5 17.5h-86q-85 0 -141 -22.5t-85.5 -70.5t-40.5 -106.5t-11 -144.5zM496 1219l252 575h159l-151 -575h-260z" />
<glyph unicode="&#x124;" horiz-adv-x="1478" d="M164 0v1434h276v-560h602v560h273v-1434h-273v625h-602v-625h-276zM457 1534l180 307h205l178 -307h-158l-125 166l-123 -166h-157z" />
<glyph unicode="&#x125;" d="M143 0v1501h260v-491h7q161 86 303 86q164 0 271.5 -112t107.5 -286v-698h-261v676q0 84 -39.5 136t-121.5 52q-65 0 -139.5 -23t-127.5 -61v-780h-260zM457 1534l180 307h205l178 -307h-158l-125 166l-123 -166h-157z" />
<glyph unicode="&#x126;" horiz-adv-x="1478" d="M39 1063v141h125v230h276v-230h602v230h273v-230h123v-141h-123v-1063h-273v625h-602v-625h-276v1063h-125zM440 874h602v189h-602v-189z" />
<glyph unicode="&#x127;" d="M14 1272v112h129v117h260v-117h326v-112h-326v-262h7q161 86 303 86q164 0 271.5 -112t107.5 -286v-698h-261v676q0 84 -39.5 136t-121.5 52q-65 0 -139.5 -23t-127.5 -61v-780h-260v1272h-129z" />
<glyph unicode="&#x128;" horiz-adv-x="604" d="M-68 1630q93 159 242 162q90 0 158 -43q8 -5 25.5 -17t27 -17.5t26 -11t33.5 -5.5q36 0 56 19t41 59l133 -72q-43 -79 -99.5 -120.5t-140.5 -41.5q-80 0 -147 37q-12 6 -30 17.5t-29 18t-28 12t-34 5.5q-25 0 -44.5 -11.5t-28.5 -23t-27 -38.5zM164 0v1434h276v-1434 h-276z" />
<glyph unicode="&#x129;" horiz-adv-x="546" d="M-96 1270q93 159 241 162q90 0 158 -43q8 -5 25.5 -17t27 -18t26.5 -11.5t34 -5.5q25 0 44 12t28.5 25.5t23.5 40.5l133 -72q-43 -79 -99 -120t-140 -41q-81 0 -148 37q-12 6 -30 17.5t-29 18t-28 12t-34 5.5q-25 0 -44.5 -12t-28.5 -23t-27 -39zM143 0v1073h260v-1073 h-260z" />
<glyph unicode="&#x12a;" horiz-adv-x="604" d="M-53 1561v100h712v-100h-712zM164 0v1434h276v-1434h-276z" />
<glyph unicode="&#x12b;" horiz-adv-x="546" d="M-82 1200v100h713v-100h-713zM143 0v1073h260v-1073h-260z" />
<glyph unicode="&#x12e;" horiz-adv-x="604" d="M82 -311q-36 140 100 311h-18v1434h276v-1434h-96q-94 -116 -94 -238q0 -30 18.5 -51.5t49.5 -31t60 -13.5t62 -4v-154q-312 9 -358 181z" />
<glyph unicode="&#x12f;" horiz-adv-x="548" d="M43 -311q-36 140 100 311v1073h260v-1073h-98q-94 -116 -94 -238q0 -30 18.5 -51.5t49.5 -31t60 -13.5t62 -4v-154q-312 9 -358 181zM137 1178v256h273v-256h-273z" />
<glyph unicode="&#x130;" horiz-adv-x="604" d="M164 0v1434h276v-1434h-276zM190 1573v225h222v-225h-222z" />
<glyph unicode="&#x131;" horiz-adv-x="546" d="M143 0v1073h260v-1073h-260z" />
<glyph unicode="&#x134;" horiz-adv-x="686" d="M20 0h66q49 1 81.5 15t49.5 42.5t23 62.5t6 85v979h-160v250h436v-1176q0 -246 -101 -377t-327 -131h-74v250zM41 1534l180 307h205l178 -307h-158l-124 166l-123 -166h-158z" />
<glyph unicode="&#x135;" horiz-adv-x="620" d="M0 -260v-232q245 0 361 115.5t116 366.5v1083h-393v-225h133v-901q0 -115 -50 -161t-167 -46zM8 1174l180 307h205l178 -307h-157l-125 165l-123 -165h-158z" />
<glyph unicode="&#x136;" horiz-adv-x="1425" d="M164 0v1434h276v-560l533 560h362l-590 -590l660 -844h-356l-494 655l-115 -118v-537h-276zM537 -492l102 394h207l-172 -394h-137z" />
<glyph unicode="&#x137;" horiz-adv-x="1191" d="M143 0v1501h260v-776l385 348h361l-465 -401l487 -672h-321l-363 502l-84 -72v-430h-260zM399 -492l103 394h207l-172 -394h-138z" />
<glyph unicode="&#x138;" horiz-adv-x="1191" d="M143 0v1073h260v-348l385 348h361l-465 -401l487 -672h-321l-363 502l-84 -72v-430h-260z" />
<glyph unicode="&#x139;" horiz-adv-x="1110" d="M164 281v1153h276v-1119q0 -26 19 -45.5t45 -19.5h545v-250h-603q-117 0 -199.5 82.5t-82.5 198.5zM238 1532l176 307h211l-232 -307h-155z" />
<glyph unicode="&#x13a;" horiz-adv-x="753" d="M143 358v1143h260v-1184q0 -64 32 -86t100 -22q78 0 149 45h29v-234q-116 -43 -209 -43q-188 0 -274.5 94t-86.5 287zM197 1532l176 307h211l-232 -307h-155z" />
<glyph unicode="&#x13b;" horiz-adv-x="1110" d="M164 281v1153h276v-1119q0 -26 19 -45.5t45 -19.5h545v-250h-603q-117 0 -199.5 82.5t-82.5 198.5zM440 -492l103 394h207l-172 -394h-138z" />
<glyph unicode="&#x13c;" horiz-adv-x="753" d="M143 358v1143h260v-1184q0 -64 32 -86t100 -22q78 0 149 45h29v-234q-116 -43 -209 -43q-188 0 -274.5 94t-86.5 287zM242 -492l102 394h207l-172 -394h-137z" />
<glyph unicode="&#x13d;" horiz-adv-x="1110" d="M164 281v1153h276v-1119q0 -26 19 -45.5t45 -19.5h545v-250h-603q-117 0 -199.5 82.5t-82.5 198.5zM555 858l152 576h260l-252 -576h-160z" />
<glyph unicode="&#x13e;" horiz-adv-x="790" d="M143 358v1143h260v-1184q0 -64 32 -86t100 -22q78 0 149 45h29v-234q-116 -43 -209 -43q-188 0 -274.5 94t-86.5 287zM496 928l151 575h260l-252 -575h-159z" />
<glyph unicode="&#x141;" horiz-adv-x="1130" d="M-49 621l213 172v641h276v-416l131 106l115 -141l-246 -201v-467q0 -26 19 -45.5t45 -19.5h545v-250h-603q-117 0 -199.5 82.5t-82.5 198.5v278l-98 -80z" />
<glyph unicode="&#x142;" horiz-adv-x="753" d="M-72 621l215 174v706h260v-495l146 118l115 -141l-261 -211v-455q0 -64 32 -86t100 -22q78 0 149 45h29v-234q-116 -43 -209 -43q-188 0 -274.5 94t-86.5 287v203l-100 -82z" />
<glyph unicode="&#x143;" horiz-adv-x="1503" d="M164 0v1262q0 75 46 131t120 57q121 0 200 -121l543 -821h8v926h258v-1434h-264l-645 983h-8v-983h-258zM680 1532l176 307h211l-231 -307h-156z" />
<glyph unicode="&#x144;" d="M143 0v1073h252v-65h6q172 88 308 88q170 0 276.5 -110.5t106.5 -289.5v-696h-261v678q0 83 -39 134.5t-122 51.5q-63 0 -137 -25t-130 -63v-776h-260zM547 1171l176 308h211l-232 -308h-155z" />
<glyph unicode="&#x145;" horiz-adv-x="1503" d="M164 0v1262q0 75 46 131t120 57q121 0 200 -121l543 -821h8v926h258v-1434h-264l-645 983h-8v-983h-258zM535 -492l102 394h207l-172 -394h-137z" />
<glyph unicode="&#x146;" d="M143 0v1073h252v-65h6q172 88 308 88q170 0 276.5 -110.5t106.5 -289.5v-696h-261v678q0 83 -39 134.5t-122 51.5q-63 0 -137 -25t-130 -63v-776h-260zM401 -492l103 394h207l-172 -394h-138z" />
<glyph unicode="&#x147;" horiz-adv-x="1503" d="M164 0v1262q0 75 46 131t120 57q121 0 200 -121l543 -821h8v926h258v-1434h-264l-645 983h-8v-983h-258zM469 1839h154l127 -168l124 168h158l-178 -307h-205z" />
<glyph unicode="&#x148;" d="M143 0v1073h252v-65h6q172 88 308 88q170 0 276.5 -110.5t106.5 -289.5v-696h-261v678q0 83 -39 134.5t-122 51.5q-63 0 -137 -25t-130 -63v-776h-260zM377 1479h153l127 -168l125 168h158l-178 -308h-205z" />
<glyph unicode="&#x14a;" horiz-adv-x="1503" d="M164 0v1262q0 78 48.5 133t123.5 55q69 0 116.5 -31t84.5 -90l546 -856h7v961h249v-1418q0 -246 -101 -377t-327 -131h-73v250h65q49 1 81.5 15t49.5 42.5t23 62.5t6 85v25l-641 1005h-8v-993h-250z" />
<glyph unicode="&#x14b;" d="M143 0v1073h252v-65h6q180 88 308 88q170 0 276.5 -110.5t106.5 -289.5v-706q0 -251 -116.5 -366.5t-361.5 -115.5v232q117 0 167 46t50 161v731q0 82 -39.5 134t-121.5 52q-63 0 -137 -25t-130 -63v-776h-260z" />
<glyph unicode="&#x14c;" horiz-adv-x="1603" d="M123 717q0 333 189.5 536t488.5 203q197 0 351 -90.5t241.5 -259t87.5 -389.5q0 -166 -51 -305t-141 -234t-215.5 -148t-272.5 -53t-272.5 53t-215 148.5t-140 234t-50.5 304.5zM408 717q0 -225 106.5 -356.5t286.5 -131.5q181 0 288 131.5t107 356.5q0 207 -109.5 347 t-285.5 140q-181 0 -287 -131t-106 -356zM444 1561v100h713v-100h-713z" />
<glyph unicode="&#x14d;" horiz-adv-x="1228" d="M102 537q0 254 142 406.5t372 152.5q229 0 369.5 -152.5t140.5 -406.5t-140 -407t-370 -153t-372 153t-142 407zM258 1200v100h713v-100h-713zM371 537q0 -150 67 -239t176 -89q111 0 177.5 89t66.5 239t-67 238.5t-177 88.5t-176.5 -88.5t-66.5 -238.5z" />
<glyph unicode="&#x150;" horiz-adv-x="1603" d="M123 717q0 333 189.5 536t488.5 203q197 0 351 -90.5t241.5 -259t87.5 -389.5q0 -166 -51 -305t-141 -234t-215.5 -148t-272.5 -53t-272.5 53t-215 148.5t-140 234t-50.5 304.5zM408 717q0 -225 106.5 -356.5t286.5 -131.5q181 0 288 131.5t107 356.5q0 207 -109.5 347 t-285.5 140q-181 0 -287 -131t-106 -356zM510 1532l176 307h211l-231 -307h-156zM911 1532l176 307h211l-231 -307h-156z" />
<glyph unicode="&#x151;" horiz-adv-x="1228" d="M102 537q0 254 142 406.5t372 152.5q229 0 369.5 -152.5t140.5 -406.5t-140 -407t-370 -153t-372 153t-142 407zM322 1171l176 308h211l-232 -308h-155zM371 537q0 -150 67 -239t176 -89q111 0 177.5 89t66.5 239t-67 238.5t-177 88.5t-176.5 -88.5t-66.5 -238.5z M723 1171l176 308h211l-231 -308h-156z" />
<glyph unicode="&#x152;" horiz-adv-x="2088" d="M125 709q0 115 23.5 222.5t73.5 203t121 167t173.5 113t224.5 41.5q116 0 224 -42.5t176 -125.5q41 78 100 112t166 34h621v-256h-596q-28 0 -47 -19t-19 -45v-240h475v-239h-475v-381h662v-254h-934v104q-68 -63 -161 -95t-192 -32q-142 0 -259.5 58.5t-195 158.5 t-119.5 233t-42 282zM410 702q0 -68 12.5 -133.5t40 -127.5t66.5 -108.5t97.5 -75t127.5 -28.5q65 0 118 21.5t89.5 59.5t63 86t41 105.5t21.5 113.5t7 114q0 71 -11 137t-37 128t-65 108t-99 74t-134 28q-75 0 -135 -33t-97 -85t-61.5 -120t-34.5 -133.5t-10 -130.5z" />
<glyph unicode="&#x153;" horiz-adv-x="1908" d="M102 537q0 254 142 406.5t372 152.5q112 0 210 -45.5t165 -130.5q131 176 355 176q148 0 259 -69t167 -202q36 -90 46.5 -182.5t6.5 -208.5h-703q13 -81 65 -136.5t120 -78t147 -20.5q176 4 283 67h32v-243q-154 -46 -335 -46q-277 0 -441 177q-125 -177 -377 -177 q-230 0 -372 153t-142 407zM371 537q0 -150 67 -239t176 -89q111 0 177.5 89t66.5 239t-67 238.5t-177 88.5t-176.5 -88.5t-66.5 -238.5zM1124 649h437q-9 104 -62 162t-149 59q-98 0 -157.5 -62t-68.5 -159z" />
<glyph unicode="&#x154;" horiz-adv-x="1374" d="M164 0v1155q0 116 81.5 197.5t196.5 81.5h191q273 0 420 -114t147 -345q0 -325 -291 -420l404 -555h-336l-359 518h-178v-518h-276zM440 766h199q139 0 207.5 46.5t68.5 162.5q0 117 -68.5 164t-207.5 47h-133q-29 0 -47.5 -18.5t-18.5 -45.5v-356zM535 1532l176 307h211 l-232 -307h-155z" />
<glyph unicode="&#x155;" horiz-adv-x="786" d="M143 0v1073h252v-65h8q176 88 342 88v-248h-28q-45 21 -103.5 16t-113 -23.5t-97.5 -45.5v-795h-260zM281 1171l176 308h211l-232 -308h-155z" />
<glyph unicode="&#x156;" horiz-adv-x="1374" d="M164 0v1155q0 116 81.5 197.5t196.5 81.5h191q273 0 420 -114t147 -345q0 -325 -291 -420l404 -555h-336l-359 518h-178v-518h-276zM440 766h199q139 0 207.5 46.5t68.5 162.5q0 117 -68.5 164t-207.5 47h-133q-29 0 -47.5 -18.5t-18.5 -45.5v-356zM492 -492l102 394h207 l-172 -394h-137z" />
<glyph unicode="&#x157;" horiz-adv-x="786" d="M55 -492l103 394h207l-172 -394h-138zM143 0v1073h252v-65h8q176 88 342 88v-248h-28q-45 21 -103.5 16t-113 -23.5t-97.5 -45.5v-795h-260z" />
<glyph unicode="&#x158;" horiz-adv-x="1374" d="M164 0v1155q0 116 81.5 197.5t196.5 81.5h191q273 0 420 -114t147 -345q0 -325 -291 -420l404 -555h-336l-359 518h-178v-518h-276zM365 1839h153l127 -168l125 168h158l-178 -307h-205zM440 766h199q139 0 207.5 46.5t68.5 162.5q0 117 -68.5 164t-207.5 47h-133 q-29 0 -47.5 -18.5t-18.5 -45.5v-356z" />
<glyph unicode="&#x159;" horiz-adv-x="786" d="M143 0v1073h252v-65h8q176 88 342 88v-248h-28q-45 21 -103.5 16t-113 -23.5t-97.5 -45.5v-795h-260zM174 1479h154l127 -168l125 168h157l-178 -308h-205z" />
<glyph unicode="&#x15a;" horiz-adv-x="1210" d="M82 51v262h33q221 -84 395 -84q38 0 77 4t85 16.5t81 31.5t58.5 53t22.5 78q-1 35 -17.5 63t-49 49t-60 33.5t-68.5 26.5q-19 7 -75.5 25.5t-82 27.5t-68 26t-79.5 35q-112 55 -173 148.5t-61 216.5t68.5 213.5t183.5 135t260 44.5q197 0 406 -70v-262h-35 q-74 38 -173.5 59t-195.5 21q-239 0 -239 -135q0 -36 19 -64.5t55 -49.5t66 -33.5t74 -27.5q14 -5 21 -7q10 -3 54 -17.5t62.5 -21.5t53.5 -19.5t62 -25t53 -25.5q105 -61 159 -146t54 -216q0 -89 -38 -169.5t-103 -135.5q-162 -134 -459 -134q-197 0 -426 74zM514 1532 l176 307h211l-231 -307h-156z" />
<glyph unicode="&#x15b;" horiz-adv-x="956" d="M82 31v233h29q60 -28 147.5 -44.5t157.5 -16.5q34 0 64.5 4t65.5 14.5t56 34t21 57.5q0 12 -4 23t-14 20.5t-17 16.5t-23 15t-22 11.5t-23.5 10.5t-19.5 8l-203 86q-188 81 -188 284q0 147 105 227.5t263 80.5q92 0 155 -12t154 -42v-233h-30q-106 59 -260 59 q-136 0 -136 -69q0 -40 99 -80l207 -86q119 -50 163.5 -125.5t44.5 -177.5q0 -73 -27 -133.5t-71.5 -100.5t-103.5 -67.5t-120.5 -39.5t-125.5 -12q-171 0 -344 54zM387 1171l176 308h211l-231 -308h-156z" />
<glyph unicode="&#x15c;" horiz-adv-x="1210" d="M82 51v262h33q221 -84 395 -84q38 0 77 4t85 16.5t81 31.5t58.5 53t22.5 78q-1 35 -17.5 63t-49 49t-60 33.5t-68.5 26.5q-19 7 -75.5 25.5t-82 27.5t-68 26t-79.5 35q-112 55 -173 148.5t-61 216.5t68.5 213.5t183.5 135t260 44.5q197 0 406 -70v-262h-35 q-74 38 -173.5 59t-195.5 21q-239 0 -239 -135q0 -36 19 -64.5t55 -49.5t66 -33.5t74 -27.5q14 -5 21 -7q10 -3 54 -17.5t62.5 -21.5t53.5 -19.5t62 -25t53 -25.5q105 -61 159 -146t54 -216q0 -89 -38 -169.5t-103 -135.5q-162 -134 -459 -134q-197 0 -426 74zM365 1534 l180 307h205l178 -307h-158l-125 166l-123 -166h-157z" />
<glyph unicode="&#x15d;" horiz-adv-x="956" d="M82 31v233h29q60 -28 147.5 -44.5t157.5 -16.5q34 0 64.5 4t65.5 14.5t56 34t21 57.5q0 12 -4 23t-14 20.5t-17 16.5t-23 15t-22 11.5t-23.5 10.5t-19.5 8l-203 86q-188 81 -188 284q0 147 105 227.5t263 80.5q92 0 155 -12t154 -42v-233h-30q-106 59 -260 59 q-136 0 -136 -69q0 -40 99 -80l207 -86q119 -50 163.5 -125.5t44.5 -177.5q0 -73 -27 -133.5t-71.5 -100.5t-103.5 -67.5t-120.5 -39.5t-125.5 -12q-171 0 -344 54zM217 1174l180 307h205l178 -307h-157l-125 165l-123 -165h-158z" />
<glyph unicode="&#x15e;" horiz-adv-x="1210" d="M82 51v262h33q221 -84 395 -84q38 0 77 4t85 16.5t81 31.5t58.5 53t22.5 78q-1 35 -17.5 63t-49 49t-60 33.5t-68.5 26.5q-19 7 -75.5 25.5t-82 27.5t-68 26t-79.5 35q-112 55 -173 148.5t-61 216.5t68.5 213.5t183.5 135t260 44.5q197 0 406 -70v-262h-35 q-74 38 -173.5 59t-195.5 21q-239 0 -239 -135q0 -36 19 -64.5t55 -49.5t66 -33.5t74 -27.5q14 -5 21 -7q10 -3 54 -17.5t62.5 -21.5t53.5 -19.5t62 -25t53 -25.5q105 -61 159 -146t54 -216q0 -89 -38 -169.5t-103 -135.5q-133 -112 -387 -131l-7 -39q46 -7 83.5 -21 t70 -37.5t50.5 -59.5t18 -83q0 -110 -75.5 -171t-182.5 -61q-126 0 -244 80l88 117h8q68 -47 143 -47q103 0 103 78q0 37 -42 63t-93 34.5t-92 4.5l24 142q-175 12 -350 71z" />
<glyph unicode="&#x15f;" horiz-adv-x="956" d="M82 31v233h29q60 -28 147.5 -44.5t157.5 -16.5q34 0 64.5 4t65.5 14.5t56 34t21 57.5q0 12 -4 23t-14 20.5t-17 16.5t-23 15t-22 11.5t-23.5 10.5t-19.5 8l-203 86q-188 81 -188 284q0 147 105 227.5t263 80.5q92 0 155 -12t154 -42v-233h-30q-106 59 -260 59 q-136 0 -136 -69q0 -40 99 -80l207 -86q119 -50 163.5 -125.5t44.5 -177.5q0 -82 -32.5 -147t-87.5 -106t-120.5 -64.5t-139.5 -30.5l-7 -41q46 -7 83.5 -21t70 -37.5t50.5 -59.5t18 -83q0 -110 -75.5 -171t-182.5 -61q-126 0 -244 80l88 117h8q68 -47 143 -47q103 0 103 78 q0 37 -42 63t-93 34.5t-92 4.5l24 144q-144 10 -264 49z" />
<glyph unicode="&#x160;" horiz-adv-x="1210" d="M82 51v262h33q221 -84 395 -84q38 0 77 4t85 16.5t81 31.5t58.5 53t22.5 78q-1 35 -17.5 63t-49 49t-60 33.5t-68.5 26.5q-19 7 -75.5 25.5t-82 27.5t-68 26t-79.5 35q-112 55 -173 148.5t-61 216.5t68.5 213.5t183.5 135t260 44.5q197 0 406 -70v-262h-35 q-74 38 -173.5 59t-195.5 21q-239 0 -239 -135q0 -36 19 -64.5t55 -49.5t66 -33.5t74 -27.5q14 -5 21 -7q10 -3 54 -17.5t62.5 -21.5t53.5 -19.5t62 -25t53 -25.5q105 -61 159 -146t54 -216q0 -89 -38 -169.5t-103 -135.5q-162 -134 -459 -134q-197 0 -426 74zM344 1839h154 l127 -168l125 168h157l-178 -307h-205z" />
<glyph unicode="&#x161;" horiz-adv-x="956" d="M82 31v233h29q60 -28 147.5 -44.5t157.5 -16.5q34 0 64.5 4t65.5 14.5t56 34t21 57.5q0 12 -4 23t-14 20.5t-17 16.5t-23 15t-22 11.5t-23.5 10.5t-19.5 8l-203 86q-188 81 -188 284q0 147 105 227.5t263 80.5q92 0 155 -12t154 -42v-233h-30q-106 59 -260 59 q-136 0 -136 -69q0 -40 99 -80l207 -86q119 -50 163.5 -125.5t44.5 -177.5q0 -73 -27 -133.5t-71.5 -100.5t-103.5 -67.5t-120.5 -39.5t-125.5 -12q-171 0 -344 54zM217 1479h154l127 -168l125 168h157l-178 -308h-205z" />
<glyph unicode="&#x162;" horiz-adv-x="1146" d="M41 1184v250h1065v-250h-397v-1184h-277v1184h-391zM362 -492l103 394h207l-172 -394h-138z" />
<glyph unicode="&#x163;" horiz-adv-x="770" d="M41 848v225h119v240h260v-240h272v-225h-272v-531q0 -65 31.5 -86.5t99.5 -21.5q78 0 149 45h29v-234q-116 -43 -209 -43q-188 0 -274 94t-86 287v490h-119zM270 -492l103 394h207l-172 -394h-138z" />
<glyph unicode="&#x164;" horiz-adv-x="1146" d="M41 1184v250h1065v-250h-397v-1184h-277v1184h-391zM291 1839h153l127 -168l125 168h158l-178 -307h-205z" />
<glyph unicode="&#x165;" horiz-adv-x="972" d="M41 848v225h119v240h260v-240h272v-225h-272v-531q0 -65 31.5 -86.5t99.5 -21.5q78 0 149 45h29v-234q-116 -43 -209 -43q-188 0 -274 94t-86 287v490h-119zM770 926l152 575h260l-252 -575h-160z" />
<glyph unicode="&#x166;" horiz-adv-x="1146" d="M41 1184v250h1065v-250h-397v-242h311v-158h-311v-784h-277v784h-301v158h301v242h-391z" />
<glyph unicode="&#x167;" horiz-adv-x="796" d="M39 561v146h121v141h-119v225h119v240h260v-240h272v-225h-272v-141h272v-146h-272v-244q0 -65 31.5 -86.5t99.5 -21.5q78 0 149 45h29v-234q-116 -43 -209 -43q-188 0 -274 94t-86 287v203h-121z" />
<glyph unicode="&#x168;" horiz-adv-x="1447" d="M164 580q0 -308 133.5 -455.5t425.5 -147.5t426.5 147.5t134.5 455.5v854h-266v-910q0 -161 -69 -228t-224 -67q-154 0 -219.5 67t-65.5 230v908h-276v-854zM352 1630q93 159 242 162q90 0 158 -43q8 -5 25.5 -17t27 -17.5t26 -11t33.5 -5.5q36 0 56 19t41 59l133 -72 q-43 -79 -99.5 -120.5t-140.5 -41.5q-80 0 -147 37q-12 6 -30 17.5t-29 18t-28 12t-34 5.5q-25 0 -44.5 -11t-29.5 -23.5t-27 -38.5z" />
<glyph unicode="&#x169;" d="M143 377v696h260v-678q0 -82 40 -134t122 -52q63 0 136.5 25t129.5 63v776h261v-1073h-252v66h-6q-182 -89 -308 -89q-170 0 -276.5 110.5t-106.5 289.5zM246 1270q93 159 241 162q90 0 158 -43q8 -5 25.5 -17t27 -18t26.5 -11.5t34 -5.5q25 0 44 12t28.5 25.5t23.5 40.5 l133 -72q-43 -79 -99 -120t-140 -41q-81 0 -148 37q-12 6 -30 17.5t-29 18t-28 12t-34 5.5q-25 0 -44.5 -12t-28.5 -23t-27 -39z" />
<glyph unicode="&#x16a;" horiz-adv-x="1447" d="M164 580q0 -308 133.5 -455.5t425.5 -147.5t426.5 147.5t134.5 455.5v854h-266v-910q0 -161 -69 -228t-224 -67q-154 0 -219.5 67t-65.5 230v908h-276v-854zM367 1561v100h712v-100h-712z" />
<glyph unicode="&#x16b;" d="M143 377v696h260v-678q0 -82 40 -134t122 -52q63 0 136.5 25t129.5 63v776h261v-1073h-252v66h-6q-182 -89 -308 -89q-170 0 -276.5 110.5t-106.5 289.5zM260 1200v100h713v-100h-713z" />
<glyph unicode="&#x16c;" horiz-adv-x="1447" d="M164 580q0 -308 133.5 -455.5t425.5 -147.5t426.5 147.5t134.5 455.5v854h-266v-910q0 -161 -69 -228t-224 -67q-154 0 -219.5 67t-65.5 230v908h-276v-854zM401 1786h129q27 -48 74.5 -65t118.5 -17q74 0 121 17t71 65h132q-37 -114 -118 -178t-206 -64q-122 0 -203 64 t-119 178z" />
<glyph unicode="&#x16d;" d="M143 377v696h260v-678q0 -82 40 -134t122 -52q63 0 136.5 25t129.5 63v776h261v-1073h-252v66h-6q-182 -89 -308 -89q-170 0 -276.5 110.5t-106.5 289.5zM295 1425h129q27 -48 74 -65t118 -17q74 0 121.5 17t71.5 65h131q-37 -114 -118 -177.5t-206 -63.5 q-122 0 -202.5 63.5t-118.5 177.5z" />
<glyph unicode="&#x16e;" horiz-adv-x="1447" d="M164 580q0 -308 133.5 -455.5t425.5 -147.5t426.5 147.5t134.5 455.5v854h-266v-910q0 -161 -69 -228t-224 -67q-154 0 -219.5 67t-65.5 230v908h-276v-854zM526 1698q0 83 57 139.5t140 56.5q82 0 140.5 -56.5t58.5 -139.5q0 -81 -58.5 -138t-140.5 -57q-83 0 -140 56.5 t-57 138.5zM637 1698q0 -36 25 -61t61 -25q37 0 61.5 24.5t24.5 61.5q0 36 -25 61t-61 25q-35 0 -60.5 -25.5t-25.5 -60.5z" />
<glyph unicode="&#x16f;" d="M143 377v696h260v-678q0 -82 40 -134t122 -52q63 0 136.5 25t129.5 63v776h261v-1073h-252v66h-6q-182 -89 -308 -89q-170 0 -276.5 110.5t-106.5 289.5zM420 1337q0 83 56.5 140t139.5 57q82 0 140.5 -57t58.5 -140q0 -81 -58.5 -137.5t-140.5 -56.5q-83 0 -139.5 56 t-56.5 138zM530 1337q0 -36 25 -61t61 -25q37 0 61.5 24.5t24.5 61.5q0 36 -25 61t-61 25q-35 0 -60.5 -25.5t-25.5 -60.5z" />
<glyph unicode="&#x170;" horiz-adv-x="1447" d="M164 580q0 -308 133.5 -455.5t425.5 -147.5t426.5 147.5t134.5 455.5v854h-266v-910q0 -161 -69 -228t-224 -67q-154 0 -219.5 67t-65.5 230v908h-276v-854zM432 1532l176 307h211l-231 -307h-156zM834 1532l176 307h211l-232 -307h-155z" />
<glyph unicode="&#x171;" d="M143 377v696h260v-678q0 -82 40 -134t122 -52q63 0 136.5 25t129.5 63v776h261v-1073h-252v66h-6q-182 -89 -308 -89q-170 0 -276.5 110.5t-106.5 289.5zM305 1171l176 308h211l-231 -308h-156zM707 1171l176 308h211l-232 -308h-155z" />
<glyph unicode="&#x172;" horiz-adv-x="1447" d="M164 580v854h276v-908q0 -163 65.5 -230t219.5 -67q155 0 224 67t69 228v910h266v-854q0 -292 -121 -439.5t-381 -160.5q-77 -108 -77 -218q0 -30 18.5 -51.5t49.5 -31t60 -13.5t62 -4v-154q-312 9 -358 181q-34 131 86 295q-239 23 -349 169t-110 427z" />
<glyph unicode="&#x173;" d="M143 377v696h260v-678q0 -82 40 -134t122 -52q63 0 136.5 25t129.5 63v776h261v-1073h-97q-94 -116 -94 -238q0 -30 18.5 -51.5t50 -31t60.5 -13.5t62 -4v-154q-313 9 -359 181q-39 144 107 317v60h-6q-182 -89 -308 -89q-170 0 -276.5 110.5t-106.5 289.5z" />
<glyph unicode="&#x174;" horiz-adv-x="1890" d="M41 1434l340 -1305q18 -66 71 -108t121 -39q64 1 115.5 41.5t65.5 99.5l190 811h8l185 -811q14 -59 65 -99.5t115 -41.5q68 -3 121 39t71 108l340 1305h-288l-240 -963h-8l-228 963h-280l-227 -963h-9l-239 963h-289zM664 1534l180 307h205l178 -307h-158l-125 166 l-123 -166h-157z" />
<glyph unicode="&#x175;" horiz-adv-x="1576" d="M41 1073h272l189 -713h8l184 713h189l184 -713h8l189 713h272l-276 -975q-14 -54 -66 -86t-113 -32q-60 0 -112.5 33.5t-65.5 88.5l-110 449h-9l-110 -449q-13 -55 -65.5 -88.5t-112.5 -33.5q-61 0 -113 32t-66 86zM506 1174l180 307h205l178 -307h-158l-125 165 l-122 -165h-158z" />
<glyph unicode="&#x176;" horiz-adv-x="1290" d="M41 1434h311l295 -615h8l299 615h295l-465 -885v-549h-276v549zM362 1534l181 307h205l178 -307h-158l-125 166l-123 -166h-158z" />
<glyph unicode="&#x177;" horiz-adv-x="1177" d="M41 1073h285l282 -719h10l259 719h260l-473 -1304q-54 -149 -166 -205t-308 -56h-26v226h53t44.5 1.5t40 4t32.5 7t30 11.5t23.5 17.5t22.5 25t18 32.5t18 42l46 125zM328 1174l180 307h205l178 -307h-158l-125 165l-123 -165h-157z" />
<glyph unicode="&#x178;" horiz-adv-x="1290" d="M41 1434h311l295 -615h8l299 615h295l-465 -885v-549h-276v549zM356 1573v225h222v-225h-222zM709 1573v225h225v-225h-225z" />
<glyph unicode="&#x179;" horiz-adv-x="1175" d="M61 0v176l734 1000v8h-684v250h817q76 0 135 -49.5t69.5 -122.5t-45.5 -156l-622 -848v-8h668v-250h-1072zM475 1532l176 307h211l-231 -307h-156z" />
<glyph unicode="&#x17a;" horiz-adv-x="960" d="M51 0v147l502 693v8h-477v225h665q56 0 96 -22t56 -56.5t11 -77t-34 -81.5l-436 -603v-8h475v-225h-858zM369 1171l176 308h211l-232 -308h-155z" />
<glyph unicode="&#x17b;" horiz-adv-x="1175" d="M61 0v176l734 1000v8h-684v250h817q76 0 135 -49.5t69.5 -122.5t-45.5 -156l-622 -848v-8h668v-250h-1072zM498 1573v225h221v-225h-221z" />
<glyph unicode="&#x17c;" horiz-adv-x="960" d="M51 0v147l502 693v8h-477v225h665q56 0 96 -22t56 -56.5t11 -77t-34 -81.5l-436 -603v-8h475v-225h-858zM369 1212v226h221v-226h-221z" />
<glyph unicode="&#x17d;" horiz-adv-x="1175" d="M61 0v176l734 1000v8h-684v250h817q76 0 135 -49.5t69.5 -122.5t-45.5 -156l-622 -848v-8h668v-250h-1072zM305 1839h154l127 -168l125 168h157l-178 -307h-205z" />
<glyph unicode="&#x17e;" horiz-adv-x="960" d="M51 0v147l502 693v8h-477v225h665q56 0 96 -22t56 -56.5t11 -77t-34 -81.5l-436 -603v-8h475v-225h-858zM199 1479h153l127 -168l125 168h158l-178 -308h-205z" />
<glyph unicode="&#x192;" horiz-adv-x="1220" d="M0 -492l45 224h55q121 0 185 49t88 168l131 655h-199l47 219h195l43 199q87 414 551 414h80l-47 -224h-54q-247 0 -291 -237l-28 -152h243l-47 -219h-239l-140 -696q-78 -393 -538 -400h-80z" />
<glyph unicode="&#x218;" horiz-adv-x="1210" d="M82 51v262h33q221 -84 395 -84q38 0 77 4t85 16.5t81 31.5t58.5 53t22.5 78q-1 35 -17.5 63t-49 49t-60 33.5t-68.5 26.5q-19 7 -75.5 25.5t-82 27.5t-68 26t-79.5 35q-112 55 -173 148.5t-61 216.5t68.5 213.5t183.5 135t260 44.5q197 0 406 -70v-262h-35 q-74 38 -173.5 59t-195.5 21q-239 0 -239 -135q0 -36 19 -64.5t55 -49.5t66 -33.5t74 -27.5q14 -5 21 -7q10 -3 54 -17.5t62.5 -21.5t53.5 -19.5t62 -25t53 -25.5q105 -61 159 -146t54 -216q0 -89 -38 -169.5t-103 -135.5q-162 -134 -459 -134q-197 0 -426 74zM365 -492 l102 394h207l-172 -394h-137z" />
<glyph unicode="&#x219;" horiz-adv-x="956" d="M82 31v233h29q60 -28 147.5 -44.5t157.5 -16.5q34 0 64.5 4t65.5 14.5t56 34t21 57.5q0 12 -4 23t-14 20.5t-17 16.5t-23 15t-22 11.5t-23.5 10.5t-19.5 8l-203 86q-188 81 -188 284q0 147 105 227.5t263 80.5q92 0 155 -12t154 -42v-233h-30q-106 59 -260 59 q-136 0 -136 -69q0 -40 99 -80l207 -86q119 -50 163.5 -125.5t44.5 -177.5q0 -73 -27 -133.5t-71.5 -100.5t-103.5 -67.5t-120.5 -39.5t-125.5 -12q-171 0 -344 54zM242 -492l102 394h207l-172 -394h-137z" />
<glyph unicode="&#x21a;" horiz-adv-x="1146" d="M41 1184v250h1065v-250h-397v-1184h-277v1184h-391zM362 -492l103 394h207l-172 -394h-138z" />
<glyph unicode="&#x21b;" horiz-adv-x="770" d="M41 848v225h119v240h260v-240h272v-225h-272v-531q0 -65 31.5 -86.5t99.5 -21.5q78 0 149 45h29v-234q-116 -43 -209 -43q-188 0 -274 94t-86 287v490h-119zM270 -492l103 394h207l-172 -394h-138z" />
<glyph unicode="&#x2c6;" horiz-adv-x="849" d="M143 1174l181 307h204l179 -307h-158l-125 165l-123 -165h-158z" />
<glyph unicode="&#x2c7;" horiz-adv-x="849" d="M143 1479h154l127 -168l125 168h158l-179 -308h-204z" />
<glyph unicode="&#x2d8;" horiz-adv-x="931" d="M143 1425h129q27 -48 74.5 -65t118.5 -17q74 0 121 17t71 65h131q-37 -114 -117.5 -177.5t-205.5 -63.5q-122 0 -203 63.5t-119 177.5z" />
<glyph unicode="&#x2d9;" horiz-adv-x="507" d="M143 1212v226h222v-226h-222z" />
<glyph unicode="&#x2da;" horiz-adv-x="681" d="M143 1337q0 83 57 140t140 57q82 0 140.5 -57t58.5 -140q0 -81 -58.5 -137.5t-140.5 -56.5q-83 0 -140 56t-57 138zM254 1337q0 -36 25 -61t61 -25q37 0 61.5 24.5t24.5 61.5q0 36 -25 61t-61 25q-35 0 -60.5 -25.5t-25.5 -60.5z" />
<glyph unicode="&#x2db;" horiz-adv-x="653" d="M152 -311q-41 157 145 364h166q-62 -59 -103 -137t-41 -154q0 -30 18.5 -51.5t50 -31t60.5 -13.5t62 -4v-154q-312 9 -358 181z" />
<glyph unicode="&#x2dc;" horiz-adv-x="1028" d="M143 1270q93 159 242 162q90 0 158 -43q9 -5 25.5 -17t26.5 -18t26.5 -11.5t33.5 -5.5q36 0 56 19t41 59l133 -72q-43 -79 -99 -120t-141 -41q-80 0 -147 37q-12 6 -30 17.5t-29 18t-28 12t-34 5.5q-25 0 -44.5 -11.5t-29 -23.5t-27.5 -39z" />
<glyph unicode="&#x2dd;" horiz-adv-x="1075" d="M143 1171l176 308h211l-231 -308h-156zM545 1171l176 308h211l-232 -308h-155z" />
<glyph unicode="&#x3c0;" horiz-adv-x="1337" d="M143 840v233h1051v-233h-160v-840h-246v840h-245v-840h-246l2 840h-156z" />
<glyph unicode="&#x1e02;" horiz-adv-x="1302" d="M164 0v1155q0 116 80.5 197.5t197.5 81.5h275q201 0 330 -103t129 -278q0 -97 -45 -175t-136 -106v-8q118 -36 182 -118.5t64 -211.5q0 -114 -42.5 -200t-118 -136t-169.5 -74t-206 -24h-541zM438 246h250q51 0 86.5 3.5t72 16t59 34t36.5 59.5t14 92q0 49 -17 84.5 t-42.5 55t-67 31t-78.5 14.5t-89 3h-224v-393zM438 868h197q39 0 59.5 1t57 5t57 14t43 27t33 45.5t10.5 67.5q0 94 -61 127t-193 33h-135q-30 0 -49 -20.5t-19 -51.5v-248zM541 1573v225h221v-225h-221z" />
<glyph unicode="&#x1e03;" horiz-adv-x="1200" d="M143 238v1263h260v-452h11q85 47 196 47q121 0 215 -41t153 -115t89.5 -172t30.5 -215q0 -123 -30 -225t-91.5 -182t-164 -124.5t-237.5 -44.5h-174q-107 0 -182.5 76.5t-75.5 184.5zM403 268q0 -24 18.5 -41.5t43.5 -17.5h86q85 0 141 22.5t85.5 70.5t40.5 106.5 t11 144.5q0 68 -12.5 122.5t-40 98t-76 67t-114.5 23.5q-95 0 -183 -26v-570zM551 1212v226h221v-226h-221z" />
<glyph unicode="&#x1e0a;" horiz-adv-x="1464" d="M164 0v1157q0 114 81.5 195.5t196.5 81.5h238q309 0 485 -182.5t176 -534.5t-176 -534.5t-485 -182.5h-516zM440 252h240q92 0 159 21.5t109 59t66.5 97.5t33.5 127.5t9 159.5t-9 159.5t-33.5 127.5t-66.5 97.5t-109 59t-159 21.5h-174q-28 0 -47 -19t-19 -45v-866z M621 1573v225h221v-225h-221z" />
<glyph unicode="&#x1e0b;" horiz-adv-x="1200" d="M102 553q0 117 30.5 215t89.5 172t153 115t215 41q111 0 196 -47h11v452h260v-1263q0 -108 -75.5 -184.5t-182.5 -76.5h-174q-135 0 -237.5 44.5t-164 124.5t-91.5 182t-30 225zM371 553q0 -86 11 -144.5t40.5 -106.5t85.5 -70.5t141 -22.5h86q25 0 43.5 17.5t18.5 41.5 v570q-88 26 -183 26q-66 0 -114.5 -23.5t-76 -67t-40 -98t-12.5 -122.5zM428 1212v226h221v-226h-221z" />
<glyph unicode="&#x1e1e;" horiz-adv-x="1171" d="M164 0v1157q0 114 81.5 195.5t196.5 81.5h688v-250h-624q-26 0 -46 -19t-20 -45v-268h500v-248h-500v-604h-276zM578 1573v225h221v-225h-221z" />
<glyph unicode="&#x1e1f;" horiz-adv-x="745" d="M41 848v225h115v31q0 201 85 299t275 98q87 0 209 -35v-237h-29q-71 43 -153 43q-57 0 -92 -33.5t-35 -99.5v-66h272v-225h-272v-848h-260v848h-115zM393 1573v225h221v-225h-221z" />
<glyph unicode="&#x1e40;" horiz-adv-x="1822" d="M154 0l65 1264q4 83 62.5 133.5t142.5 50.5q73 0 125.5 -38t75.5 -107l284 -904h9l280 904q22 69 74.5 107t126.5 38q84 0 142.5 -50.5t62.5 -133.5l65 -1264h-276l-41 942h-9l-290 -942h-283l-293 942h-8l-39 -942h-276zM801 1573v225h221v-225h-221z" />
<glyph unicode="&#x1e41;" horiz-adv-x="1683" d="M143 0v1073h254v-72q40 40 100.5 67.5t114.5 27.5q83 1 155 -31t122 -92q60 55 132.5 90t145.5 35q166 0 269.5 -115.5t103.5 -288.5v-694h-260v657q0 195 -131 195q-81 0 -176 -104v-748h-256v657q0 195 -125 195q-44 0 -98 -26t-91 -60v-766h-260zM731 1212v226h221 v-226h-221z" />
<glyph unicode="&#x1e56;" horiz-adv-x="1282" d="M164 0v1155q0 116 81.5 197.5t196.5 81.5h191q273 0 420 -115.5t147 -347.5q0 -233 -146 -347t-419 -114h-195v-510h-276zM440 758h199q138 0 207 48.5t69 164.5q0 118 -69 166.5t-207 48.5h-133q-29 0 -47.5 -18.5t-18.5 -45.5v-364zM551 1573v225h221v-225h-221z" />
<glyph unicode="&#x1e57;" horiz-adv-x="1200" d="M143 -492h260v517h11q86 -48 196 -48q121 0 215 41t153 115t89.5 172t30.5 215q0 123 -30 225t-91.5 182t-164 124.5t-237.5 44.5h-174q-107 0 -182.5 -76.5t-75.5 -183.5v-1328zM403 236v569q0 24 18.5 41.5t43.5 17.5h86q85 0 141 -22.5t85.5 -70.5t40.5 -106.5 t11 -144.5q0 -68 -12.5 -122.5t-40 -98t-76 -67t-114.5 -23.5q-92 0 -183 27zM489 1212v226h222v-226h-222z" />
<glyph unicode="&#x1e60;" horiz-adv-x="1210" d="M82 51v262h33q221 -84 395 -84q38 0 77 4t85 16.5t81 31.5t58.5 53t22.5 78q-1 35 -17.5 63t-49 49t-60 33.5t-68.5 26.5q-19 7 -75.5 25.5t-82 27.5t-68 26t-79.5 35q-112 55 -173 148.5t-61 216.5t68.5 213.5t183.5 135t260 44.5q197 0 406 -70v-262h-35 q-74 38 -173.5 59t-195.5 21q-239 0 -239 -135q0 -36 19 -64.5t55 -49.5t66 -33.5t74 -27.5q14 -5 21 -7q10 -3 54 -17.5t62.5 -21.5t53.5 -19.5t62 -25t53 -25.5q105 -61 159 -146t54 -216q0 -89 -38 -169.5t-103 -135.5q-162 -134 -459 -134q-197 0 -426 74zM535 1573v225 h221v-225h-221z" />
<glyph unicode="&#x1e61;" horiz-adv-x="956" d="M82 31v233h29q60 -28 147.5 -44.5t157.5 -16.5q34 0 64.5 4t65.5 14.5t56 34t21 57.5q0 12 -4 23t-14 20.5t-17 16.5t-23 15t-22 11.5t-23.5 10.5t-19.5 8l-203 86q-188 81 -188 284q0 147 105 227.5t263 80.5q92 0 155 -12t154 -42v-233h-30q-106 59 -260 59 q-136 0 -136 -69q0 -40 99 -80l207 -86q119 -50 163.5 -125.5t44.5 -177.5q0 -73 -27 -133.5t-71.5 -100.5t-103.5 -67.5t-120.5 -39.5t-125.5 -12q-171 0 -344 54zM408 1212v226h221v-226h-221z" />
<glyph unicode="&#x1e6a;" horiz-adv-x="1146" d="M41 1184v250h1065v-250h-397v-1184h-277v1184h-391zM463 1573v225h221v-225h-221z" />
<glyph unicode="&#x1e6b;" horiz-adv-x="770" d="M41 848v225h119v240h260v-240h272v-225h-272v-531q0 -65 31.5 -86.5t99.5 -21.5q78 0 149 45h29v-234q-116 -43 -209 -43q-188 0 -274 94t-86 287v490h-119zM178 1573v225h221v-225h-221z" />
<glyph unicode="&#x1e80;" horiz-adv-x="1890" d="M41 1434l340 -1305q18 -66 71 -108t121 -39q64 1 115.5 41.5t65.5 99.5l190 811h8l185 -811q14 -59 65 -99.5t115 -41.5q68 -3 121 39t71 108l340 1305h-288l-240 -963h-8l-228 963h-280l-227 -963h-9l-239 963h-289zM629 1839h207l178 -307h-158z" />
<glyph unicode="&#x1e81;" horiz-adv-x="1576" d="M41 1073h272l189 -713h8l184 713h189l184 -713h8l189 713h272l-276 -975q-14 -54 -66 -86t-113 -32q-60 0 -112.5 33.5t-65.5 88.5l-110 449h-9l-110 -449q-13 -55 -65.5 -88.5t-112.5 -33.5q-61 0 -113 32t-66 86zM473 1479h207l178 -308h-158z" />
<glyph unicode="&#x1e82;" horiz-adv-x="1890" d="M41 1434l340 -1305q18 -66 71 -108t121 -39q64 1 115.5 41.5t65.5 99.5l190 811h8l185 -811q14 -59 65 -99.5t115 -41.5q68 -3 121 39t71 108l340 1305h-288l-240 -963h-8l-228 963h-280l-227 -963h-9l-239 963h-289zM874 1532l177 307h211l-232 -307h-156z" />
<glyph unicode="&#x1e83;" horiz-adv-x="1576" d="M41 1073h272l189 -713h8l184 713h189l184 -713h8l189 713h272l-276 -975q-14 -54 -66 -86t-113 -32q-60 0 -112.5 33.5t-65.5 88.5l-110 449h-9l-110 -449q-13 -55 -65.5 -88.5t-112.5 -33.5q-61 0 -113 32t-66 86zM717 1171l176 308h211l-232 -308h-155z" />
<glyph unicode="&#x1e84;" horiz-adv-x="1890" d="M41 1434l340 -1305q18 -66 71 -108t121 -39q64 1 115.5 41.5t65.5 99.5l190 811h8l185 -811q14 -59 65 -99.5t115 -41.5q68 -3 121 39t71 108l340 1305h-288l-240 -963h-8l-228 963h-280l-227 -963h-9l-239 963h-289zM655 1573v225h222v-225h-222zM1008 1573v225h225 v-225h-225z" />
<glyph unicode="&#x1e85;" horiz-adv-x="1576" d="M41 1073h272l189 -713h8l184 713h189l184 -713h8l189 713h272l-276 -975q-14 -54 -66 -86t-113 -32q-60 0 -112.5 33.5t-65.5 88.5l-110 449h-9l-110 -449q-13 -55 -65.5 -88.5t-112.5 -33.5q-61 0 -113 32t-66 86zM500 1212v226h221v-226h-221zM852 1212v226h225v-226 h-225z" />
<glyph unicode="&#x1ef2;" horiz-adv-x="1290" d="M41 1434h311l295 -615h8l299 615h295l-465 -885v-549h-276v549zM350 1839h207l178 -307h-157z" />
<glyph unicode="&#x1ef3;" horiz-adv-x="1177" d="M41 1073h285l282 -719h10l259 719h260l-473 -1304q-54 -149 -166 -205t-308 -56h-26v226h53t44.5 1.5t40 4t32.5 7t30 11.5t23.5 17.5t22.5 25t18 32.5t18 42l46 125zM313 1479h207l178 -308h-157z" />
<glyph unicode="&#x2000;" horiz-adv-x="947" />
<glyph unicode="&#x2001;" horiz-adv-x="1894" />
<glyph unicode="&#x2002;" horiz-adv-x="947" />
<glyph unicode="&#x2003;" horiz-adv-x="1894" />
<glyph unicode="&#x2004;" horiz-adv-x="631" />
<glyph unicode="&#x2005;" horiz-adv-x="473" />
<glyph unicode="&#x2006;" horiz-adv-x="315" />
<glyph unicode="&#x2007;" horiz-adv-x="315" />
<glyph unicode="&#x2008;" horiz-adv-x="236" />
<glyph unicode="&#x2009;" horiz-adv-x="378" />
<glyph unicode="&#x200a;" horiz-adv-x="105" />
<glyph unicode="&#x2010;" horiz-adv-x="1005" d="M143 428v219h719v-219h-719z" />
<glyph unicode="&#x2011;" horiz-adv-x="1005" d="M143 428v219h719v-219h-719z" />
<glyph unicode="&#x2012;" horiz-adv-x="1005" d="M143 428v219h719v-219h-719z" />
<glyph unicode="&#x2013;" horiz-adv-x="1320" d="M143 440v187h1035v-187h-1035z" />
<glyph unicode="&#x2014;" horiz-adv-x="2279" d="M143 440v187h1993v-187h-1993z" />
<glyph unicode="&#x2018;" horiz-adv-x="698" d="M143 858l252 576h160l-152 -576h-260z" />
<glyph unicode="&#x2019;" horiz-adv-x="698" d="M143 858l152 576h260l-252 -576h-160z" />
<glyph unicode="&#x201a;" horiz-adv-x="698" d="M143 -303l152 575h260l-252 -575h-160z" />
<glyph unicode="&#x201c;" horiz-adv-x="1093" d="M143 858l252 576h160l-152 -576h-260zM539 858l252 576h159l-151 -576h-260z" />
<glyph unicode="&#x201d;" horiz-adv-x="1093" d="M143 858l152 576h260l-252 -576h-160zM539 858l151 576h260l-252 -576h-159z" />
<glyph unicode="&#x201e;" horiz-adv-x="1093" d="M143 -303l152 575h260l-252 -575h-160zM539 -303l151 575h260l-252 -575h-159z" />
<glyph unicode="&#x2020;" horiz-adv-x="1267" d="M143 881v192h402v361h205v-361h374v-192h-374v-1373h-205v1373h-402z" />
<glyph unicode="&#x2021;" horiz-adv-x="1267" d="M143 -14v192h402v703h-402v192h402v361h205v-361h374v-192h-374v-703h374v-192h-374v-478h-205v478h-402z" />
<glyph unicode="&#x2022;" horiz-adv-x="675" d="M143 713q0 79 57.5 136.5t137.5 57.5t137 -57.5t57 -136.5q0 -80 -57.5 -137.5t-136.5 -57.5q-80 0 -137.5 58t-57.5 137z" />
<glyph unicode="&#x2026;" horiz-adv-x="1806" d="M143 0v272h275v-272h-275zM766 0v272h274v-272h-274zM1389 0v272h274v-272h-274z" />
<glyph unicode="&#x202f;" horiz-adv-x="378" />
<glyph unicode="&#x2030;" horiz-adv-x="2344" d="M143 1090q0 167 81 266.5t218 99.5t218 -100.5t81 -265.5t-81 -265t-218 -100t-218 100t-81 265zM299 1087q0 -93 37.5 -159t105.5 -66t106 66t38 159t-38 159.5t-106 66.5t-105.5 -66.5t-37.5 -159.5zM346 -27l799 1493h147l-792 -1493h-154zM926 342q0 167 81 267 t218 100t218 -101t81 -266t-81 -265t-218 -100t-218 100t-81 265zM1081 340q0 -93 38 -159t106 -66t105.5 66t37.5 159t-37.5 159t-105.5 66t-106 -66t-38 -159zM1604 342q0 167 81 267t218 100t218 -101t81 -266t-81 -265t-218 -100t-218 100t-81 265zM1759 340 q0 -93 38 -159t106 -66t105.5 66t37.5 159t-37.5 159t-105.5 66t-106 -66t-38 -159z" />
<glyph unicode="&#x2039;" horiz-adv-x="856" d="M143 535l359 487h211l-332 -487l332 -490h-211z" />
<glyph unicode="&#x203a;" horiz-adv-x="856" d="M143 45l332 490l-332 487h211l359 -487l-359 -490h-211z" />
<glyph unicode="&#x2044;" horiz-adv-x="1253" d="M143 -27l799 1493h168l-793 -1493h-174z" />
<glyph unicode="&#x205f;" horiz-adv-x="473" />
<glyph unicode="&#x20ac;" horiz-adv-x="1431" d="M143 498l33 157h139q-3 49 2 127h-118l30 160h107q21 103 68.5 194.5t117.5 163.5t168 114t211 42q228 0 387 -94l-47 -238h-33q-125 80 -278 80q-117 0 -195 -74.5t-112 -187.5h585l-32 -160h-578q-7 -78 0 -127h553l-29 -157h-499q34 -119 113 -194t192 -75 q180 0 293 93h32v-263q-158 -82 -325 -82q-234 0 -389.5 142t-202.5 379h-193z" />
<glyph unicode="&#x2113;" horiz-adv-x="1046" d="M143 369q12 11 46 41.5t56 51.5t42 42v530q0 125 22 218t61 146t85.5 78t101.5 25q108 0 163.5 -87t55.5 -230q0 -325 -348 -703v-82q0 -85 14 -144.5t40 -91t56 -44.5t70 -13q70 0 128 51t98 124l69 -66q-116 -240 -328 -240q-76 0 -132.5 28.5t-89 79.5t-48.5 113.5 t-18 139.5v26l-99 -88zM428 643q250 312 250 545q0 188 -117 188q-26 0 -48 -15.5t-42 -52t-31.5 -107t-11.5 -169.5v-389z" />
<glyph unicode="&#x2122;" horiz-adv-x="1771" d="M61 1282h230v-682h155v682h230v152h-615v-152zM760 600l39 733q2 42 29.5 73t70.5 34q41 1 76 -24t47 -62l170 -525h6l166 525q12 41 42 63.5t71 22.5q48 0 78.5 -29t33.5 -78l39 -733h-158l-20 543h-6l-174 -543h-154l-176 533h-6l-29 -533h-145z" />
<glyph unicode="&#x2126;" horiz-adv-x="1490" d="M143 0v147h338v97q-102 43 -176 135.5t-107.5 200.5t-33.5 219q0 140 39 260t112 208.5t184 138.5t249 50t249.5 -51.5t182.5 -139.5t109 -203.5t38 -246.5q0 -122 -31.5 -231t-105 -202t-180.5 -136v-101h338v-145h-488v332q78 22 137 73t92.5 119t49.5 140.5t16 148.5 q0 137 -43.5 248.5t-137.5 182.5t-226 71q-87 0 -158 -29.5t-118 -79t-78.5 -116.5t-45.5 -139.5t-14 -151.5q0 -104 31.5 -199.5t100.5 -171.5t165 -100v-328h-488z" />
<glyph unicode="&#x212e;" horiz-adv-x="1667" d="M143 719q0 328 195 532q196 205 498 205q281 0 477 -184q202 -187 211 -553h-1080v-488q157 -157 392 -157q334 0 514 323l96 -59q-245 -358 -610 -358q-298 0 -496 204q-197 203 -197 535zM444 815h785v393q-169 156 -395 156q-231 0 -390 -156v-393z" />
<glyph unicode="&#x2202;" horiz-adv-x="1181" d="M143 317q0 196 120.5 341t307.5 200q148 46 357 49q-2 44 -3.5 69.5t-7 76t-13.5 82.5t-23 73t-35.5 65t-51.5 41t-69 17q-42 0 -78.5 -20.5t-63.5 -56.5t-44.5 -68.5t-34.5 -73.5l-131 55q56 123 147 206t205 83q75 0 133.5 -40t91 -99t53.5 -137.5t28 -143t7 -127.5 q0 -81 -9 -166t-30 -177t-52 -176t-79 -160t-107.5 -131.5t-141 -88.5t-175.5 -33q-142 0 -221.5 99.5t-79.5 240.5zM297 297q0 -76 49.5 -131t122.5 -55q59 0 115 25.5t100.5 68t79 90.5t59.5 100q74 156 101 387q-241 -11 -365 -67q-118 -54 -190 -172.5t-72 -245.5z" />
<glyph unicode="&#x2206;" horiz-adv-x="1585" d="M143 0l680 1501l619 -1501h-1299zM279 88h968l-463 1110z" />
<glyph unicode="&#x220f;" horiz-adv-x="1329" d="M143 -492v1926h1043v-1926h-166v1774h-711v-1774h-166z" />
<glyph unicode="&#x2211;" horiz-adv-x="1292" d="M143 -346l521 817l-521 817v146h1006v-152h-813l520 -811l-528 -811h821v-152h-1006v146z" />
<glyph unicode="&#x2212;" horiz-adv-x="1245" d="M143 618v185h959v-185h-959z" />
<glyph unicode="&#x221a;" horiz-adv-x="1288" d="M143 877l291 147l391 -793l248 1565h72l-299 -1876l-479 983l-191 -90z" />
<glyph unicode="&#x221e;" horiz-adv-x="1544" d="M143 715q0 116 79.5 198t191.5 82q165 0 309 -178q46 53 66.5 76t62.5 63.5t72 58.5t73 33t88 15q145 0 230.5 -104.5t85.5 -247.5t-89.5 -242.5t-226.5 -99.5q-47 0 -92.5 16t-79 36.5t-72.5 58.5t-61 64t-57 70q-144 -184 -309 -184q-115 0 -193 87t-78 198zM264 717 q0 -67 43 -114.5t107 -47.5q111 0 235 160q-39 44 -58 64t-52 49t-63 41t-62 12q-68 0 -109 -49t-41 -115zM799 717q9 -11 38 -50t42.5 -55.5t42 -47t50 -44t52 -25.5t61.5 -12q87 0 138.5 67.5t54.5 154.5q3 97 -52 167t-147 70q-31 0 -62.5 -12t-53 -26t-50 -43.5 t-41 -45.5t-40 -53t-33.5 -45z" />
<glyph unicode="&#x222b;" horiz-adv-x="944" d="M143 -358q0 44 28 78t69 34q51 0 77 -44.5t13 -90.5q0 -1 -1 -7l-1.5 -9t-0.5 -8.5t1 -8.5t3 -7t5.5 -5.5t9.5 -1.5q33 0 58 23t38 59t19.5 69.5t7.5 63.5q2 124 -9.5 255.5t-37 319.5t-33.5 256q-19 189 -27.5 298.5t-6.5 273.5t26 293q60 313 260 313q59 0 109.5 -38 t50.5 -95q0 -47 -25 -81t-69 -34q-40 0 -69.5 28t-29.5 69q0 13 5 34.5t5 30.5q0 11 -7 18t-17 7q-34 0 -59.5 -28t-38 -69.5t-18 -77.5t-5.5 -65q0 -169 40.5 -488t45.5 -382q10 -121 14 -179.5t8.5 -172.5t1.5 -189t-13.5 -170.5t-30.5 -175.5q-22 -93 -86.5 -161.5 t-153.5 -68.5q-63 0 -109.5 37t-46.5 97z" />
<glyph unicode="&#x2248;" horiz-adv-x="1333" d="M143 344v205q120 135 287 135q27 0 56.5 -4t48.5 -7.5t53.5 -15.5t44.5 -15.5t51 -19.5t45 -18q132 -53 186 -53q70 0 141 42t124 101v-219q-134 -127 -291 -127q-14 0 -28 1t-25 2.5t-26.5 5t-24 5.5t-25 7.5l-22.5 7.5t-24 9.5t-21.5 8.5t-23.5 9.5t-22 9.5 q-159 67 -237 67q-136 0 -267 -137zM154 756v205q120 135 286 135q27 0 56.5 -4t48.5 -7.5t53.5 -15.5t44.5 -15.5t51 -19.5t45 -18q132 -53 187 -53q70 0 140.5 42t123.5 101v-219q-134 -127 -291 -127q-43 0 -91 11.5t-72 21t-79 32.5q-161 68 -237 68q-135 0 -266 -137z " />
<glyph unicode="&#x2260;" horiz-adv-x="1247" d="M143 436v185h328l133 188h-461v186h592l199 279h170l-195 -279h195v-186h-324l-135 -188h459v-185h-592l-195 -276h-172l197 276h-199z" />
<glyph unicode="&#x2264;" horiz-adv-x="1185" d="M143 0h899v184h-899v-184zM143 643v186l899 410v-205l-657 -295l657 -297v-204z" />
<glyph unicode="&#x2265;" horiz-adv-x="1185" d="M143 0h899v184h-899v-184zM143 238v204l658 297l-658 295v205l899 -410v-186z" />
<glyph unicode="&#x25ca;" horiz-adv-x="1357" d="M143 717l461 751h150l460 -751l-460 -750h-150zM291 717l387 -631l389 631l-389 633z" />
<glyph unicode="&#x25fc;" horiz-adv-x="1075" d="M0 0v1075h1075v-1075h-1075z" />
</font>
</defs>
</svg>
