<svg xmlns="http://www.w3.org/2000/svg" viewBox="0 0 332.14 48.86"><defs><style>.a{fill:#fff}</style></defs><title>duracell-logo</title><path class="a" d="M276.31.1h-6.61a5 5 0 0 0-4.92 5v42.62h28.7l2.25-8.65h-19.42V.1zM312.45.1h-6.6a5 5 0 0 0-4.93 5v42.62h28.71l2.25-8.65h-19.43V.1zM79.66 5.07v25c0 5.12-2.72 9.94-9.34 9.94S61 35.23 61 30.12v-30H49.43v28.64c-.07 13.4 7.82 20.1 20.9 20.1s21-6.7 20.9-20.1V.09h-6.65a5 5 0 0 0-4.92 4.98zM238.25 27.41h16.13v-8.64h-16.13v-10h19.94V.1h-31.51v42.64a5 5 0 0 0 4.61 5h25.74l2.26-8.65h-21.04V27.41zM183.27 23.9c-.06 14.8 9.8 23.77 22.75 23.82h12.62V39h-7.06C203.15 39 195 36.19 195 23.78s8.13-15.07 16.57-15.07h7.06V.09h-12.51c-12.99 0-22.78 8.97-22.85 23.81zM21.28.09H4.93A5 5 0 0 0 0 5.07v42.64h21.37c13 0 22.82-9 22.75-23.82S34.28.09 21.28.09zM15.82 39h-4.25V8.71h4.25c8.43 0 16.57 2.66 16.57 15.07S24.25 39 15.82 39zM326.92 10.3a5.15 5.15 0 1 0-5.25-5.16 5.15 5.15 0 0 0 5.25 5.16zm0-9.44a4.17 4.17 0 0 1 4.18 4.28 4.2 4.2 0 1 1-8.39 0 4.18 4.18 0 0 1 4.21-4.28z"/><path class="a" d="M325.84 5.55h1l1.57 2.58h1l-1.69-2.62a1.54 1.54 0 0 0 1.54-1.64c0-1.17-.69-1.69-2.1-1.69h-2.28v5.95h.91V5.55zm0-2.61h1.23c.63 0 1.3.14 1.3.88 0 .91-.68 1-1.45 1h-1.07V2.94zM157.27.09c-3.89 0-5.6 1.78-6.7 5.07l-14.14 41.43-9.11-13.67c8-2.19 10.92-9 10.92-15.26A17.86 17.86 0 0 0 120.32.09h-17a5 5 0 0 0-4.93 5v42.63h11.48V8.82h6.82c9.53 0 11 6 11 8.84 0 8.77-8.19 9.4-13.77 9.74l11.77 20.32h22.21l2.42-8.24h18.08l2.41 8.24h12.67l-16-47.63h-10.21zm-5.12 32l7.21-24.61 7.2 24.52h-14.41z"/></svg>